<svg xmlns:xlink="http://www.w3.org/1999/xlink" xmlns="http://www.w3.org/2000/svg" width="48" height="48" viewBox="0 0 48 48" fill="none" src="/upload/menu_icons/new/Dostoprimechatelnosti.svg" alt="">
<g clip-path="url(#clip0)" stroke-opacity="0" stroke="#000000" fill="#FAA900">
<path d="M41.7116 2.76485C37.2176 0.591521 31.4652 1.4971 26.6116 1.4971C18.8819 1.4971 21.758 1.4971 14.0283 1.4971C13.6688 1.4971 13.3093 1.4971 12.9497 1.4971C12.5902 1.4971 12.2307 1.4971 11.6914 1.67823C8.63549 1.85936 6.29854 2.76485 5.22001 3.67043C4.50096 4.0326 3.78191 4.576 3.24264 5.30044C1.26518 7.29264 0.186646 9.82815 0.186646 12.7259C0.186646 15.4426 1.26518 18.1592 3.24264 20.1514C4.68065 21.6003 6.65803 22.5058 8.81518 22.6869V44.9634C8.81518 45.5067 9.35454 46.05 9.8938 46.05H38.1164C38.6556 46.05 39.195 45.5067 39.195 44.9634V22.5058C41.3521 22.3247 43.1497 21.6003 44.7675 19.9703C46.745 17.9781 47.8235 15.4426 47.8235 12.5448C47.6437 8.37926 45.3069 4.75705 41.7116 2.76485ZM43.1497 18.5214C41.8914 19.7891 40.2735 20.3325 38.4759 20.3325C36.6783 20.3325 35.0605 19.6081 33.9818 18.5214C32.0045 16.5292 32.0045 13.4504 33.9818 11.4582C34.7009 10.7337 35.5997 10.3715 36.6783 10.3715C37.5771 10.3715 38.6556 10.7337 39.3747 11.4582C40.4533 12.5448 40.4533 14.3558 39.3747 15.4426C39.0152 15.8047 39.0152 16.5292 39.3747 16.8914C39.5545 17.0725 39.914 17.2536 40.0937 17.2536C40.2735 17.2536 40.6331 17.0725 40.8128 16.8914C41.7116 15.9859 42.2509 14.7181 42.2509 13.4504C42.2509 12.1825 41.7116 10.9148 40.8128 10.0093C39.7343 8.92257 38.1164 8.37926 36.6783 8.37926C35.2401 8.37926 33.6223 8.92257 32.5437 10.0093C28.589 13.9937 31.2854 21.9625 37.0378 22.5058V25.7658V34.0969V43.8767H34.3414H31.645H27.6902H24.4545H20.3199H19.9604H15.4664H13.3093H10.6129V34.0969V29.0258V26.8524V25.5847V22.3247C10.6129 22.3247 11.8712 21.9625 12.051 21.9625C16.9045 19.9703 19.0616 13.8125 15.1069 10.0093C14.0283 8.92257 12.4104 8.37926 10.9723 8.37926C9.53423 8.37926 7.91643 8.92257 6.83781 10.0093C4.86044 11.8203 4.86044 15.0803 6.83781 16.8914C7.0176 17.0725 7.37708 17.2536 7.55686 17.2536C7.73665 17.2536 8.09613 17.0725 8.27592 16.8914C8.63549 16.5292 8.63549 15.8047 8.27592 15.4426C7.19738 14.3558 7.19738 12.5448 8.27592 11.4582C8.99497 10.7337 9.8938 10.3715 10.9723 10.3715C11.8712 10.3715 12.9497 10.7337 13.6688 11.4582C15.6461 13.4504 15.6461 16.5292 13.6688 18.5214C12.4104 19.7891 10.7926 20.3325 8.99497 20.3325C7.37708 20.3325 5.75928 19.7891 4.32117 18.5214C1.08548 15.2614 1.08548 10.0093 4.32117 6.74924C6.83781 4.75705 9.53424 3.48929 12.4104 3.67043H35.2402C38.1164 3.67043 40.9926 4.75705 43.1497 6.74924C44.7676 8.37926 45.6664 10.3715 45.6664 12.5448C45.6664 14.8992 44.7676 16.8914 43.1497 18.5214Z" fill="#FAA900" stroke-opacity="0" stroke="#000000"></path>
<path fill-rule="evenodd" clip-rule="evenodd" d="M41.7852 2.62274L41.7891 2.62489C45.4313 4.64307 47.8011 8.31464 47.9833 12.5379L47.9835 12.5413V12.5448C47.9835 15.4854 46.8878 18.0612 44.881 20.083C43.2702 21.7059 41.4808 22.4478 39.3549 22.652V44.9634C39.3549 45.2867 39.1961 45.5969 38.9714 45.8232C38.7468 46.0494 38.4384 46.21 38.1163 46.21H9.89377C9.57168 46.21 9.26326 46.0494 9.03868 45.8232C8.81403 45.5969 8.65515 45.2867 8.65515 44.9634V22.8329C6.51911 22.6208 4.5625 21.7084 3.12905 20.2641C1.12123 18.2413 0.0266113 15.4839 0.0266113 12.7259C0.0266113 9.78921 1.11936 7.21628 3.12108 5.19575C3.67279 4.45812 4.40282 3.90564 5.13144 3.53589C6.24922 2.60657 8.60885 1.70417 11.6608 1.51977C12.2137 1.33709 12.5894 1.33709 12.9489 1.33709H26.6116C27.6909 1.33709 28.8151 1.29216 29.9639 1.24625C30.1023 1.24071 30.2411 1.23516 30.3803 1.22968C31.6723 1.17874 32.9909 1.13327 34.2992 1.15599C36.9144 1.20142 39.5034 1.51921 41.7812 2.6208L41.7852 2.62274ZM11.6914 1.67823C8.63545 1.85936 6.29851 2.76485 5.21998 3.67042C4.50092 4.0326 3.78187 4.576 3.2426 5.30044C1.26514 7.29264 0.186611 9.82814 0.186611 12.7259C0.186611 15.4426 1.26514 18.1592 3.2426 20.1514C4.68062 21.6003 6.65799 22.5058 8.81515 22.6869V44.9634C8.81515 45.5067 9.3545 46.05 9.89377 46.05H38.1163C38.6556 46.05 39.1949 45.5067 39.1949 44.9634V22.5058C41.3521 22.3247 43.1497 21.6003 44.7675 19.9703C46.7449 17.9781 47.8235 15.4426 47.8235 12.5448C47.6437 8.37926 45.3068 4.75704 41.7116 2.76485C38.2201 1.07636 33.9691 1.24628 29.9701 1.40613C28.8218 1.45202 27.6943 1.49709 26.6116 1.49709H12.9497C12.5902 1.49709 12.2306 1.49709 11.6914 1.67823ZM39.2611 17.0041C39.0448 16.7861 38.945 16.47 38.945 16.167C38.945 15.8639 39.0448 15.5478 39.2611 15.3298C40.2778 14.3055 40.2778 12.5951 39.2611 11.5709L39.3746 11.4582C40.4533 12.5448 40.4533 14.3558 39.3746 15.4426C39.0152 15.8047 39.0152 16.5292 39.3746 16.8914C39.5544 17.0725 39.914 17.2536 40.0937 17.2536C40.2735 17.2536 40.633 17.0725 40.8127 16.8914C41.7116 15.9859 42.2508 14.7181 42.2508 13.4504C42.2508 12.1825 41.7116 10.9148 40.8127 10.0093C39.7342 8.92256 38.1163 8.37925 36.6782 8.37925C35.2401 8.37925 33.6223 8.92256 32.5437 10.0093C28.5889 13.9937 31.2854 21.9624 37.0378 22.5058V43.8767H10.6128V22.3247C10.6128 22.3247 11.8711 21.9624 12.0509 21.9624C16.9044 19.9703 19.0616 13.8125 15.1068 10.0093C14.0283 8.92256 12.4104 8.37925 10.9723 8.37925C9.5342 8.37925 7.9164 8.92256 6.83778 10.0093C4.86041 11.8203 4.86041 15.0803 6.83778 16.8914C7.01756 17.0725 7.37704 17.2536 7.55683 17.2536C7.73661 17.2536 8.0961 17.0725 8.27588 16.8914C8.63545 16.5292 8.63545 15.8047 8.27588 15.4426C7.19735 14.3558 7.19735 12.5448 8.27588 11.4582C8.99493 10.7337 9.89377 10.3715 10.9723 10.3715C11.8711 10.3715 12.9497 10.7337 13.6687 11.4582C15.6461 13.4504 15.6461 16.5292 13.6687 18.5214C12.4104 19.7891 10.7925 20.3325 8.99493 20.3325C7.37705 20.3325 5.75924 19.7891 4.32114 18.5214C1.08545 15.2614 1.08545 10.0093 4.32114 6.74924C6.83778 4.75704 9.5342 3.48929 12.4104 3.67042H35.2402C38.1163 3.67042 40.9925 4.75704 43.1497 6.74924C44.7676 8.37926 45.6663 10.3715 45.6663 12.5448C45.6663 14.8992 44.7676 16.8914 43.1497 18.5214C41.8914 19.7891 40.2735 20.3325 38.4759 20.3325C36.6782 20.3325 35.0604 19.6081 33.9818 18.5214C32.0044 16.5292 32.0044 13.4504 33.9818 11.4582C34.7008 10.7337 35.5997 10.3715 36.6782 10.3715C37.5771 10.3715 38.6556 10.7337 39.3746 11.4582L39.2611 11.5709C38.5765 10.8811 37.5411 10.5315 36.6782 10.5315C35.6396 10.5315 34.7825 10.8785 34.0954 11.5709C32.1799 13.5007 32.1799 16.4788 34.0954 18.4087C35.1437 19.4649 36.7206 20.1725 38.4759 20.1725C40.2396 20.1725 41.8135 19.6404 43.0361 18.4086C44.6266 16.8063 45.5063 14.8538 45.5063 12.5448C45.5063 10.4198 44.6289 8.46778 43.0386 6.86442C40.912 4.90168 38.0759 3.83042 35.2402 3.83042H12.4054L12.4004 3.8301C9.58268 3.65266 6.92719 4.89205 4.42798 6.86873C1.26218 10.0656 1.26318 15.2093 4.43095 18.4049C5.83828 19.6439 7.41678 20.1725 8.99493 20.1725C10.7587 20.1725 12.3326 19.6404 13.5552 18.4087C15.4706 16.4788 15.4706 13.5007 13.5552 11.5709C12.8706 10.8811 11.8352 10.5315 10.9723 10.5315C9.93373 10.5315 9.07661 10.8785 8.38944 11.5709C7.37283 12.5951 7.37282 14.3055 8.38944 15.3298C8.60581 15.5478 8.70556 15.8639 8.70556 16.167C8.70556 16.4701 8.6058 16.7862 8.38944 17.0041C8.28378 17.1106 8.13313 17.2104 7.98834 17.2833C7.84868 17.3537 7.68584 17.4136 7.55683 17.4136C7.42781 17.4136 7.26498 17.3537 7.12532 17.2833C6.98179 17.211 6.83253 17.1123 6.72702 17.007C4.68403 15.1328 4.68399 11.768 6.7269 9.89386C7.84076 8.77345 9.50075 8.21925 10.9723 8.21925C12.4445 8.21925 14.1053 8.7739 15.2191 9.89524C17.2423 11.8419 17.702 14.3947 17.0357 16.7093C16.3705 19.0203 14.5835 21.0959 12.1117 22.1105L12.0825 22.1224H12.051C12.0512 22.1224 12.0495 22.1225 12.0453 22.1229C12.0408 22.1232 12.0349 22.1239 12.0272 22.125C12.0117 22.1271 11.9919 22.1305 11.9677 22.1351C11.9193 22.1444 11.8579 22.158 11.7873 22.1747C11.6463 22.2082 11.4739 22.253 11.306 22.2981C11.1382 22.3432 10.976 22.3883 10.8556 22.4221C10.8251 22.4307 10.7973 22.4386 10.7728 22.4455V43.7167H36.8778V22.6498C33.9991 22.3143 31.8987 20.1599 30.9996 17.601C30.0858 15.0002 30.3993 11.9426 32.4301 9.89656C33.544 8.77434 35.2055 8.21925 36.6782 8.21925C38.1509 8.21925 39.8125 8.77434 40.9263 9.89655C41.8538 10.8309 42.4108 12.1387 42.4108 13.4504C42.4108 14.7619 41.8538 16.0697 40.9263 17.0041C40.8207 17.1106 40.67 17.2104 40.5252 17.2833C40.3856 17.3537 40.2227 17.4136 40.0937 17.4136C39.9647 17.4136 39.8019 17.3537 39.6622 17.2833C39.5174 17.2104 39.3667 17.1105 39.2611 17.0041Z" fill="#FAA900" stroke-opacity="0" stroke="#000000"></path>
<path d="M20.3799 26.948C20.3799 26.3258 19.8756 25.8214 19.2534 25.8214V25.8214C18.6312 25.8214 18.1268 26.3258 18.1268 26.948V38.8556C18.1268 39.4778 18.6312 39.9822 19.2534 39.9822V39.9822C19.8756 39.9822 20.3799 39.4778 20.3799 38.8556V26.948Z" fill="#FAA900" stroke-opacity="0" stroke="#000000"></path>
<path d="M29.1241 26.948C29.1241 26.3258 28.6197 25.8214 27.9975 25.8214V25.8214C27.3753 25.8214 26.871 26.3258 26.871 26.948V38.8556C26.871 39.4778 27.3753 39.9822 27.9975 39.9822V39.9822C28.6197 39.9822 29.1241 39.4778 29.1241 38.8556V26.948Z" fill="#FAA900" stroke-opacity="0" stroke="#000000"></path>
</g>
<defs>
<clipPath id="clip0">
<rect width="48" height="45.76" fill="white" transform="translate(0 1.12)"></rect>
</clipPath>
</defs>
</svg>