<svg width="290" height="163" viewBox="0 0 290 163" fill="none" xmlns="http://www.w3.org/2000/svg">
<mask id="path-1-inside-1_117_28" fill="white">
<rect x="63" y="33" width="163" height="130" rx="5"/>
</mask>
<rect x="63" y="33" width="163" height="130" rx="5" stroke="black" stroke-width="16" mask="url(#path-1-inside-1_117_28)"/>
<mask id="path-2-inside-2_117_28" fill="white">
<rect width="70" height="162" rx="5"/>
</mask>
<rect width="70" height="162" rx="5" stroke="black" stroke-width="16" mask="url(#path-2-inside-2_117_28)"/>
<mask id="path-3-inside-3_117_28" fill="white">
<rect x="219" width="70" height="162" rx="5"/>
</mask>
<rect x="219" width="70" height="162" rx="5" stroke="black" stroke-width="16" mask="url(#path-3-inside-3_117_28)"/>
<path d="M142.337 11.2444L83.0112 33.1235C80.9163 33.8961 81.4704 37 83.7032 37H207.825C210.09 37 210.61 33.8295 208.465 33.1051L143.669 11.226C143.236 11.0797 142.766 11.0862 142.337 11.2444Z" stroke="black" stroke-width="8"/>
<path d="M35.5 4.5V37M35.5 4.5H20M35.5 4.5H51M35.5 37H20M35.5 37H51M20 4.5H6.5C5.39543 4.5 4.5 5.39543 4.5 6.5V35C4.5 36.1046 5.39543 37 6.5 37H20M20 4.5V37M51 4.5H64.5C65.6046 4.5 66.5 5.39543 66.5 6.5V35C66.5 36.1046 65.6046 37 64.5 37H51M51 4.5V37M254.5 4.5V37M254.5 4.5H239M254.5 4.5H270M254.5 37H239M254.5 37H270M239 4.5H225.5C224.395 4.5 223.5 5.39543 223.5 6.5V35C223.5 36.1046 224.395 37 225.5 37H239M239 4.5V37M270 4.5H283.5C284.605 4.5 285.5 5.39543 285.5 6.5V35C285.5 36.1046 284.605 37 283.5 37H270M270 4.5V37" stroke="black" stroke-width="8"/>
<mask id="path-6-inside-4_117_28" fill="white">
<rect x="98" y="57" width="91" height="105" rx="5"/>
</mask>
<rect x="98" y="57" width="91" height="105" rx="5" stroke="black" stroke-width="16" mask="url(#path-6-inside-4_117_28)"/>
<path d="M133 138V156C133 157.105 133.895 158 135 158H156C157.105 158 158 157.105 158 156V138C158 136.895 157.105 136 156 136H135C133.895 136 133 136.895 133 138Z" stroke="black" stroke-width="8"/>
<path d="M20.5 68V50C20.5 48.8954 21.3954 48 22.5 48H48C49.1046 48 50 48.8954 50 50V68C50 69.1046 49.1046 70 48 70H22.5C21.3954 70 20.5 69.1046 20.5 68Z" stroke="black" stroke-width="8"/>
<path d="M20.5 116.5V97C20.5 95.8954 21.3954 95 22.5 95H48C49.1046 95 50 95.8954 50 97V116.5C50 117.605 49.1046 118.5 48 118.5H22.5C21.3954 118.5 20.5 117.605 20.5 116.5Z" stroke="black" stroke-width="8"/>
<path d="M241 116.5V97C241 95.8954 241.895 95 243 95H265C266.105 95 267 95.8954 267 97V116.5C267 117.605 266.105 118.5 265 118.5H243C241.895 118.5 241 117.605 241 116.5Z" stroke="black" stroke-width="8"/>
<path d="M241 50V68C241 69.1046 241.895 70 243 70H265C266.105 70 267 69.1046 267 68V50C267 48.8954 266.105 48 265 48H243C241.895 48 241 48.8954 241 50Z" stroke="black" stroke-width="8"/>
</svg>
