<svg width="496" height="496" viewBox="0 0 496 496" fill="none" xmlns="http://www.w3.org/2000/svg">
<g filter="url(#filter0_d_11_34)">
<circle cx="238" cy="238" r="165" fill="white" fill-opacity="0.74" shape-rendering="crispEdges"/>
<circle cx="238" cy="238" r="164" stroke="#B5B5B5" stroke-width="2" shape-rendering="crispEdges"/>
</g>
<g filter="url(#filter1_d_11_34)">
<circle cx="238.5" cy="237.5" r="138.5" fill="white" fill-opacity="0.24" shape-rendering="crispEdges"/>
</g>
<path d="M120.04 261V214.455H122.881V236.386H150.926V214.455H153.767V261H150.926V239.023H122.881V261H120.04ZM165.432 261H162.432L179.227 214.455H182.5L199.295 261H196.295L180.977 218.114H180.75L165.432 261ZM169.682 243.477H192.045V246.114H169.682V243.477ZM207.455 214.455H210.318V229.75C210.318 232.28 210.758 234.356 211.636 235.977C212.515 237.583 213.803 238.773 215.5 239.545C217.212 240.318 219.311 240.705 221.795 240.705C223.008 240.705 224.235 240.644 225.477 240.523C226.72 240.402 227.962 240.227 229.205 240C230.462 239.773 231.712 239.5 232.955 239.182C234.197 238.848 235.417 238.477 236.614 238.068V240.795C235.28 241.22 233.985 241.598 232.727 241.932C231.485 242.25 230.258 242.515 229.045 242.727C227.848 242.939 226.652 243.098 225.455 243.205C224.273 243.311 223.076 243.364 221.864 243.364C218.758 243.348 216.129 242.856 213.977 241.886C211.841 240.902 210.22 239.409 209.114 237.409C208.008 235.394 207.455 232.841 207.455 229.75V214.455ZM236.25 214.455H238.955V261H236.25V214.455ZM250.619 261H247.619L264.415 214.455H267.688L284.483 261H281.483L266.165 218.114H265.938L250.619 261ZM254.869 243.477H277.233V246.114H254.869V243.477ZM284.636 217.091V214.455H317.25V217.091H302.364V261H299.523V217.091H284.636ZM329.534 235.818H345.057C347.92 235.818 350.383 236.318 352.443 237.318C354.519 238.318 356.11 239.735 357.216 241.568C358.322 243.386 358.875 245.53 358.875 248C358.875 250.621 358.322 252.909 357.216 254.864C356.125 256.818 354.549 258.333 352.489 259.409C350.428 260.47 347.951 261 345.057 261H327.602V214.455H330.443V258.386H345.057C347.375 258.386 349.352 257.947 350.989 257.068C352.64 256.189 353.898 254.962 354.761 253.386C355.625 251.811 356.057 249.985 356.057 247.909C356.072 245.136 355.087 242.871 353.102 241.114C351.133 239.341 348.451 238.455 345.057 238.455H329.534V235.818Z" fill="black"/>
<defs>
<filter id="filter0_d_11_34" x="0" y="0" width="496" height="496" filterUnits="userSpaceOnUse" color-interpolation-filters="sRGB">
<feFlood flood-opacity="0" result="BackgroundImageFix"/>
<feColorMatrix in="SourceAlpha" type="matrix" values="0 0 0 0 0 0 0 0 0 0 0 0 0 0 0 0 0 0 127 0" result="hardAlpha"/>
<feMorphology radius="34" operator="dilate" in="SourceAlpha" result="effect1_dropShadow_11_34"/>
<feOffset dx="10" dy="10"/>
<feGaussianBlur stdDeviation="24.5"/>
<feComposite in2="hardAlpha" operator="out"/>
<feColorMatrix type="matrix" values="0 0 0 0 0 0 0 0 0 0 0 0 0 0 0 0 0 0 0.17 0"/>
<feBlend mode="normal" in2="BackgroundImageFix" result="effect1_dropShadow_11_34"/>
<feBlend mode="normal" in="SourceGraphic" in2="effect1_dropShadow_11_34" result="shape"/>
</filter>
<filter id="filter1_d_11_34" x="81" y="77" width="319" height="319" filterUnits="userSpaceOnUse" color-interpolation-filters="sRGB">
<feFlood flood-opacity="0" result="BackgroundImageFix"/>
<feColorMatrix in="SourceAlpha" type="matrix" values="0 0 0 0 0 0 0 0 0 0 0 0 0 0 0 0 0 0 127 0" result="hardAlpha"/>
<feMorphology radius="3" operator="dilate" in="SourceAlpha" result="effect1_dropShadow_11_34"/>
<feOffset dx="2" dy="-1"/>
<feGaussianBlur stdDeviation="9"/>
<feComposite in2="hardAlpha" operator="out"/>
<feColorMatrix type="matrix" values="0 0 0 0 0 0 0 0 0 0 0 0 0 0 0 0 0 0 0.25 0"/>
<feBlend mode="normal" in2="BackgroundImageFix" result="effect1_dropShadow_11_34"/>
<feBlend mode="normal" in="SourceGraphic" in2="effect1_dropShadow_11_34" result="shape"/>
</filter>
</defs>
</svg>
