<?xml version="1.0" encoding="UTF-8" standalone="no"?>
<!-- Created with Inkscape (http://www.inkscape.org/) -->

<svg
   version="1.1"
   id="svg2"
   width="240.3775"
   height="208.39734"
   viewBox="0 0 240.3775 208.39734"
   sodipodi:docname="map.svg"
   inkscape:version="1.2.2 (732a01da63, 2022-12-09)"
   xmlns:inkscape="http://www.inkscape.org/namespaces/inkscape"
   xmlns:sodipodi="http://sodipodi.sourceforge.net/DTD/sodipodi-0.dtd"
   xmlns="http://www.w3.org/2000/svg"
   xmlns:svg="http://www.w3.org/2000/svg">
  <defs
     id="defs6">
    <linearGradient
       id="linearGradient67598"
       inkscape:swatch="solid">
      <stop
         style="stop-color:#777777;stop-opacity:1;"
         offset="0"
         id="stop67596" />
    </linearGradient>
  </defs>
  <sodipodi:namedview
     id="namedview4"
     pagecolor="#ffffff"
     bordercolor="#111111"
     borderopacity="1"
     inkscape:showpageshadow="0"
     inkscape:pageopacity="0"
     inkscape:pagecheckerboard="1"
     inkscape:deskcolor="#d1d1d1"
     showgrid="false"
     showguides="false"
     inkscape:lockguides="false"
     inkscape:zoom="0.70835525"
     inkscape:cx="1043.2618"
     inkscape:cy="502.57268"
     inkscape:window-width="1920"
     inkscape:window-height="1009"
     inkscape:window-x="-8"
     inkscape:window-y="-8"
     inkscape:window-maximized="1"
     inkscape:current-layer="g8" />
  <g
     inkscape:groupmode="layer"
     inkscape:label="Image"
     id="g8"
     transform="translate(-603.81372,-377.80133)">
    <path
       style="opacity:1;mix-blend-mode:normal;fill:#fafafa;fill-opacity:1;stroke:#000000;stroke-opacity:0.434483"
       d="m 753.97647,578.34129 1.80931,-1.49735 4.05534,-0.87346 4.99118,-0.49912 2.93233,1.2478 2.99471,-0.18717 0.93585,-1.12302 0.56151,-2.62037 -0.21836,-4.08654 -0.0936,-1.2166 0.24956,-3.43144 1.62213,-0.0624 3.0571,1.06063 2.74516,0.6239 1.93408,-0.68629 1.18541,-3.18189 0.24956,-3.11949 2.62037,-0.99824 9.8576,-0.0624 2.68276,-2.30842 2.4956,-1.68453 1.62213,2.30843 0.56151,3.43144 1.49736,4.36729 1.31018,2.62037 2.68277,-0.37434 1.74691,-2.55798 6.0737,-6.92316 6.03765,-6.60642 4.98347,-5.24976 5.02239,-4.52327 6.26083,-5.52957 5.17596,-4.20572 -1.30143,-4.49985 -0.77203,-2.88962 -0.2647,-1.94112 -5.63598,-0.27495 -2.65157,1.90289 -2.99471,2.58918 -2.96352,0.31195 -2.05886,-1.18541 -1.2478,-1.87169 -1.15421,-3.30667 -1.49736,-2.402 -1.34138,-0.6551 -2.90113,3.64981 -1.87169,1.8405 -2.27723,-0.34315 -5.42792,-3.83697 -1.55975,-3.02591 v -3.15069 l -0.49914,-11.47973 -2.65156,-4.64804 -1.49736,-1.15421 -1.02943,0.24956 -1.18541,1.49735 -2.30842,0.90466 -1.02944,-1.06063 -0.24956,-1.2478 0.77988,-4.39848 -1.59094,-1.40377 -2.4956,0.43672 -3.6498,1.43497 -3.6825,2.35754 -1.33989,0.73076 -1.62213,0.24956 -1.43497,-0.6239 -1.29459,-1.02943 -2.19672,-1.60773 -2.98163,-1.46497 -2.97912,-0.49912 h -4.67924 l -3.15069,0.0156 -3.93056,-1.2478 -2.55798,-1.55975 -2.57358,-3.88377 -0.79547,-1.29459 -1.46616,-3.11949 -1.43497,-1.55974 -3.49383,-2.80755 -1.71572,-1.51295 -1.71572,-1.51295 -4.02415,-5.05358 -12.35319,-7.42439 -5.73986,-5.33434 -3.58742,-4.95999 -2.21484,-4.61685 -0.93585,-5.92703 -0.15597,-4.96 -0.74868,-4.36728 -0.21836,-3.86817 -2.24604,-3.58742 -2.40201,-1.68453 -2.93232,-0.99823 -4.24251,-1.06063 -3.83698,-1.49736 -2.58917,-1.90289 -3.02461,-5.19184 -1.65463,-3.38676 -1.8405,-5.49031 0.15597,-3.99295 -0.31195,-2.68276 -0.43673,-3.24427 -0.98263,-2.40201 -1.13862,1.31019 -0.93585,2.30843 -1.37258,1.12301 -3.43144,-0.43672 -1.55974,-0.81107 -0.18717,-1.55975 1.37257,-2.4332 1.80931,-4.05534 0.49912,-2.99472 -0.84001,-0.57964 h -2.64697 l -3.08814,0.0882 -1.98524,1.14702 -3.2646,1.36761 -2.55874,1.27937 -1.54407,1.01467 -4.19105,0.44117 -2.1617,-2.11758 -1.897,-1.80877 -2.24993,0.13235 -1.98523,0.92644 -1.49996,2.47051 -1.1029,2.20582 -0.70586,2.07346 -0.61763,2.20581 -0.61763,1.41173 -2.64698,0.39704 -1.76465,1.72054 -1.45584,2.64697 -0.97055,2.82345 -1.27938,2.73521 -0.61762,7.588 3.2646,3.30872 2.91168,2.11758 0.48527,2.20581 -2.82344,0.83821 -5.691,-0.17646 -4.19105,-0.70586 -4.05869,-0.39705 -4.94103,0.88233 -2.33816,1.41172 -0.39705,2.69109 -0.0882,3.74989 -0.48528,1.32348 -2.33816,0.39705 -5.38219,-0.0441 -5.07337,-0.61762 -3.70577,0.44116 -1.10291,2.73521 0.57352,3.04402 1.1029,3.26461 1.19114,2.9999 0.5294,4.27928 0.74998,4.36752 1.54407,2.77932 2.38227,0.74998 3.48519,-0.74998 2.4264,-1.58818 2.82344,-0.30882 1.94112,1.98523 2.69109,2.64698 3.74988,2.11758 5.77924,-1.67642 5.38218,-0.70586 2.07347,1.05879 3.39695,4.54398 1.98523,4.45575 -0.0441,4.45574 -1.41172,3.35284 -3.97047,3.44107 -0.52939,2.11758 2.64697,1.85288 6.79391,0.74998 3.97047,1.76465 1.14702,1.27937 -0.0441,3.52931 -2.47051,2.64697 -2.29405,4.72045 -0.0882,3.57342 0.88233,3.61753 -0.22058,4.98514 -2.86756,3.92635 -4.10282,3.39695 -3.97046,3.61754 0.30881,2.1617 1.14703,2.07346 1.80876,0.35293 2.73521,-0.39704 1.05879,-2.51463 2.51463,-3.44107 1.41172,-0.5294 1.05879,1.19114 v 2.77933 c 0,0 0.5294,3.39695 0.5294,3.61753 0,0.22058 0.35293,2.91168 0.35293,2.91168 l 1.01467,0.39704 2.38228,-1.58818 0.57351,-2.77933 1.85289,-1.58818 1.72053,-0.0882 1.63231,2.29405 1.98523,2.11758 2.07346,3.30872 2.60286,2.60286 c 0,0 2.77933,0.57352 2.9558,0.57352 0.17646,0 3.92634,-0.22059 3.92634,-0.22059 0,0 2.29405,-1.45583 2.55875,-1.45583 0.2647,0 4.63221,-0.17647 4.63221,-0.17647 l 4.27928,1.19114 c 0,0 1.01467,3.17637 1.27937,3.48519 0.2647,0.30881 2.1617,5.47042 2.1617,5.47042 l 1.01467,2.69109 1.72054,1.98523 2.55874,1.05879 2.47051,-0.97055 1.76466,-1.23526 2.16169,1.01467 0.2647,2.95579 0.13235,3.97047 1.76465,1.897 2.99991,2.29405 4.89691,1.32349 2.9999,2.11758 2.51463,2.11758 0.48528,1.58819 -0.13235,1.76465 -0.92644,1.80876 0.88233,1.45584 1.49995,1.41172 1.10291,2.11758 1.54407,2.1617 2.38228,5.86747 1.76465,2.51463 2.02935,3.44107 2.95579,1.76465 2.60286,1.27937 2.02935,-0.88233 c 0,0 3.22049,-4.32339 3.5293,-4.45574 0.30881,-0.13235 3.88223,-4.36751 4.41163,-4.58809 0.52939,-0.22059 3.30872,-2.1617 3.30872,-2.1617 h 2.02935 l 1.3676,1.6323 z"
       id="path55045"
       inkscape:export-filename=".\andreapolskiy.svg"
       inkscape:export-xdpi="96"
       inkscape:export-ydpi="96" />
  </g>
</svg>
