<?xml version="1.0" encoding="UTF-8" standalone="no"?>
<!-- Created with Inkscape (http://www.inkscape.org/) -->

<svg
   version="1.1"
   id="svg2"
   width="135.43164"
   height="212.70868"
   viewBox="0 0 135.43164 212.70868"
   sodipodi:docname="map.svg"
   inkscape:version="1.2.2 (732a01da63, 2022-12-09)"
   xmlns:inkscape="http://www.inkscape.org/namespaces/inkscape"
   xmlns:sodipodi="http://sodipodi.sourceforge.net/DTD/sodipodi-0.dtd"
   xmlns="http://www.w3.org/2000/svg"
   xmlns:svg="http://www.w3.org/2000/svg">
  <defs
     id="defs6">
    <linearGradient
       id="linearGradient67598"
       inkscape:swatch="solid">
      <stop
         style="stop-color:#777777;stop-opacity:1;"
         offset="0"
         id="stop67596" />
    </linearGradient>
  </defs>
  <sodipodi:namedview
     id="namedview4"
     pagecolor="#ffffff"
     bordercolor="#111111"
     borderopacity="1"
     inkscape:showpageshadow="0"
     inkscape:pageopacity="0"
     inkscape:pagecheckerboard="1"
     inkscape:deskcolor="#d1d1d1"
     showgrid="false"
     showguides="false"
     inkscape:lockguides="false"
     inkscape:zoom="0.70835525"
     inkscape:cx="1043.2618"
     inkscape:cy="502.57268"
     inkscape:window-width="1920"
     inkscape:window-height="1009"
     inkscape:window-x="-8"
     inkscape:window-y="-8"
     inkscape:window-maximized="1"
     inkscape:current-layer="g8" />
  <g
     inkscape:groupmode="layer"
     inkscape:label="Image"
     id="g8"
     transform="translate(-1601.2621,-772.86957)">
    <path
       style="opacity:1;mix-blend-mode:normal;fill:#fafafa;fill-opacity:1;stroke:#000000;stroke-opacity:0.434483"
       d="m 1619.4349,778.68555 c 0,0 -21.5869,8.73458 0.3744,25.2055 l 0.062,3.30666 -5.927,5.86464 -1.6221,1.18541 -0.3744,1.49736 0.7487,1.06062 2.1213,1.8717 2.4956,1.8717 1.7469,0.93584 3.3066,1.06063 2.558,2.86993 -0.062,2.68277 -1.5597,1.43496 -6.8005,-0.37434 -0.9359,1.55975 0.4992,1.93409 1.123,2.55798 1.2478,2.4332 0.9358,2.80755 0.1248,1.99648 -0.1248,1.8717 -1.4349,1.99647 -1.0607,2.12126 -1.4973,3.55622 -0.7487,17.84349 -1.3726,6.48855 -1.3726,2.37081 -1.6221,2.80755 -0.811,2.12125 -0.4367,2.4332 0.5615,2.30843 1.123,3.49383 1.8717,2.74515 3.8058,5.05358 1.9341,2.05887 c 0,0 1.0606,1.62213 1.0606,2.05886 0,0.43673 -0.2495,1.99648 -0.4367,2.55798 -0.1872,0.56151 -1.4974,3.80579 -1.4974,3.80579 l -1.3101,1.12301 -1.8094,2.68277 -2.0588,2.68276 -0.8111,1.37258 c 0,0 -0.5615,2.24603 -0.5615,2.62037 0,0.37434 -0.1248,9.8576 -0.1248,9.8576 l -3.4938,4.55445 -1.2478,0.37434 -3.9306,6.36377 -0.3119,5.05357 2.4956,1.68453 4.9912,3.86817 3.681,3.681 3.9929,2.68277 3.1195,1.93408 3.5562,0.0624 4.8664,0.99824 3.1819,1.8093 3.1819,2.43321 4.3673,6.1142 3.1195,3.99295 2.9323,3.74339 4.5545,3.61861 2.9323,1.62214 3.4314,-0.18717 c 0,0 1.2478,-1.18541 1.8716,-1.37258 0.624,-0.18717 4.8042,-2.55798 4.8042,-2.55798 0,0 2.9947,-1.2478 4.1801,-1.55975 1.1854,-0.31194 4.6168,-0.74867 4.8664,-0.87345 0.2495,-0.12478 5.6151,-0.37434 5.6151,-0.37434 0,0 6.1766,0.37434 6.4885,0.37434 0.312,0 4.7416,0.56151 5.116,0.74867 0.3743,0.18717 4.9912,1.62214 4.9912,1.62214 l 5.3031,0.68629 c 0,0 1.6221,1.12302 2.1836,1.31019 0.5616,0.18717 2.4956,0.37434 2.4956,0.37434 l 2.3709,-3.55624 c 0,0 2.1836,-1.18539 2.6827,-1.43496 0.4991,-0.24956 4.8664,-5.11597 4.8664,-5.11597 0,0 16.7838,-20.78116 10.0781,-38.5159 0,0 21.5287,-11.38202 7.1468,-25.14629 l -3.4411,-4.14693 c 0,0 -26.5738,-37.50495 -2.8657,-71.07069 l -0.1247,-3.49383 -11.979,-15.22312 -6.4884,-11.47973 -8.8595,7.61157 -12.9771,4.11773 -15.2231,4.49207 -7.2372,-0.99824 -2.8076,-3.61861 -2.8075,-7.67395 -2.4331,-4.05534 -2.0589,-6.05182 -2.3084,-4.67924 c 0,0 -3.8682,-0.24956 -4.3049,-0.24956 -0.4367,0 -5.927,-0.62389 -5.927,-0.62389 l -3.2443,-0.49912 -3.1195,-2.93233 -0.9358,-2.18364 2.1836,-4.80402 0.1248,-6.55093 -1.7469,-1.8717 -6.9253,4.18012 z"
       id="path7501"
       inkscape:export-filename="bejeck.svg"
       inkscape:export-xdpi="96"
       inkscape:export-ydpi="96" />
  </g>
</svg>
