<?xml version="1.0" encoding="UTF-8" standalone="no"?>
<!-- Created with Inkscape (http://www.inkscape.org/) -->

<svg
   version="1.1"
   id="svg2"
   width="141.61664"
   height="162.8443"
   viewBox="0 0 141.61664 162.8443"
   sodipodi:docname="map.svg"
   inkscape:version="1.2.2 (732a01da63, 2022-12-09)"
   xmlns:inkscape="http://www.inkscape.org/namespaces/inkscape"
   xmlns:sodipodi="http://sodipodi.sourceforge.net/DTD/sodipodi-0.dtd"
   xmlns="http://www.w3.org/2000/svg"
   xmlns:svg="http://www.w3.org/2000/svg">
  <defs
     id="defs6">
    <linearGradient
       id="linearGradient67598"
       inkscape:swatch="solid">
      <stop
         style="stop-color:#777777;stop-opacity:1;"
         offset="0"
         id="stop67596" />
    </linearGradient>
  </defs>
  <sodipodi:namedview
     id="namedview4"
     pagecolor="#ffffff"
     bordercolor="#111111"
     borderopacity="1"
     inkscape:showpageshadow="0"
     inkscape:pageopacity="0"
     inkscape:pagecheckerboard="1"
     inkscape:deskcolor="#d1d1d1"
     showgrid="false"
     showguides="false"
     inkscape:lockguides="false"
     inkscape:zoom="0.70835525"
     inkscape:cx="1043.2618"
     inkscape:cy="502.57268"
     inkscape:window-width="1920"
     inkscape:window-height="1009"
     inkscape:window-x="-8"
     inkscape:window-y="-8"
     inkscape:window-maximized="1"
     inkscape:current-layer="g8" />
  <g
     inkscape:groupmode="layer"
     inkscape:label="Image"
     id="g8"
     transform="translate(-614.83868,-170.56937)">
    <path
       style="opacity:1;mix-blend-mode:normal;fill:#fafafa;fill-opacity:1;stroke:#000000;stroke-opacity:0.434483"
       d="m 685.22453,328.43173 0.37434,-1.06063 2.30842,-3.93056 3.36905,-4.49207 5.67748,-5.61508 3.57103,-1.3404 3.6038,0.15499 5.24075,1.8093 2.30842,1.31019 6.8005,-0.43673 9.10891,-3.74339 2.73605,-0.31195 2.44231,1.43497 2.80754,1.93408 1.31019,1.18541 1.06063,1.68453 -0.0624,1.55974 -0.87346,0.99824 -3.49383,0.12478 -2.05887,-0.6239 -3.11949,-0.18717 -1.68452,0.74868 -1.68453,1.37258 -0.68629,1.55974 0.6239,2.24604 1.55975,1.99647 6.4894,5.50805 2.09552,0.57351 4.91897,0.0221 3.66165,-1.38966 6.74979,-4.76456 1.45583,-2.51463 -0.22805,-5.9198 -1.37258,-2.12125 -0.87346,-2.4956 -2.18364,-2.62037 -2.12126,-1.68452 -2.18364,-0.74868 -4.24251,-0.6239 -2.43321,-1.37258 -0.74867,-2.99471 0.0624,-3.49383 -0.49911,-3.86817 0.31195,-3.74339 -0.99824,-3.30667 -1.43497,-3.55622 -1.18541,-2.37081 -0.87345,-6.7381 0.56151,-2.18365 1.55974,-1.55974 4.43876,-0.33795 2.86085,-0.16117 3.80578,-0.6239 2.12126,-1.2478 0.12478,-1.68452 -0.93585,-1.93409 0.24956,-2.49559 -0.43673,-3.18189 -0.18717,-11.54212 -1.2478,-1.93408 -5.42791,-4.11773 -2.12126,-1.37258 -1.87169,-1.62214 -1.8717,-5.92703 0.68629,-3.86817 0.68629,-9.73282 2.18364,-1.8093 1.93409,-2.37082 1.87169,-1.87169 2.12126,-2.74516 2.68276,-6.05181 2.05887,-1.62214 1.99647,-0.87345 3.43144,-0.87346 2.4956,-1.18541 1.12302,-1.31019 -1.77205,-1.30289 -3.66166,-0.70586 -3.88223,-1.14703 -3.794,-0.39704 -2.99991,1.32348 -2.95579,0.61763 -1.80876,-1.3676 -2.33817,-2.47051 -4.45574,-16.49949 -1.67642,-2.91168 -2.95579,-1.19114 -3.44107,0.5294 -8.1174,4.23516 -4.19104,1.94112 -3.39696,1.85288 -2.1617,-0.13235 -2.69109,-0.97056 -2.29405,-2.20581 -2.91167,-0.92644 -1.27937,0.0882 -3.04403,0.92644 -2.02935,1.19114 -3.66165,0.2647 -3.57342,-1.67642 -8.33797,-8.07328 -1.38771,1.99316 -0.5927,1.62214 -2.15245,1.62213 -1.59095,0.21837 -1.77811,-1.15422 -1.59094,-1.1854 h -1.96528 c 0,0 -2.58918,0.0624 -2.71396,0.15597 -0.12477,0.0936 -1.52855,1.12302 -1.52855,1.12302 l -1.68452,2.49559 -0.31195,2.62038 -0.15598,2.71396 0.0312,1.93408 -0.40554,1.02943 -0.71748,0.12478 -1.34138,-1.24779 -1.27899,-1.80931 c 0,0 -1.49736,-0.99824 -1.62214,-0.99824 -0.12478,0 -2.52679,0 -2.52679,0 l -3.15068,0.0624 -1.18541,0.96705 -1.74692,1.49735 -2.05886,1.74692 -0.81107,0.65509 h -2.55798 l -3.43145,0.24956 -0.62389,1.2478 -0.59271,2.74515 -0.68629,2.86993 -1.2951,4.2733 0.0882,3.2646 0.2647,2.29405 0.97055,1.76465 0.0882,2.73521 0.0882,2.82344 -1.76465,1.85289 -2.55875,1.49995 -0.70586,1.94112 v 2.64697 l 0.35293,0.70586 0.17647,1.14703 -1.05879,2.11758 -2.55875,1.85288 -4.76456,3.08814 -2.02934,1.23526 -0.0882,4.14693 0.44117,2.77932 0.88232,4.89691 1.19114,3.48519 2.20582,5.77923 0.92644,2.51463 -0.0441,3.794 1.01468,2.33816 1.32348,0.83821 2.55875,1.85289 3.2646,1.72053 4.01459,0.74998 6.30862,-0.2647 5.20573,-0.88232 4.23516,-0.92645 3.39695,-0.17646 6.30863,0.92644 5.38219,2.38228 4.23516,3.08814 3.97047,4.0587 1.72053,2.02935 1.72054,-0.5294 c 0,0 1.45583,-1.72053 1.72053,-1.76465 0.2647,-0.0441 1.76465,-0.61763 1.76465,-0.61763 l 2.51463,0.97056 0.30882,3.44107 -0.70586,3.66165 -0.17647,2.51463 0.48528,9.57323 1.6323,5.29396 0.92644,5.33807 -1.05879,3.794 -1.85288,4.32339 -6.97037,10.67614 -0.30882,2.86756 1.01468,2.77933 1.897,2.24993 1.72053,1.27937 1.98523,-0.13235 1.72054,-0.48528 1.94112,-0.97056 z"
       id="path47047"
       inkscape:export-filename=".\firovskiy.svg"
       inkscape:export-xdpi="96"
       inkscape:export-ydpi="96" />
  </g>
</svg>
