<?xml version="1.0" encoding="UTF-8" standalone="no"?>
<!-- Created with Inkscape (http://www.inkscape.org/) -->

<svg
   version="1.1"
   id="svg2"
   width="189.44452"
   height="157.33398"
   viewBox="0 0 189.44452 157.33398"
   sodipodi:docname="map.svg"
   inkscape:version="1.2.2 (732a01da63, 2022-12-09)"
   xmlns:inkscape="http://www.inkscape.org/namespaces/inkscape"
   xmlns:sodipodi="http://sodipodi.sourceforge.net/DTD/sodipodi-0.dtd"
   xmlns="http://www.w3.org/2000/svg"
   xmlns:svg="http://www.w3.org/2000/svg">
  <defs
     id="defs6">
    <linearGradient
       id="linearGradient67598"
       inkscape:swatch="solid">
      <stop
         style="stop-color:#777777;stop-opacity:1;"
         offset="0"
         id="stop67596" />
    </linearGradient>
  </defs>
  <sodipodi:namedview
     id="namedview4"
     pagecolor="#ffffff"
     bordercolor="#111111"
     borderopacity="1"
     inkscape:showpageshadow="0"
     inkscape:pageopacity="0"
     inkscape:pagecheckerboard="1"
     inkscape:deskcolor="#d1d1d1"
     showgrid="false"
     showguides="false"
     inkscape:lockguides="false"
     inkscape:zoom="0.70835525"
     inkscape:cx="1043.2618"
     inkscape:cy="502.57268"
     inkscape:window-width="1920"
     inkscape:window-height="1009"
     inkscape:window-x="-8"
     inkscape:window-y="-8"
     inkscape:window-maximized="1"
     inkscape:current-layer="g8" />
  <g
     inkscape:groupmode="layer"
     inkscape:label="Image"
     id="g8"
     transform="translate(-791.23901,-762.7204)">
    <path
       style="opacity:1;mix-blend-mode:normal;fill:#fafafa;fill-opacity:1;stroke:#000000;stroke-opacity:0.434483"
       d="m 962.48504,905.73006 0.0441,-1.05879 -1.32349,-6.88214 0.2647,-3.39695 0.66174,-3.30872 1.10291,-3.57342 1.27937,-4.58809 0.44117,-4.01459 -0.22059,-3.13225 -1.76465,-3.5293 -2.95579,-4.49987 -2.11758,-2.60286 -3.70577,-7.23507 -1.01467,-2.64697 0.0882,-2.73521 2.1617,-1.76465 4.61015,-0.0662 2.25515,0.85655 3.28144,2.03307 2.91168,2.33816 3.83812,2.24993 2.95579,1.05879 2.86755,-0.39705 1.19114,-1.01467 0.57352,-1.80877 0.26469,-2.55874 -0.83821,-2.69109 -1.49995,-1.63231 -1.80877,-1.23525 -1.43378,-0.5294 -2.9999,-0.63969 -1.56613,-0.11029 -2.82344,-1.76465 -0.74998,-1.49995 -0.74998,-1.49995 0.30882,-5.29396 -1.10291,-2.42639 -1.72054,-1.49996 -2.33816,-0.52939 -1.87494,0.77203 -1.87494,0.77204 -2.99991,0.5294 -2.99991,0.52939 -3.2646,-0.70586 -1.85289,-2.60286 -0.79409,-3.39696 1.41172,-6.39686 0.31046,-4.90169 -0.43673,-3.74339 -2.12126,-3.99295 -1.90295,-3.05357 -0.77981,-1.25133 -2.55798,-2.86993 -2.12126,-3.0571 -1.18541,-4.77283 -0.31194,-1.90289 -0.12478,-5.4903 -0.24956,-3.43145 -1.80931,-1.06062 -2.21484,1.46616 -4.36729,2.86993 -2.15245,1.40377 -3.30666,-1.43496 -2.80754,-4.36729 -1.37258,-1.62214 -3.18188,0.49912 -2.99471,2.05886 -3.93056,-0.12478 -2.30843,-2.12125 -0.49912,-3.36905 -0.43673,-8.42263 -1.43496,-1.31019 -0.15597,-0.68629 -2.17666,1.74932 -1.05879,1.01468 -2.20581,-0.0882 -2.29405,-1.45583 -3.794,-3.26461 -2.60286,-1.54407 -1.49996,1.14702 -1.01467,3.30873 -0.5294,4.32339 0.48528,3.74989 0.83821,3.08814 0.30882,2.11758 -0.0441,2.38228 -0.88233,2.55874 -0.83821,2.51463 c 0,0 -1.897,2.42639 -2.11758,2.60286 -0.22058,0.17646 -3.74988,2.38228 -3.74988,2.38228 l -6.08805,2.42639 -5.64688,2.51463 -4.01458,2.20582 -2.24993,3.44107 c 0,0 -0.97056,3.57342 -1.14703,3.83811 -0.17646,0.2647 -1.23525,4.14693 -1.23525,4.14693 l -0.57352,4.27928 -0.48527,2.91168 -0.83821,1.58818 -2.20582,1.80877 -5.07337,1.10291 -4.89691,2.20581 -3.35284,2.33817 -2.20581,2.86756 c 0,0 0.13235,1.3676 0.13235,1.54407 0,0.17646 -1.01468,2.07346 -1.01468,2.07346 l -4.72044,1.897 c 0,0 -5.86746,2.07347 -6.04393,2.20581 -0.17646,0.13235 -3.74988,2.02935 -3.74988,2.02935 l -2.82344,6.52921 -1.41173,6.2204 -1.23525,6.97037 -0.7941,3.794 -0.97055,3.57342 -0.7941,1.98523 -3.39695,1.41173 -5.11749,1.01467 -4.89691,0.70586 -3.83811,2.38228 -2.99991,2.99991 -2.02935,4.23516 -1.41172,4.23516 -0.0882,2.47052 4.58809,0.57351 h 4.3234 l 4.05869,1.23525 2.38228,1.76465 0.13235,2.91168 1.85289,2.69109 7.41153,0.7941 1.23526,-2.11759 0.52939,-8.51444 0.61763,-3.22049 3.35284,-2.82344 4.01458,-3.08814 3.22049,-1.14702 6.04393,0.17646 c 0,0 7.8527,0.61763 8.02916,0.61763 0.17647,0 5.51454,1.72054 5.51454,1.72054 l 7.45565,2.9999 4.49986,2.73521 1.54407,2.51463 -0.17646,5.33807 0.52939,1.23526 3.22049,1.14702 1.05879,1.49995 0.2647,1.85289 c 0,0 -1.76465,1.32349 -1.98523,1.41172 -0.22058,0.0882 -3.30872,0.39705 -3.30872,0.39705 l -3.79401,0.13234 -1.76465,1.98524 -0.35293,3.88223 -0.13235,4.58809 v 2.64698 l 1.19114,1.05879 3.44107,-1.45584 3.92635,-3.5293 4.23517,-3.30872 3.74988,-0.44116 2.07347,0.52939 3.83811,-2.86756 2.24993,0.22059 3.57342,2.73521 3.97047,2.02934 3.61753,0.39705 3.48519,-1.14702 c 0,0 2.60286,-3.44107 2.77933,-3.48519 0.17646,-0.0441 2.02934,-1.45584 2.02934,-1.45584 l 3.13226,0.2647 2.02935,0.13235 1.05879,-3.35284 c 0,0 3.13226,-2.82344 3.30872,-2.82344 0.17647,0 3.39696,0.48528 3.39696,0.48528 l 0.52939,4.23516 2.11758,1.94112 c 0,0 3.57342,0.22058 3.83812,0.13235 0.2647,-0.0882 2.47051,1.41172 2.47051,1.41172 l 2.51463,0.0882 c 0,0 2.42639,-2.38228 2.60286,-2.47051 0.17646,-0.0882 1.94112,-2.91167 1.94112,-2.91167 l 1.14702,-3.26461 1.76465,-2.86756 2.69109,-1.19114 1.72054,0.2647 1.23526,2.91167 -0.2647,2.6911 -0.44117,4.80867 c 0,0 -1.41172,3.83812 -1.41172,4.01458 0,0.17647 -0.39704,3.83812 -0.39704,3.83812 l 0.35293,4.01458 1.76465,2.4264 1.67642,0.0882 1.41172,-2.60286 2.07346,-4.0587 1.54407,-3.17637 c 0,0 2.47052,-2.38228 2.82345,-2.4264 0.35293,-0.0441 2.24993,-1.27937 2.24993,-1.27937 l 2.95579,0.13235 5.33807,-0.2647 2.9999,-0.44116 z"
       id="path55773"
       inkscape:export-filename=".\jarovskiy.svg"
       inkscape:export-xdpi="96"
       inkscape:export-ydpi="96" />
  </g>
</svg>
