<?xml version="1.0" encoding="UTF-8" standalone="no"?>
<!-- Created with Inkscape (http://www.inkscape.org/) -->

<svg
   version="1.1"
   id="svg2"
   width="113.95288"
   height="181.26114"
   viewBox="0 0 113.95288 181.26114"
   sodipodi:docname="map.svg"
   inkscape:version="1.2.2 (732a01da63, 2022-12-09)"
   xmlns:inkscape="http://www.inkscape.org/namespaces/inkscape"
   xmlns:sodipodi="http://sodipodi.sourceforge.net/DTD/sodipodi-0.dtd"
   xmlns="http://www.w3.org/2000/svg"
   xmlns:svg="http://www.w3.org/2000/svg">
  <defs
     id="defs6">
    <linearGradient
       id="linearGradient67598"
       inkscape:swatch="solid">
      <stop
         style="stop-color:#777777;stop-opacity:1;"
         offset="0"
         id="stop67596" />
    </linearGradient>
  </defs>
  <sodipodi:namedview
     id="namedview4"
     pagecolor="#ffffff"
     bordercolor="#111111"
     borderopacity="1"
     inkscape:showpageshadow="0"
     inkscape:pageopacity="0"
     inkscape:pagecheckerboard="1"
     inkscape:deskcolor="#d1d1d1"
     showgrid="false"
     showguides="false"
     inkscape:lockguides="false"
     inkscape:zoom="0.70835525"
     inkscape:cx="1043.2618"
     inkscape:cy="502.57268"
     inkscape:window-width="1920"
     inkscape:window-height="1009"
     inkscape:window-x="-8"
     inkscape:window-y="-8"
     inkscape:window-maximized="1"
     inkscape:current-layer="g8" />
  <g
     inkscape:groupmode="layer"
     inkscape:label="Image"
     id="g8"
     transform="translate(-1857.0685,-451.5546)">
    <path
       style="opacity:1;mix-blend-mode:normal;fill:#fafafa;fill-opacity:1;stroke:#000000;stroke-opacity:0.434483"
       d="m 1857.6541,522.55914 3.1195,-1.49736 3.681,-4.11773 7.7363,-14.78639 1.4974,-7.11245 2.6203,-15.03595 1.2478,-2.68276 2.6828,-1.74692 3.3067,1.2478 3.1194,2.86993 3.0571,0.93585 3.4939,-0.49912 4.1801,-2.4332 6.3638,-5.80226 7.6115,-4.99119 9.1089,-7.73634 5.0536,0.0624 5.3655,3.74339 2.1213,0.37434 2.1213,-0.31195 2.8699,-4.49207 3.7434,-3.86817 3.9305,-0.62389 3.7434,-0.68629 2.2461,-0.68629 2.1212,-0.37434 4.804,-0.24956 2.558,0.81107 1.5598,2.80754 1.9341,3.11949 1.4973,2.86994 0.8735,2.62037 1.4973,4.99119 0.9359,2.55798 1.0606,3.80578 c 0,0 -0.062,1.06063 -0.3743,1.8717 -0.312,0.81107 -1.5598,3.86817 -1.5598,3.86817 l -2.558,1.49735 -2.6827,0.49912 -2.9324,2.62038 -1.2478,2.05886 -4.2425,4.61685 -2.8699,0.68629 -3.1195,0.56151 -3.369,0.18717 -2.8076,0.18717 -0.4991,2.30842 0.4991,4.67924 0.6863,3.74339 0.9982,1.31019 2.3709,1.55974 1.934,1.55975 2.9324,1.99647 -0.1872,7.11245 0.9358,2.62037 1.1854,1.49736 2.1837,0.81106 3.0571,0.56151 1.0606,0.18717 0.8111,0.74868 0.1248,1.8717 0.1871,6.1142 v 5.73987 l 1.5598,2.74515 0.4367,3.61861 -2.9323,6.61333 -1.5598,3.681 -1.6845,3.80578 -1.9965,1.87169 -2.9323,2.12126 -2.1212,0.12478 -3.5563,0.56151 v 1.37257 l 0.7487,3.24427 2.4332,2.05887 3.2443,2.74515 0.4991,1.74692 -1.1854,1.8093 -0.4991,2.05887 -0.312,1.31018 0.3744,1.80931 0.3119,3.0571 0.5615,1.68453 v 1.93408 l -1.2478,1.68453 -1.8717,1.62214 -3.0571,0.74867 -4.4296,0.31195 -0.8735,1.55975 -0.1872,1.99647 0.6239,1.80931 2.6204,0.93585 1.123,1.12302 1.2478,2.55798 -0.1871,2.12125 v 1.99648 c 0,0 0.4991,0.43673 0.9358,0.43673 0.4367,0 8.6722,0.37434 8.6722,0.37434 l 2.558,0.99823 1.3726,1.12302 1.123,0.81107 0.3743,2.05886 1.6845,2.37082 1.2478,1.93408 1.2478,1.62214 1.4974,1.37258 1.2478,0.99823 0.5615,0.99824 -1.6221,1.2478 -3.3691,2.37081 -4.6792,0.56151 -1.5598,1.55975 -4.5544,0.37434 -2.3085,-1.2478 c 0,0 -1.3102,-0.0624 -1.9964,-0.0624 -0.6863,0 -2.2461,-0.0624 -2.4956,0.0624 -0.2496,0.12478 -1.9341,0.68629 -1.9341,0.68629 l -5.7399,4.24251 -4.4921,0.24956 c 0,0 -3.2442,-3.74339 -3.681,-3.74339 -0.4367,0 -5.9894,-0.43673 -5.9894,-0.43673 l -2.4956,-3.74339 -0.8734,-3.24428 0.4367,-5.05357 0.8111,-1.74692 c 0,0 -0.062,-1.8093 -0.312,-1.93408 -0.2495,-0.12478 -3.4314,-2.43321 -3.4314,-2.43321 l -0.3744,-6.23898 0.8735,-2.4956 0.1248,-1.99647 -1.9965,-2.05887 -2.8075,-2.68276 -3.7434,-0.31195 -5.7399,0.24956 -3.1819,-0.87346 -1.3102,-4.42968 -2.3084,-0.99823 -4.4921,-0.56151 -3.1195,-0.93585 -2.246,-1.93409 -4.5544,-0.49911 -2.1837,-1.43497 -1.123,-2.24604 -1.1854,-3.18188 -2.3708,-2.37081 1.9341,-3.80578 0.9982,-3.93056 -0.312,-4.42968 -0.9982,-3.99295 -1.4974,-4.74163 -2.7451,-5.49031 -3.7434,-5.30313 -3.3067,-3.49384 -2.4956,-2.86993 -2.6203,-3.30666 -1.6222,-3.55622 -1.7469,-4.05534 z"
       id="path15493"
       inkscape:export-filename=".\kalyazin.svg"
       inkscape:export-xdpi="96"
       inkscape:export-ydpi="96" />
  </g>
</svg>
