<?xml version="1.0" encoding="UTF-8" standalone="no"?>
<!-- Created with Inkscape (http://www.inkscape.org/) -->

<svg
   version="1.1"
   id="svg2"
   width="201.52954"
   height="139.32083"
   viewBox="0 0 201.52954 139.32083"
   sodipodi:docname="map.svg"
   inkscape:version="1.2.2 (732a01da63, 2022-12-09)"
   xmlns:inkscape="http://www.inkscape.org/namespaces/inkscape"
   xmlns:sodipodi="http://sodipodi.sourceforge.net/DTD/sodipodi-0.dtd"
   xmlns="http://www.w3.org/2000/svg"
   xmlns:svg="http://www.w3.org/2000/svg">
  <defs
     id="defs6">
    <linearGradient
       id="linearGradient67598"
       inkscape:swatch="solid">
      <stop
         style="stop-color:#777777;stop-opacity:1;"
         offset="0"
         id="stop67596" />
    </linearGradient>
  </defs>
  <sodipodi:namedview
     id="namedview4"
     pagecolor="#ffffff"
     bordercolor="#111111"
     borderopacity="1"
     inkscape:showpageshadow="0"
     inkscape:pageopacity="0"
     inkscape:pagecheckerboard="1"
     inkscape:deskcolor="#d1d1d1"
     showgrid="false"
     showguides="false"
     inkscape:lockguides="false"
     inkscape:zoom="0.70835525"
     inkscape:cx="1043.2618"
     inkscape:cy="502.57268"
     inkscape:window-width="1920"
     inkscape:window-height="1009"
     inkscape:window-x="-8"
     inkscape:window-y="-8"
     inkscape:window-maximized="1"
     inkscape:current-layer="g8" />
  <g
     inkscape:groupmode="layer"
     inkscape:label="Image"
     id="g8"
     transform="translate(-1628.6361,-428.04837)">
    <path
       style="opacity:1;mix-blend-mode:normal;fill:#fafafa;fill-opacity:1;stroke:#000000;stroke-opacity:0.434483"
       d="m 1641.7453,485.00112 -4.7416,4.9288 -2.9947,1.49735 -2.4956,4.11773 -0.3744,5.67748 -1.0606,2.80754 -0.9358,2.68277 0.2495,3.24427 1.4974,2.68276 3.3067,1.43497 1.8716,-1.55975 h 13.4139 l 7.7987,0.43673 7.2372,0.81107 2.558,1.68452 2.246,2.18365 1.5598,2.4332 0.4991,6.1766 0.6239,8.04829 0.4991,5.36552 0.6239,3.49384 1.7469,2.24603 1.9341,0.87346 3.3067,0.56151 1.4349,0.18717 1.6222,1.68452 0.5615,1.8717 0.1872,3.11949 0.9358,4.80402 0.8111,3.93056 1.4349,2.99471 1.8093,1.43497 3.4939,-0.24956 7.05,-5.98943 5.2408,-5.4903 3.1195,-0.49912 5.3655,0.24956 5.4279,-3.36905 4.0554,-2.62038 2.9323,-0.31195 2.0588,0.68629 2.9948,2.86993 3.0571,3.05711 3.3066,2.37081 3.681,1.80931 22.3356,0.43673 2.0588,1.06062 1.435,1.74692 0.312,2.74515 0.1871,1.06063 2.6204,-1.2478 c 0,0 3.1819,-3.74339 3.5562,-3.99295 0.3744,-0.24956 5.7399,-10.23193 5.7399,-10.23193 l 1.9341,-4.24251 1.8093,-7.67395 1.6221,-9.8576 0.5615,-4.49207 c 0,0 1.4974,-3.0571 1.7469,-3.24427 0.2496,-0.18717 2.87,-1.80931 2.87,-1.80931 l 3.369,1.43497 3.3691,2.80754 2.9947,0.93585 2.9323,-0.43673 3.993,-2.30842 3.4314,-2.99471 3.3067,-3.05711 7.6115,-5.11596 8.3603,-6.92528 -7.9235,-0.37434 -1.747,-1.24779 -1.4973,-2.24604 -0.1872,-1.62213 -1.0606,-1.80931 -1.8093,-0.56151 -1.5598,-0.12478 -4.5544,-0.56151 -1.8717,-0.99823 -1.2478,-1.80931 -2.246,-2.24603 -0.6863,-5.17836 -0.312,-3.99295 -3.369,-0.81107 -3.5563,-0.68629 -1.8093,-1.1854 -0.5615,-1.18541 0.5615,-1.18541 1.6846,-1.62213 1.5597,-1.80931 -0.3119,-5.11597 -1.8717,-2.4332 -1.9341,-1.80931 -1.8717,-2.55798 -0.4991,-2.80754 0.9982,-2.80755 2.1836,-2.18364 0.062,-2.18365 -0.1871,-3.93056 2.4956,-3.49383 0.9982,-5.11597 -0.6239,-2.24603 -2.3708,-1.74692 -3.3067,-3.0571 -2.4332,-2.12125 -0.3119,-0.31195 -1.6222,1.93408 -6.2389,-0.37434 -7.0501,-1.74691 -1.7469,1.06063 -1.2478,4.74162 -3.9306,2.37082 -7.6739,-2.93232 c 0,0 -2.1213,0.0624 -2.3708,0.12477 -0.2496,0.0624 -1.1854,0.6239 -1.1854,0.6239 l 0.1247,0.68629 0.7487,1.18541 7.5492,6.36376 -0.1248,4.05534 -1.1854,2.80755 -2.9947,1.31018 -5.9271,-0.12478 -2.3084,1.31019 -4.492,1.62214 -10.4815,8.67218 h -4.5545 l -2.558,2.12126 -5.1159,0.49912 -6.0519,3.86817 -6.4885,0.93585 -13.6634,-1.99648 -11.9788,14.78639 -5.4903,2.18365 -1.9341,-0.87346 -19.2785,3.681 -11.9788,-0.49912 z"
       id="path12587"
       inkscape:export-filename=".\kashin.svg"
       inkscape:export-xdpi="96"
       inkscape:export-ydpi="96" />
  </g>
</svg>
