<?xml version="1.0" encoding="UTF-8" standalone="no"?>
<!-- Created with Inkscape (http://www.inkscape.org/) -->

<svg
   version="1.1"
   id="svg2"
   width="146.84668"
   height="92.635406"
   viewBox="0 0 146.84668 92.635406"
   sodipodi:docname="map.svg"
   inkscape:version="1.2.2 (732a01da63, 2022-12-09)"
   xmlns:inkscape="http://www.inkscape.org/namespaces/inkscape"
   xmlns:sodipodi="http://sodipodi.sourceforge.net/DTD/sodipodi-0.dtd"
   xmlns="http://www.w3.org/2000/svg"
   xmlns:svg="http://www.w3.org/2000/svg">
  <defs
     id="defs6">
    <linearGradient
       id="linearGradient67598"
       inkscape:swatch="solid">
      <stop
         style="stop-color:#777777;stop-opacity:1;"
         offset="0"
         id="stop67596" />
    </linearGradient>
  </defs>
  <sodipodi:namedview
     id="namedview4"
     pagecolor="#ffffff"
     bordercolor="#111111"
     borderopacity="1"
     inkscape:showpageshadow="0"
     inkscape:pageopacity="0"
     inkscape:pagecheckerboard="1"
     inkscape:deskcolor="#d1d1d1"
     showgrid="false"
     showguides="false"
     inkscape:lockguides="false"
     inkscape:zoom="0.70835525"
     inkscape:cx="1043.2618"
     inkscape:cy="502.57268"
     inkscape:window-width="1920"
     inkscape:window-height="1009"
     inkscape:window-x="-8"
     inkscape:window-y="-8"
     inkscape:window-maximized="1"
     inkscape:current-layer="g8" />
  <g
     inkscape:groupmode="layer"
     inkscape:label="Image"
     id="g8"
     transform="translate(-1664.4332,-256.3504)">
    <path
       style="opacity:1;mix-blend-mode:normal;fill:#fafafa;fill-opacity:1;stroke:#000000;stroke-opacity:0.434483"
       d="m 1681.9394,281.95573 c 0,0 15.8819,13.14665 -7.6762,25.49921 0,0 9.2644,11.382 -9.088,38.11647 l 4.941,2.38228 5.2058,0.17646 6.3527,0.35294 19.5876,-3.88224 1.8529,0.97056 5.0293,-1.85288 12.3525,-14.99954 5.8234,0.79409 8.0291,1.14703 6.1763,-0.7941 6.0881,-3.97046 5.0292,-0.5294 2.647,-2.11758 4.4999,0.0882 10.4114,-8.64679 4.4999,-1.58818 2.3822,-1.41173 c 0,0 5.3822,0.0882 5.7352,0.0882 0.3529,0 3.0881,-0.88233 3.0881,-0.88233 l 1.0588,-2.82344 v -3.70577 l -2.9117,-2.38228 -4.5881,-3.97046 -0.8823,-1.49996 c 0,0 0,-0.79409 0.3529,-1.05879 0.353,-0.2647 0.9706,-0.88232 1.3235,-0.88232 0.353,0 2.8235,0.0882 2.8235,0.0882 l 6.9703,2.91167 3.7058,-2.20581 1.2353,-4.67633 2.2058,-1.32348 3.8822,0.97055 3.2646,0.70586 5.9116,0.44117 1.2353,-1.41172 -1.7647,-0.97056 -4.5881,-0.70586 -2.5587,-0.88233 -4.6764,-4.23516 -0.6176,-2.29405 -5.5586,-3.5293 -2.2059,-3.17637 -0.2647,-1.85289 1.7647,-6.52921 c 0,0 0.4412,-1.41172 -0.088,-1.41172 -0.5294,0 -13.4996,-7.41153 -13.4996,-7.41153 l -4.5881,11.99962 -3.6175,3.97047 -5.294,2.02935 -2.647,-0.79409 -5.1175,-12.1761 -4.4116,0.70586 -2.2058,2.38228 v 6.70568 l -6.0881,2.38228 -4.4116,-1.85289 -6.7939,-5.91158 -3.8822,-1.49995 -2.3823,1.76465 -6.7939,9.61735 -2.9999,1.85288 -7.1469,1.14703 -13.3231,-0.70587 -9.2644,0.7941 z"
       id="path8229"
       inkscape:export-filename=".\kesgor.svg"
       inkscape:export-xdpi="96"
       inkscape:export-ydpi="96" />
  </g>
</svg>
