<?xml version="1.0" encoding="UTF-8" standalone="no"?>
<!-- Created with Inkscape (http://www.inkscape.org/) -->

<svg
   version="1.1"
   id="svg2"
   width="143.47485"
   height="139.01953"
   viewBox="0 0 143.47485 139.01953"
   sodipodi:docname="map.svg"
   inkscape:version="1.2.2 (732a01da63, 2022-12-09)"
   xmlns:inkscape="http://www.inkscape.org/namespaces/inkscape"
   xmlns:sodipodi="http://sodipodi.sourceforge.net/DTD/sodipodi-0.dtd"
   xmlns="http://www.w3.org/2000/svg"
   xmlns:svg="http://www.w3.org/2000/svg">
  <defs
     id="defs6">
    <linearGradient
       id="linearGradient67598"
       inkscape:swatch="solid">
      <stop
         style="stop-color:#777777;stop-opacity:1;"
         offset="0"
         id="stop67596" />
    </linearGradient>
  </defs>
  <sodipodi:namedview
     id="namedview4"
     pagecolor="#ffffff"
     bordercolor="#111111"
     borderopacity="1"
     inkscape:showpageshadow="0"
     inkscape:pageopacity="0"
     inkscape:pagecheckerboard="1"
     inkscape:deskcolor="#d1d1d1"
     showgrid="false"
     showguides="false"
     inkscape:lockguides="false"
     inkscape:zoom="0.70835525"
     inkscape:cx="1043.2618"
     inkscape:cy="502.57268"
     inkscape:window-width="1920"
     inkscape:window-height="1009"
     inkscape:window-x="-8"
     inkscape:window-y="-8"
     inkscape:window-maximized="1"
     inkscape:current-layer="g8" />
  <g
     inkscape:groupmode="layer"
     inkscape:label="Image"
     id="g8"
     transform="translate(-1819.8057,-287.4603)">
    <path
       style="opacity:1;mix-blend-mode:normal;fill:#fafafa;fill-opacity:1;stroke:#000000;stroke-opacity:0.434483"
       d="m 1820.3364,389.79964 7.941,12.88196 8.6468,11.47023 1.7646,2.11758 -0.1764,3.35284 2.9999,3.5293 1.9411,2.29405 7.0586,0.52939 7.4115,-1.94111 5.8234,-2.11758 7.0586,1.76465 5.8233,-1.58819 1.9411,-1.94111 1.7647,-8.6468 v -5.64688 l 6.1763,-14.47014 4.7645,-0.35293 2.4705,1.05879 4.5881,0.52939 4.4117,3.52931 3.5293,2.47051 2.8234,-0.17647 c 0,0 0.7059,2.29405 1.5882,2.29405 0.8823,0 6.1763,0.35293 6.1763,0.35293 l 3.7057,3.70577 h 2.647 l 4.7646,-4.23516 -0.1765,-2.82345 -0.7059,-3.5293 -1.7646,-3.5293 -0.3529,-0.5294 5.6469,-7.94093 2.294,-2.64698 8.2939,-7.0586 2.4705,-1.23526 4.7645,2.64698 c 0,0 3.3529,-0.35293 4.2352,-0.35293 0.8823,0 3.7058,-1.58819 3.7058,-1.58819 l 3.8822,-3.5293 2.1176,-2.64698 -5.4704,-1.23525 -4.9411,-0.17647 -2.4705,-1.05879 -3.7057,-2.9999 -2.1176,-1.94112 -0.8824,-2.11758 0.1765,-3.35284 -4.941,-1.41172 -2.1176,-4.0587 -1.2352,-3.70577 -2.8235,-0.52939 -4.2352,-0.70586 -1.0587,-1.23526 -2.1176,-2.82344 -1.4117,-1.58819 h -3 l -3.8822,0.88233 -2.8234,0.52939 h -1.9411 l -1.2353,-0.17646 -1.5882,-1.23526 -1.2352,-0.88232 -1.5882,-1.23526 -0.8824,-3.17637 0.7059,-4.5881 -4.941,-1.76465 -2.2941,-1.05879 4.9411,-4.58809 c 0,0 0,-2.47051 1.0587,-2.99991 1.0588,-0.52939 5.8234,-1.58818 5.8234,-1.58818 l 2.294,-1.76466 -0.8823,-6.70567 -6.3527,-4.23516 -1.9411,-1.58819 -1.4118,-5.47042 -3.3528,-3.17637 -5.8234,-2.11758 -7.9409,-0.88233 -5.4704,-0.70586 -6.5292,-0.35293 -1.4117,3.70577 0.1764,3.88223 1.7647,3.17637 0.7058,3.17638 -0.1764,1.94111 -3.3529,1.05879 -1.7646,-1.23525 -5.1175,-0.88233 -2.8234,-0.35293 -2.4706,0.35293 -4.2351,1.23526 -1.9411,0.52939 -1.7647,0.5294 -1.7646,0.70586 2.1175,6.17628 1.7647,7.41153 -1.5882,5.29396 -2.4705,3.70577 -1.0588,1.94111 -3.3528,6.88214 -1.5882,4.23517 -1.2353,5.29395 0.1765,4.58809 v 7.94093 l 0.3529,5.11749 -0.5294,3.17638 -2.9999,1.58818 -9.3526,0.17647 -5.4704,1.41172 -1.2353,10.76437 z"
       id="path172"
       inkscape:export-filename="kholm.svg"
       inkscape:export-xdpi="96"
       inkscape:export-ydpi="96" />
  </g>
</svg>
