<?xml version="1.0" encoding="UTF-8" standalone="no"?>
<!-- Created with Inkscape (http://www.inkscape.org/) -->

<svg
   version="1.1"
   id="svg2"
   width="184.51685"
   height="171.25983"
   viewBox="0 0 184.51685 171.25983"
   sodipodi:docname="map.svg"
   inkscape:version="1.2.2 (732a01da63, 2022-12-09)"
   xmlns:inkscape="http://www.inkscape.org/namespaces/inkscape"
   xmlns:sodipodi="http://sodipodi.sourceforge.net/DTD/sodipodi-0.dtd"
   xmlns="http://www.w3.org/2000/svg"
   xmlns:svg="http://www.w3.org/2000/svg">
  <defs
     id="defs6">
    <linearGradient
       id="linearGradient67598"
       inkscape:swatch="solid">
      <stop
         style="stop-color:#777777;stop-opacity:1;"
         offset="0"
         id="stop67596" />
    </linearGradient>
  </defs>
  <sodipodi:namedview
     id="namedview4"
     pagecolor="#ffffff"
     bordercolor="#111111"
     borderopacity="1"
     inkscape:showpageshadow="0"
     inkscape:pageopacity="0"
     inkscape:pagecheckerboard="1"
     inkscape:deskcolor="#d1d1d1"
     showgrid="false"
     showguides="false"
     inkscape:lockguides="false"
     inkscape:zoom="0.70835525"
     inkscape:cx="1043.2618"
     inkscape:cy="502.57268"
     inkscape:window-width="1920"
     inkscape:window-height="1009"
     inkscape:window-x="-8"
     inkscape:window-y="-8"
     inkscape:window-maximized="1"
     inkscape:current-layer="g8" />
  <g
     inkscape:groupmode="layer"
     inkscape:label="Image"
     id="g8"
     transform="translate(-1812.7438,-651.35791)">
    <path
       style="opacity:1;mix-blend-mode:normal;fill:#fafafa;fill-opacity:1;stroke:#000000;stroke-opacity:0.434483"
       d="m 1842.4686,653.41769 1.8716,-1.55975 h 13.4139 l 7.7987,0.43673 7.2372,0.81107 2.558,1.68452 2.246,2.18365 1.5598,2.4332 1.6221,19.59041 0.6239,3.49384 1.7469,2.24603 1.9341,0.87346 4.7416,0.74868 1.6222,1.68452 0.5615,1.8717 0.1872,3.11949 0.9358,4.80402 0.8111,3.93056 1.4349,2.99471 1.8093,1.43497 3.4939,-0.24956 7.05,-5.98943 5.2408,-5.4903 3.1195,-0.49912 5.3655,0.24956 9.4833,-5.98943 2.9323,-0.31195 2.0588,0.68629 6.0519,5.92704 3.3066,2.37081 3.681,1.80931 22.3356,0.43673 2.0588,1.06062 1.435,1.74692 0.312,4.61685 0.8734,3.43145 3.3691,7.61156 5.1159,6.17659 3.3067,3.49384 3.7434,5.30313 1.3726,2.74515 2.1212,5.11597 1.7469,6.36377 -0.1871,6.39496 -1.4661,3.86817 -0.9671,1.90289 -4.3469,1.32356 -3.2646,3.5293 -5.4704,4.32339 -9.1762,4.5881 -5.2939,0.88232 -0.353,4.5881 1.5,2.11758 2.0293,2.02935 -0.4981,4.23516 -0.9136,0.88233 c 0,0 0.2647,3.88223 0.2647,4.23516 0,0.35293 0.6489,3.26461 0.6489,3.26461 l -3.9135,2.38227 -2.2058,4.3234 -1.5,3.794 -0.6176,2.91168 -1.7646,1.67641 -2.9999,0.35293 -1.5,-1.32348 -1.7646,-0.17647 -2.0294,-0.52939 -2.2058,0.35293 -2.9999,-0.2647 -2.9117,0.61763 -4.5881,4.05869 -6.6174,5.02926 -1.6764,0.17647 -1.9412,-1.0588 -3.6175,4.3234 -4.4116,0.46324 -2.1176,-3.02198 -3.0882,-2.99991 h -8.9114 c 0,0 -0.6177,-0.79409 -1.3235,-0.79409 -0.7059,0 -2.7352,0.79409 -2.7352,0.79409 h -2.0294 l -1.8529,-1.14702 -3.9704,-1.85289 -5.6469,-2.38228 -4.6763,-2.99991 -7.7645,-5.91158 -7.0586,-5.73511 -3.2646,-2.99991 -1.5882,-4.94102 -0.8823,-6.35275 -1.5,-4.0587 -1.9411,-1.58818 -6.2645,-0.7941 -8.4703,-1.85288 -4.147,-0.88233 c 0,0 0.9706,-1.85288 0.9706,-2.20581 0,-0.35293 0.1764,-2.55875 0.1764,-2.55875 l -0.794,-1.32348 -1.5,-2.29405 -0.3529,-3.5293 0.3529,-4.0587 0.9706,-2.91168 1.147,-1.67641 -1.6764,-3.44107 -2.1176,-1.14703 -2.9999,0.17647 -4.941,1.41172 -3.7058,1.41172 -0.9706,-0.35293 -0.088,-22.58754 c 0,0 3.5293,-7.0586 3.9705,-7.588 0.4411,-0.52939 2.9116,-5.55865 2.9116,-5.55865 l 0.088,-3.35284 -0.6177,-2.29405 -2.3822,-2.7352 c 0,0 -2.647,-1.41173 -2.9999,-1.41173 -0.353,0 -2.5588,-0.79409 -3.0882,-0.79409 -0.5294,0 -4.8528,-0.79409 -4.8528,-0.79409 l -2.647,-0.5294 -1.5881,-0.88232 -0.7059,-1.58819 1.2353,-1.49995 4.3233,-3.794 3.3529,-2.82345 3.8822,-3.70576 c 0,0 7.7645,-8.99973 8.3821,-9.61735 0.6176,-0.61763 2.4064,-5.02926 2.4064,-5.02926 0,0 1.6523,-4.14693 1.8288,-4.58809 0.1764,-0.44117 1.7646,-4.14693 1.7646,-4.14693 l 1.4117,-4.3234 c 0,0 -0.2646,-3.2646 0,-3.97046 0.2647,-0.70587 0.555,-3.03746 0.555,-3.03746 z"
       id="path26591"
       inkscape:export-filename=".\kimri.svg"
       inkscape:export-xdpi="96"
       inkscape:export-ydpi="96" />
  </g>
</svg>
