<?xml version="1.0" encoding="UTF-8" standalone="no"?>
<!-- Created with Inkscape (http://www.inkscape.org/) -->

<svg
   version="1.1"
   id="svg2"
   width="182.2251"
   height="173.42371"
   viewBox="0 0 182.2251 173.42371"
   sodipodi:docname="map.svg"
   inkscape:version="1.2.2 (732a01da63, 2022-12-09)"
   xmlns:inkscape="http://www.inkscape.org/namespaces/inkscape"
   xmlns:sodipodi="http://sodipodi.sourceforge.net/DTD/sodipodi-0.dtd"
   xmlns="http://www.w3.org/2000/svg"
   xmlns:svg="http://www.w3.org/2000/svg">
  <defs
     id="defs6">
    <linearGradient
       id="linearGradient67598"
       inkscape:swatch="solid">
      <stop
         style="stop-color:#777777;stop-opacity:1;"
         offset="0"
         id="stop67596" />
    </linearGradient>
  </defs>
  <sodipodi:namedview
     id="namedview4"
     pagecolor="#ffffff"
     bordercolor="#111111"
     borderopacity="1"
     inkscape:showpageshadow="0"
     inkscape:pageopacity="0"
     inkscape:pagecheckerboard="1"
     inkscape:deskcolor="#d1d1d1"
     showgrid="false"
     showguides="false"
     inkscape:lockguides="false"
     inkscape:zoom="0.70835525"
     inkscape:cx="1043.2618"
     inkscape:cy="502.57268"
     inkscape:window-width="1920"
     inkscape:window-height="1009"
     inkscape:window-x="-8"
     inkscape:window-y="-8"
     inkscape:window-maximized="1"
     inkscape:current-layer="g8" />
  <g
     inkscape:groupmode="layer"
     inkscape:label="Image"
     id="g8"
     transform="translate(-1720.4684,-826.83307)">
    <path
       style="opacity:1;mix-blend-mode:normal;fill:#fafafa;fill-opacity:1;stroke:#000000;stroke-opacity:0.434483"
       d="m 1721.1349,988.2645 c 0,0 1.8581,-6.37717 2.1669,-7.03891 0.3088,-0.66174 0.8382,-7.8527 0.8382,-7.8527 l 3.8381,-6.04393 9.1321,-8.24974 3.7058,-4.94103 1.0588,-6.79391 0.3529,-2.73521 1.4999,-3.17637 -4.2351,-6.61744 -3.6176,-6.44098 -0.088,-6.44097 v -7.14684 l -5.2939,-4.49986 -2.0294,-2.73521 -1.3235,-4.41163 1.2353,-2.20582 3.6175,-2.47051 5.6469,-2.29404 3.2646,-1.49996 2.4705,-2.47051 3.5293,-4.58809 2.1176,-3.35284 4.8528,-2.73521 c 0,0 3.0881,-2.11758 3.3528,-2.55875 0.2647,-0.44116 1.4117,-3.70576 1.4117,-3.70576 l -0.1764,-3.61754 2.1176,-2.82344 5.8233,0.0882 5.2057,2.38228 1.7647,2.82344 -1.3235,4.49986 -1.8529,6.08805 -0.5294,2.29405 1.4117,2.82344 1.6764,1.67642 2.8235,1.41172 2.0293,1.23526 2.9117,1.85288 2.1176,0.97056 2.8234,0.35293 3.2646,-0.0882 3.1764,-0.70586 0.5294,-1.58819 -0.2647,-3.08814 -2.3823,-4.23516 -2.294,-3.70577 0.3529,-1.76465 1.7647,-1.23526 4.8528,1.85289 4.7645,0.35293 3.8823,-0.5294 3.5293,-1.23526 1.0587,-1.85288 -0.2647,-4.14693 -1.147,-4.76456 -1.9411,-2.47051 -2.3823,-3.794 -0.1764,-2.29405 0.3529,-3.08814 2.9468,-3.5293 2.6118,-2.73521 3.794,-3.2646 10.588,-7.23508 c 0,0 1.2352,-1.32348 1.6764,-1.67641 0.4411,-0.35293 1.6764,-2.29405 1.6764,-2.29405 l 0.7059,-4.0587 c 0,0 1.3234,-3.88223 1.7646,-3.97046 0.4412,-0.0882 2.9999,-2.20582 2.9999,-2.20582 l 2.2058,-0.61763 12.6173,2.73521 6.2645,0.7941 1.9411,1.58818 1.5,4.0587 0.8823,6.35275 1.5882,4.94102 18.0877,14.6466 4.6763,2.99991 9.6173,4.23517 1.8529,1.14702 -1.0588,1.67642 -2.2058,0.35293 -2.294,0.52939 -0.4412,1.76465 0.8823,1.58819 1.0588,2.29405 2.4705,2.38228 2.1176,2.64697 1.7647,1.85289 1.4117,1.76465 1.5022,0.52939 2.1153,0.70587 1.4117,1.14702 1.3235,1.58818 c 0,0 0,0.88233 0,1.23526 0,0.35293 -0.3529,2.29405 -0.3529,2.29405 l -1.4117,1.49995 -1.5882,1.23526 -0.3529,1.32349 0.2647,1.05879 0.6176,0.61762 0.7941,0.70586 v 0.61763 l -0.5294,0.97056 -1.5882,1.76465 -1.147,1.32349 -1.4117,1.49995 -0.6177,2.47052 0.4412,2.64697 0.5294,2.73521 1.0588,2.02935 1.2352,3.794 1.2353,0.97056 0.3529,3.08814 c 0,0 -0.3529,1.05879 -0.7941,1.67642 -0.4411,0.61763 -1.2352,1.49995 -1.5882,2.20581 -0.3529,0.70586 -1.147,2.29405 -1.147,2.29405 l -0.4412,1.49995 c 0,0 -0.7058,0.7941 -1.147,0.97056 -0.4411,0.17647 -2.9999,1.49996 -2.9999,1.49996 l -1.6764,0.61762 v 1.94112 l -1.2353,2.64698 -1.147,0.26469 -1.8529,0.17647 -0.3529,-0.97056 -1.0588,-1.14702 -0.9705,-0.97056 c 0,0 -1.3235,-0.35293 -1.7647,-0.35293 -0.4412,0 -3.7058,0.0882 -3.7058,0.0882 h -3.3528 l -1.6764,-1.05879 -1.4117,-1.58818 -0.088,-2.64698 0.4412,-3.17637 c 0,0 -2.2058,-0.61763 -3.0882,-0.70586 -0.8823,-0.0882 -4.7645,-0.70587 -5.1174,-0.70587 -0.353,0 -12.9702,-2.47051 -13.3232,-2.47051 -0.3529,0 -4.0587,-1.05879 -4.0587,-1.05879 l -2.4705,3.08814 -2.6469,4.14693 -3.5293,3.44107 -3,2.20582 -2.6469,1.85288 -2.9999,0.97056 -1.2353,2.02935 -2.2058,0.97056 -0.9706,2.38228 -0.088,2.11758 c 0,0 0.088,1.23525 -0.7059,1.58818 -0.7941,0.35293 -3.5293,1.14703 -3.5293,1.14703 0,0 -2.9999,-0.70586 -3.3528,-0.61763 -0.3529,0.0882 -2.647,0.70586 -2.647,0.70586 l -2.2058,1.14702 -2.4705,0.97056 -1.9411,1.58819 -1.9411,1.58818 -0.4412,1.58819 -1.7646,1.58819 -2.5588,1.41172 c 0,0 -1.8529,0.0882 -2.3823,0.0882 -0.5294,0 -3.1763,-0.2647 -3.1763,-0.2647 l -3.794,-0.17646 -4.4117,-0.7941 -1.4999,-1.14702 c 0,0 -1.6764,-0.17647 -2.1176,-0.17647 -0.4412,0 -1.2353,0 -1.2353,0 l -1.8528,2.99991 c 0,0 -0.2647,2.02935 -0.7941,2.64698 -0.5294,0.61763 -1.7647,1.32349 -2.1176,1.58819 -0.353,0.26469 -2.4705,1.41172 -2.9999,1.58818 -0.5294,0.17647 -2.0294,0.35293 -2.647,0.70586 -0.6176,0.35293 -1.8529,0.44117 -1.8529,0.44117 l -1.6764,2.02934 -2.7352,2.11759 -2.1176,1.85288 -2.647,1.94112 c 0,0 -1.6764,0.35293 -2.5587,0.88232 -0.8823,0.5294 -2.9117,1.05879 -2.9117,1.05879 l -2.9117,0.17647 c 0,0 -1.5882,-0.0882 -2.5587,0 -0.9706,0.0882 -2.3823,0.44116 -3.5293,0.44116 -1.147,0 -3.6176,0 -3.6176,0 h -1.5881 l -1.2353,0.88233 c 0,0 0,2.20581 -0.6617,2.82344 -0.6618,0.61763 -1.5441,2.33816 -1.6323,2.51463 -0.088,0.17646 -1.5882,1.85288 -1.7206,2.07346 -0.1323,0.22058 -2.0293,1.19114 -2.1176,1.36761 -0.088,0.17646 -1.0146,1.3676 -1.0146,1.3676 l -1.1029,1.54407 -0.1765,2.07347 v 1.32349 l 0.1765,1.94111 c 0,0 0.397,0.97056 0.044,1.32349 -0.353,0.35293 -1.0147,0.79409 -1.0147,0.79409 0,0 -1.5,0.74998 -1.6764,0.7941 -0.1765,0.0441 -1.897,0.44116 -1.897,0.44116 l -2.1176,-0.0882 -1.0147,-1.01468 c 0,0 -0.2647,-1.23525 -0.2647,-1.49995 0,-0.2647 0.2647,-1.41172 0.353,-1.67642 0.088,-0.2647 0.8382,-1.49995 0.8382,-1.49995 0,0 0.3088,-1.897 0.3088,-2.24993 0,-0.35293 -0.2206,-2.11759 -0.2206,-2.11759 l -0.5735,-1.05879 c 0,0 -1.0588,-0.0882 -1.5,-0.0882 -0.4411,0 -1.7257,-0.19616 -1.7257,-0.19616 z"
       id="path28771"
       inkscape:export-filename="konakovskiy.svg"
       inkscape:export-xdpi="96"
       inkscape:export-ydpi="96" />
  </g>
</svg>
