<?xml version="1.0" encoding="UTF-8" standalone="no"?>
<!-- Created with Inkscape (http://www.inkscape.org/) -->

<svg
   version="1.1"
   id="svg2"
   width="137.07764"
   height="174.0611"
   viewBox="0 0 137.07764 174.0611"
   sodipodi:docname="map.svg"
   inkscape:version="1.2.2 (732a01da63, 2022-12-09)"
   xmlns:inkscape="http://www.inkscape.org/namespaces/inkscape"
   xmlns:sodipodi="http://sodipodi.sourceforge.net/DTD/sodipodi-0.dtd"
   xmlns="http://www.w3.org/2000/svg"
   xmlns:svg="http://www.w3.org/2000/svg">
  <defs
     id="defs6">
    <linearGradient
       id="linearGradient67598"
       inkscape:swatch="solid">
      <stop
         style="stop-color:#777777;stop-opacity:1;"
         offset="0"
         id="stop67596" />
    </linearGradient>
  </defs>
  <sodipodi:namedview
     id="namedview4"
     pagecolor="#ffffff"
     bordercolor="#111111"
     borderopacity="1"
     inkscape:showpageshadow="0"
     inkscape:pageopacity="0"
     inkscape:pagecheckerboard="1"
     inkscape:deskcolor="#d1d1d1"
     showgrid="false"
     showguides="false"
     inkscape:lockguides="false"
     inkscape:zoom="0.70835525"
     inkscape:cx="1043.2618"
     inkscape:cy="502.57268"
     inkscape:window-width="1920"
     inkscape:window-height="1009"
     inkscape:window-x="-8"
     inkscape:window-y="-8"
     inkscape:window-maximized="1"
     inkscape:current-layer="g8" />
  <g
     inkscape:groupmode="layer"
     inkscape:label="Image"
     id="g8"
     transform="translate(-1187.6228,-792.19336)">
    <path
       style="opacity:1;mix-blend-mode:normal;fill:#fafafa;fill-opacity:1;stroke:#000000;stroke-opacity:0.434483"
       d="m 1227.3032,959.56438 5.5527,2.68276 3.1195,1.93409 2.9947,1.31018 4.3673,0.24956 1.1542,-1.37258 1.2166,-1.8405 2.4332,-3.89936 1.6221,-3.86817 2.1213,-1.12302 3.8682,-0.43673 3.8057,-1.24779 2.9948,-1.62214 6.2389,-7.67395 2.558,-0.74868 0.9983,-1.43497 0.8734,-4.18012 1.7469,-3.0571 1.5598,-2.12125 2.1212,-1.99648 4.2425,-2.86993 3.6811,-2.62037 4.804,-0.99824 2.0588,0.31191 7.0126,-9.53657 2.6028,-0.48527 h 1.6323 l 0.5735,-1.94112 -0.1764,-1.98523 -1.897,-1.05879 -2.5146,-0.22059 -3.2205,-1.3676 -1.3676,-1.49995 -6.3528,-18.35238 0.3088,-3.83811 -0.044,-15.17601 1.2353,-2.82344 3.3065,-2.76113 0.9727,-0.81229 0.9265,-1.27937 0.7059,-6.88214 1.9411,-3.30872 4.5881,-2.4264 4.1028,-0.61762 3.044,-1.01468 6.1763,-6.61744 2.9999,-4.85279 -1.9852,-1.27938 -3.1764,-0.57351 -3.5293,-5.1616 -1.147,-2.33816 -0.2206,-2.20582 3.3528,-3.17637 3.6175,-1.6323 3.4411,-1.897 4.1469,-1.897 -4.9146,0.64764 -6.3014,0.12478 -2.9947,-1.49735 -8.6098,-3.80578 -6.1142,-4.24251 -3.8682,-4.11773 -2.4678,-1.74692 -4.2079,-0.74868 -1.9341,-0.93584 -3.4314,-4.80402 -2.9947,1.12301 -3.3691,2.24604 -3.1819,2.05886 -2.4956,-0.5615 -3.4938,-2.05887 -4.1177,-0.81107 -3.1195,-0.24956 -1.9965,1.68453 -0.8111,4.67924 -0.4991,2.68276 -1.9341,2.99471 -3.1818,4.18012 -3.1819,2.05887 -2.6204,2.05886 0.1872,1.43497 -0.4368,4.61685 -2.1836,3.86817 -3.4938,2.80754 -4.2425,2.93232 -3.3691,2.93233 -2.558,3.80578 -1.5597,4.49207 0.4991,4.18012 2.8075,2.4332 3.5563,0.81107 3.4314,2.05886 0.6863,2.4956 c 0,0 -0.8735,1.87169 -1.123,2.37081 -0.2496,0.49912 -1.6222,2.30843 -1.6222,2.30843 l -3.1818,1.55974 -3.993,1.68453 -9.1713,4.18012 -1.9341,0.0624 -1.1854,-0.56151 -0.3743,-1.37258 -0.062,-2.24603 0.3119,-5.42792 -0.3743,-1.93408 -1.0606,-1.43497 -1.6846,0.6239 -3.2442,3.18188 -2.0589,3.99295 -1.6845,3.80578 -1.4974,5.30314 -0.6863,2.4332 -0.8734,1.12302 -1.8717,-0.49912 -2.7452,-1.93409 -1.2478,-1.93408 c 0,0 0.1248,-3.74339 0.1248,-3.99295 0,-0.24956 -0.5615,-2.68276 -0.5615,-2.68276 l -1.5598,-0.31195 -2.0588,1.31018 -1.2478,1.62214 -0.9983,2.4332 -0.1871,2.93233 v 3.24427 l 0.1871,2.30842 0.312,1.68453 1.7469,0.56151 3.1819,2.30842 5.3655,2.74515 3.1195,2.12126 2.246,1.49736 1.5598,1.62213 0.5615,3.24427 -0.1248,3.43145 0.7487,1.37257 0.3119,3.0571 -0.9982,8.23546 -0.9982,4.49207 -0.062,3.49383 0.3743,3.80579 1.2478,1.99647 3.2443,4.9288 1.9965,2.93232 1.4349,1.99648 0.1872,5.67747 0.2496,5.30314 1.4349,4.3049 1.3726,2.37081 2.7452,1.93409 3.8057,2.55798 2.558,2.24604 z"
       id="path38215"
       inkscape:export-filename=".\lihoslavl.svg"
       inkscape:export-xdpi="96"
       inkscape:export-ydpi="96" />
  </g>
</svg>
