<?xml version="1.0" encoding="UTF-8" standalone="no"?>
<!-- Created with Inkscape (http://www.inkscape.org/) -->

<svg
   version="1.1"
   id="svg2"
   width="153.05905"
   height="200.31255"
   viewBox="0 0 153.05905 200.31255"
   sodipodi:docname="map.svg"
   inkscape:version="1.2.2 (732a01da63, 2022-12-09)"
   xmlns:inkscape="http://www.inkscape.org/namespaces/inkscape"
   xmlns:sodipodi="http://sodipodi.sourceforge.net/DTD/sodipodi-0.dtd"
   xmlns="http://www.w3.org/2000/svg"
   xmlns:svg="http://www.w3.org/2000/svg">
  <defs
     id="defs6">
    <linearGradient
       id="linearGradient67598"
       inkscape:swatch="solid">
      <stop
         style="stop-color:#777777;stop-opacity:1;"
         offset="0"
         id="stop67596" />
    </linearGradient>
  </defs>
  <sodipodi:namedview
     id="namedview4"
     pagecolor="#ffffff"
     bordercolor="#111111"
     borderopacity="1"
     inkscape:showpageshadow="0"
     inkscape:pageopacity="0"
     inkscape:pagecheckerboard="1"
     inkscape:deskcolor="#d1d1d1"
     showgrid="false"
     showguides="false"
     inkscape:lockguides="false"
     inkscape:zoom="0.70835525"
     inkscape:cx="1043.2618"
     inkscape:cy="502.57268"
     inkscape:window-width="1920"
     inkscape:window-height="1009"
     inkscape:window-x="-8"
     inkscape:window-y="-8"
     inkscape:window-maximized="1"
     inkscape:current-layer="g8" />
  <g
     inkscape:groupmode="layer"
     inkscape:label="Image"
     id="g8"
     transform="translate(-305.73773,3.1285145)">
    <path
       style="opacity:1;mix-blend-mode:normal;fill:#fafafa;fill-opacity:1;stroke:#000000;stroke-opacity:0.434483"
       d="m 370.69735,174.78304 3.4314,4.80402 1.9341,0.93584 4.2079,0.74868 2.4678,1.74692 3.8682,4.11773 6.1142,4.24251 11.6045,5.30313 6.3014,-0.12478 4.9146,-0.64764 9.3086,-10.0144 1.3235,-0.88233 3.1763,-0.66174 2.2941,-1.49995 1.5882,-1.58819 1.914,-1.48862 0.3119,-5.05357 3.9306,-6.36377 1.2478,-0.37434 3.4938,-4.55445 0.1248,-9.8576 0.5615,-2.62037 4.6793,-6.73811 0.6551,-0.56151 0.655,-0.5615 1.4974,-3.80579 0.4367,-2.55798 -1.0606,-2.05886 -1.9341,-2.05887 -1.9029,-2.52679 -3.7746,-5.27194 -1.123,-3.49383 -0.5615,-2.30843 0.4367,-2.4332 0.8111,-2.12125 2.9947,-5.17836 1.3726,-6.48855 0.7487,-17.843492 2.558,-5.67748 1.4349,-1.99647 0.1248,-1.8717 -0.1248,-1.99647 -0.9358,-2.80755 -1.2478,-2.4332 -1.123,-2.55798 -0.4992,-1.93409 0.9359,-1.55975 6.8005,0.37434 1.5597,-1.43496 0.062,-2.68277 -2.558,-2.86993 -3.3066,-1.06063 -1.7469,-0.93584 -4.6169,-3.7434 -0.3743,-0.53031 -0.3744,-0.53031 0.3744,-1.49736 1.6221,-1.18541 5.927,-5.86464 -0.062,-3.30666 c 0,0 -22.9006,-14.52719 -0.2689,-25.24744 l -6.1762,-3.8822298 -4.0587,-6.70568 -1.5999,1.52093 -1.123,0.24956 -1.435,-0.56151 -6.3246,-4.2737 -0.7254,-0.40554 -0.749,1.12301 -0.6239,3.11949 -2.4332,2.12126 -5.4903,0.37434 -3.8682,-1.31019 -3.1819,-1.80931 -1.3101,0.37434 -1.0607,2.80755 -5.3031,2.55798 -4.7416,2.86993 -4.9912,4.4296798 -2.87,2.86994 -2.4955,1.99647 -4.3673,0.68629 -8.6098,-1.68453 -3.4315,0.24956 -2.246,1.55975 -2.6204,4.24251 -5.1783,12.10363 -2.4956,2.62037 -1.8093,1.18541 h -8.9842 l -5.3031,-1.68453 -2.6828,-2.12125 -3.4938,-5.49031 -1.2478,-2.49559 -1.3726,-1.31019 -1.5597,-0.56151 h -1.2478 l -1.435,0.99824 -2.6204,1.06063 -1.4973,0.24956 -1.123,-0.31195 -1.747,-1.93409 -0.811,-0.43673 -1.1854,-0.18717 -1.0052,0.0199 -1.1161,0.0425 -2.1212,1.55975 -2.0589,1.31019 -1.9341,0.43673 -2.246,-0.0624 -1.3102,-0.99824 -1.0606,-0.99824 -3.5563,-0.93585 h -2.5576 l -0.031,3.86818 c 0,0 -2.3968,14.02265 27.9552,15.43437 l 2.834,1.84762 1.0606,2.71396 -0.1872,3.24427 0.5303,3.46264 0.7175,3.58741 0.4367,2.27723 -0.811,1.55975 -2.2149,1.31019 -2.7139,1.37257 -2.2149,1.02944 -1.7469,1.43496 -1.2166,1.62214 -0.5303,2.37081 0.3119,1.74692 0.7487,3.27546 0.031,3.15069 c 0,0 -0.4991,1.37258 -0.6863,1.62214 -0.1871,0.24956 -1.2166,1.8405 -1.2166,1.8405 l -1.2166,3.58741 0.094,5.98943 0.094,4.14892 -0.9982,2.745162 -2.8076,4.52326 -2.0588,5.11597 -0.3432,3.33786 0.1872,4.8664 1.0606,2.52679 -1.9965,4.21132 -11.8369,10.22597 -0.75,2.60286 0.5735,1.67642 0.044,4.23517 1.1029,0.26469 2.647,-1.6323 2.647,-2.11758 2.6911,-1.05879 2.8234,0.22058 2.0735,2.29405 1.4117,1.76465 2.7793,-0.74998 c 0,0 3.8382,-2.55874 4.0146,-2.60286 0.1765,-0.0441 3.7499,-2.60286 3.7499,-2.60286 l 3.4411,-1.45584 2.7793,0.22058 1.7647,1.32349 2.1175,1.14703 2.1176,-0.66175 2.0735,-1.05879 1.4558,1.19114 0.3088,5.20572 0.088,10.54379 -1.1029,3.66166 -0.2206,2.86755 0.7941,2.20582 2.9116,1.14702 3.3088,0.5294 3.9704,-0.0882 c 0,0 6.1763,-0.0441 6.3968,0.48528 0.2207,0.5294 2.4265,1.63231 2.4265,1.63231 l 0.9706,1.94111 0.794,2.51463 z"
       id="path43403"
       inkscape:export-filename=".\maksatiha.svg"
       inkscape:export-xdpi="96"
       inkscape:export-ydpi="96" />
  </g>
</svg>
