<?xml version="1.0" encoding="UTF-8" standalone="no"?>
<!-- Created with Inkscape (http://www.inkscape.org/) -->

<svg
   version="1.1"
   id="svg2"
   width="150.78027"
   height="190.27393"
   viewBox="0 0 150.78027 190.27393"
   sodipodi:docname="map.svg"
   inkscape:version="1.2.2 (732a01da63, 2022-12-09)"
   xmlns:inkscape="http://www.inkscape.org/namespaces/inkscape"
   xmlns:sodipodi="http://sodipodi.sourceforge.net/DTD/sodipodi-0.dtd"
   xmlns="http://www.w3.org/2000/svg"
   xmlns:svg="http://www.w3.org/2000/svg">
  <defs
     id="defs6">
    <linearGradient
       id="linearGradient67598"
       inkscape:swatch="solid">
      <stop
         style="stop-color:#777777;stop-opacity:1;"
         offset="0"
         id="stop67596" />
    </linearGradient>
  </defs>
  <sodipodi:namedview
     id="namedview4"
     pagecolor="#ffffff"
     bordercolor="#111111"
     borderopacity="1"
     inkscape:showpageshadow="0"
     inkscape:pageopacity="0"
     inkscape:pagecheckerboard="1"
     inkscape:deskcolor="#d1d1d1"
     showgrid="false"
     showguides="false"
     inkscape:lockguides="false"
     inkscape:zoom="0.70835525"
     inkscape:cx="1043.2618"
     inkscape:cy="502.57268"
     inkscape:window-width="1920"
     inkscape:window-height="1009"
     inkscape:window-x="-8"
     inkscape:window-y="-8"
     inkscape:window-maximized="1"
     inkscape:current-layer="g8" />
  <g
     inkscape:groupmode="layer"
     inkscape:label="Image"
     id="g8"
     transform="translate(-863.29175,-410.72784)">
    <path
       style="opacity:1;mix-blend-mode:normal;fill:#fafafa;fill-opacity:1;stroke:#000000;stroke-opacity:0.434483"
       d="m 908.52743,591.32554 3.66165,-0.0882 3.70577,0.17646 6.26451,3.39696 4.19105,1.10291 3.61754,0.35293 1.6323,-0.2647 5.1616,-2.38228 1.94112,-0.97056 3.794,-0.88233 2.51463,-0.0441 3.30872,1.45584 3.83812,2.91167 5.55865,4.41163 h 1.54407 l 1.27937,-1.10291 5.33807,-3.48518 2.60286,-2.07347 2.73521,-1.32349 2.60286,-0.0882 3.66165,0.83821 3.08814,0.17646 2.2849,-1.58818 1.68557,-1.72054 2.64698,-4.80867 0.15441,-0.9485 0.1544,-0.9485 -4.64136,-8.77914 -0.82906,-3.13226 1.19114,-2.02935 4.36756,-3.83812 1.76465,-3.74988 1.897,-5.07337 2.47052,-10.2791 -0.92645,-1.32348 -3.88223,-2.38228 -4.3234,-3.57342 -0.30881,-1.41172 0.74998,-1.27938 3.04402,-0.57351 3.04402,-0.35293 2.77933,-1.01467 2.60286,-1.76465 0.92644,-2.02935 v -2.73521 l -1.32349,-2.95579 -3.90429,-7.30125 -1.08085,-2.05141 -1.05879,-3.2646 0.0882,-2.86756 1.23525,-3.5293 1.58819,-4.19105 0.74998,-5.55865 v -2.24993 l -0.57352,-2.07347 -1.41172,-1.1029 -5.4263,-1.76465 -0.92644,-0.55146 -0.92644,-0.55145 -1.0588,-2.55875 0.5294,-1.3676 1.36761,-2.07347 1.01467,-2.07346 0.39705,-2.51463 -0.35293,-9.04384 -0.61763,-3.83811 -1.10291,-3.55137 -0.30881,-1.12496 0.61762,-1.23526 h 1.23526 l 1.80877,0.35293 3.02446,1.26899 2.55798,0.46793 1.46616,-0.74868 -0.0312,-1.77811 1.09182,-1.65333 5.10041,-1.71573 6.5353,-2.15244 3.7434,-2.21484 1.636,-2.72344 0.4632,-4.45574 -0.6176,-4.41163 -0.044,-2.07347 -0.5736,-1.85288 -3.5293,-3.48519 -4.4557,-0.57351 -2.9558,0.22058 -2.69109,1.14703 -3.30873,0.79409 -2.38228,-0.44116 -2.82343,-3.15431 -1.23526,-1.4779 -1.897,-0.66175 -1.76465,-0.17646 -1.54407,0.92644 -1.63231,1.23525 -1.32349,0.7941 -2.44845,-0.0662 -0.55145,-0.19853 -0.96542,-1.54199 -2.21096,-3.53138 -1.3676,-3.48519 -1.01467,-2.02935 -1.01468,-2.02936 -2.02935,-4.1028 -0.5294,-1.61025 -6.41441,5.21206 -10.04477,9.04652 -8.17307,8.6098 -8.92175,10.16954 -1.74691,2.55798 -2.68277,0.37434 -1.31018,-2.62037 -1.49736,-4.36729 -0.56151,-3.43144 -1.62213,-2.30843 -2.4956,1.68453 -2.68276,2.30842 h -3.74339 l -6.1142,0.0624 -2.62037,0.99824 -0.24956,3.11949 -1.18541,3.18189 -1.93408,0.68629 -2.74517,-0.6239 -3.0571,-1.06063 -1.62213,0.0624 -0.24955,3.43144 0.18717,2.4332 0.12478,2.86994 -0.56151,2.62037 -0.93585,1.12302 -2.99471,0.18717 -2.93233,-1.2478 -4.99118,0.49912 -4.05534,0.87346 -1.80931,1.49735 -0.31195,7.4244 v 4.92879 l 0.99824,3.80579 0.93585,2.86994 -0.12478,2.4332 -1.31019,2.74515 -2.43321,1.18541 -3.43145,1.18541 -2.37081,1.37258 0.24956,1.8093 1.37258,2.55798 1.06062,2.24604 0.12478,2.99471 -1.49735,2.68276 -3.681,5.11597 -2.24604,3.49383 -0.68629,9.98238 -0.99823,5.73987 -0.87346,5.98942 0.12478,5.86465 0.31195,1.37257 1.43496,1.31019 0.24956,4.86641 0.18717,3.55622 0.49912,3.36905 2.30843,2.12125 3.93056,0.12478 2.99471,-2.05886 3.18188,-0.49912 1.37258,1.62214 2.80754,4.36729 3.30666,1.43496 4.3049,-2.80754 4.42968,-2.93232 1.80931,1.06062 0.24956,3.43145 0.12478,5.4903 0.62389,3.80578 0.87346,2.86994 2.12126,3.0571 2.55798,2.86993 2.68276,4.3049 2.12126,3.99295 0.43673,3.74339 z"
       id="path54317"
       inkscape:export-filename=".\nelidovskiy.svg"
       inkscape:export-xdpi="96"
       inkscape:export-ydpi="96" />
  </g>
</svg>
