<?xml version="1.0" encoding="UTF-8" standalone="no"?>
<!-- Created with Inkscape (http://www.inkscape.org/) -->

<svg
   version="1.1"
   id="svg2"
   width="147.22058"
   height="186.62213"
   viewBox="0 0 147.22058 186.62213"
   sodipodi:docname="map.svg"
   inkscape:version="1.2.2 (732a01da63, 2022-12-09)"
   xmlns:inkscape="http://www.inkscape.org/namespaces/inkscape"
   xmlns:sodipodi="http://sodipodi.sourceforge.net/DTD/sodipodi-0.dtd"
   xmlns="http://www.w3.org/2000/svg"
   xmlns:svg="http://www.w3.org/2000/svg">
  <defs
     id="defs6">
    <linearGradient
       id="linearGradient67598"
       inkscape:swatch="solid">
      <stop
         style="stop-color:#777777;stop-opacity:1;"
         offset="0"
         id="stop67596" />
    </linearGradient>
  </defs>
  <sodipodi:namedview
     id="namedview4"
     pagecolor="#ffffff"
     bordercolor="#111111"
     borderopacity="1"
     inkscape:showpageshadow="0"
     inkscape:pageopacity="0"
     inkscape:pagecheckerboard="1"
     inkscape:deskcolor="#d1d1d1"
     showgrid="false"
     showguides="false"
     inkscape:lockguides="false"
     inkscape:zoom="0.70835525"
     inkscape:cx="1043.2618"
     inkscape:cy="502.57268"
     inkscape:window-width="1920"
     inkscape:window-height="1009"
     inkscape:window-x="-8"
     inkscape:window-y="-8"
     inkscape:window-maximized="1"
     inkscape:current-layer="g8" />
  <g
     inkscape:groupmode="layer"
     inkscape:label="Image"
     id="g8"
     transform="translate(-1073.3839,-640.51263)">
    <path
       style="opacity:1;mix-blend-mode:normal;fill:#fafafa;fill-opacity:1;stroke:#000000;stroke-opacity:0.434483"
       d="m 1219.8594,777.35006 -0.4853,-1.49995 -2.2941,-8.77914 -0.7058,-5.33807 -0.8824,-9.79382 -1.4558,-2.29404 -2.6029,-1.45584 -5.7351,-0.83821 -2.0293,-0.61763 -0.353,-2.51463 0.3089,-4.36751 2.7793,-10.94084 0.4853,-8.33797 -0.1765,-3.88224 -1.147,-2.16169 -9.3527,-8.86738 -0.1323,-2.73521 1.0147,-5.20572 -0.8824,-1.6323 -2.9116,-3.35284 -2.4264,-3.35284 -0.6177,-2.55874 0.75,-2.82344 1.7647,-2.6911 2.6469,-2.33816 1.0588,-2.73521 0.2647,-3.04402 -0.9705,-2.99991 -1.9853,-2.38228 -4.0145,-3.61753 -11.1615,-5.29396 -4.1469,-2.51463 -2.0514,-2.4705 -1.0809,-1.58819 -0.397,-0.70586 -0.9705,-10.58792 -3.3969,0.13241 -2.8235,1.1029 -3.4411,2.47051 -5.9115,5.42631 -2.4264,1.897 -1.9853,-1.72054 -4.8969,-5.9557 -2.6911,-1.01467 -1.3235,0.30881 -2.2499,1.58819 -5.0292,5.02926 -2.1176,2.60286 -1.9411,3.2646 -0.9265,3.04403 -1.9411,3.61753 -1.2353,1.45584 -1.3676,0.0441 -2.4705,-0.79409 -3.5734,-1.897 -3.6175,-3.08814 -2.1176,-1.14702 -3.2646,-0.22058 -5.6469,-0.0441 -1.5698,2.23816 -3.7434,2.21484 -4.1177,1.34138 -4.8352,1.62213 -2.6828,0.90466 -1.0918,1.65333 0.031,1.77811 -1.4662,0.74868 -2.558,-0.46793 -3.0244,-1.26899 -1.8088,-0.35293 h -1.2352 l -0.6177,1.23526 0.6177,2.24993 0.7941,2.4264 0.6176,3.83811 0.3529,9.04384 -0.397,2.51463 -1.0147,2.07346 -1.3676,2.07347 -0.5294,1.3676 1.0588,2.55875 1.8529,1.10291 2.9116,0.97055 2.5147,0.7941 1.4117,1.1029 c 0,0 0.5735,1.897 0.5735,2.07347 0,0.17646 0,2.24993 0,2.24993 l -0.75,5.55865 -1.5882,4.19105 -1.2352,3.5293 c 0,0 -0.088,2.55875 -0.088,2.86756 0,0.30881 1.0588,3.2646 1.0588,3.2646 l 2.1617,4.10282 2.8234,5.24984 1.3235,2.95579 v 2.73521 l -0.9264,2.02935 -2.6029,1.76465 c 0,0 -2.5587,0.92644 -2.7793,1.01467 -0.2206,0.0882 -3.044,0.35293 -3.044,0.35293 l -3.0441,0.57351 -0.7499,1.27938 0.3088,1.41172 1.5882,1.19114 2.7352,2.38228 3.8822,2.38228 0.9264,1.32348 -0.5294,2.07347 -0.9705,4.36751 -0.9706,3.83812 -1.897,5.07337 -1.7646,3.74988 2.1176,1.32349 2.5146,2.24993 5.1616,7.8527 1.7205,3.83812 2.6029,4.10281 4.4116,1.10291 5.7792,-1.10291 4.9411,-2.60286 4.4557,-1.45583 3.6617,0.0882 0.3529,2.07346 -0.044,3.88224 0.1765,12.97018 0.6617,2.11758 2.3823,1.01468 2.2499,0.97056 1.7647,1.67642 1.7205,2.02935 2.4705,1.85288 2.5146,0.97056 2.5588,0.44116 1.9852,-1.32349 1.6764,-2.82344 2.4264,-3.5293 1.4118,-2.07347 2.3822,-1.27937 1.9853,0.52939 1.8528,2.02935 1.5,3.35284 1.4558,3.794 1.6323,2.55875 2.1617,1.58818 3.6617,0.74998 3.4411,1.45584 4.3675,1.72053 4.9851,-0.35293 3.8381,-1.45584 2.2058,-0.13234 0.6618,-2.91168 -0.5735,-3.04402 -0.6177,-3.66165 -2.3822,-3.04403 -2.0294,-2.1617 -0.7058,-1.85288 1.544,-1.19114 3.794,-0.61763 2.9558,-0.61763 4.4999,-1.1029 3.4411,1.6323 3.6175,3.66165 2.5587,2.55875 1.8529,1.45583 1.7647,0.70586 1.9411,0.0882 1.4117,-2.1617 v -2.86756 l -0.088,-3.83812 -0.1765,-8.51444 0.353,-4.63221 0.5735,-3.17637 2.2499,-0.30882 3.7499,0.13235 0.5735,-2.11758 0.088,-2.77932 0.3529,-3.92635 0.7941,-1.80877 1.897,-1.54407 3.2205,-0.61763 h 3.1323 z"
       id="path51409"
       inkscape:export-filename=".\oleninskiy.svg"
       inkscape:export-xdpi="96"
       inkscape:export-ydpi="96" />
  </g>
</svg>
