<?xml version="1.0" encoding="UTF-8" standalone="no"?>
<!-- Created with Inkscape (http://www.inkscape.org/) -->

<svg
   version="1.1"
   id="svg2"
   width="216.87082"
   height="176.03125"
   viewBox="0 0 216.87082 176.03125"
   sodipodi:docname="map.svg"
   inkscape:version="1.2.2 (732a01da63, 2022-12-09)"
   xmlns:inkscape="http://www.inkscape.org/namespaces/inkscape"
   xmlns:sodipodi="http://sodipodi.sourceforge.net/DTD/sodipodi-0.dtd"
   xmlns="http://www.w3.org/2000/svg"
   xmlns:svg="http://www.w3.org/2000/svg">
  <defs
     id="defs6">
    <linearGradient
       id="linearGradient67598"
       inkscape:swatch="solid">
      <stop
         style="stop-color:#777777;stop-opacity:1;"
         offset="0"
         id="stop67596" />
    </linearGradient>
  </defs>
  <sodipodi:namedview
     id="namedview4"
     pagecolor="#ffffff"
     bordercolor="#111111"
     borderopacity="1"
     inkscape:showpageshadow="0"
     inkscape:pageopacity="0"
     inkscape:pagecheckerboard="1"
     inkscape:deskcolor="#d1d1d1"
     showgrid="false"
     showguides="false"
     inkscape:lockguides="false"
     inkscape:zoom="0.70835525"
     inkscape:cx="1043.2618"
     inkscape:cy="502.57268"
     inkscape:window-width="1920"
     inkscape:window-height="1009"
     inkscape:window-x="-8"
     inkscape:window-y="-8"
     inkscape:window-maximized="1"
     inkscape:current-layer="g8" />
  <g
     inkscape:groupmode="layer"
     inkscape:label="Image"
     id="g8"
     transform="translate(-80.76873,-496.15039)">
    <path
       style="opacity:1;mix-blend-mode:normal;fill:#fafafa;fill-opacity:1;stroke:#000000;stroke-opacity:0.434483"
       d="m 172.40441,671.52734 1.85288,-1.54407 8.16151,-2.6911 1.76465,-1.98523 0.0441,-7.94093 0.22058,-3.04402 1.6323,-1.5882 2.60286,-0.70586 1.67642,0.2647 2.55875,1.54407 2.33816,0.61763 2.86756,-0.61763 2.29405,-2.11758 2.51462,-1.49995 2.18754,-1.43445 2.97407,-1.74193 3.13226,-0.8382 4.01458,-0.13236 4.98514,0.39705 4.94102,-0.26469 2.60286,-0.88233 1.49996,-1.41172 0.30881,-2.07346 -0.88233,-2.86756 -0.83821,-2.20581 0.0882,-2.82345 1.1029,-3.22049 2.33817,-1.72053 2.69109,-1.14703 7.23507,-1.14702 5.47042,-0.35293 6.2204,-0.88233 2.07346,-0.8382 2.4264,-3.52932 3.57342,-3.5293 2.51462,-1.14702 2.64698,-0.17647 1.80877,0.70587 2.95579,1.76466 2.38228,2.69109 2.29405,3.5293 1.80876,3.48519 2.24993,1.01467 2.07347,-0.83821 2.73521,-2.60286 1.3676,-1.49995 1.27938,-7.45565 2.16169,-1.897 1.80877,-1.32349 1.89163,-0.30491 -0.31195,-3.61861 0.31195,-5.05358 2.99471,-11.043 1.06063,-5.5527 -1.06063,-1.74691 -2.99471,-2.18365 -3.86817,-1.93408 -4.3049,-2.30843 -3.99295,-2.4332 -1.06355,0.84193 -1.94112,0.97056 -1.72054,0.48528 -1.98523,0.13235 -1.72053,-1.27937 -1.897,-2.24993 -1.01468,-2.77933 0.30882,-2.86756 6.97037,-10.67614 1.85288,-4.32339 1.05879,-3.794 -0.92644,-5.33807 -1.6323,-5.29396 -0.48528,-9.57323 0.17647,-2.51463 0.70586,-3.66165 -0.30882,-3.44107 -2.51463,-0.97056 -1.76465,0.61763 -1.72053,1.76465 -1.72054,0.5294 -5.691,-6.08805 -4.23516,-3.08814 -5.38219,-2.38228 -6.30863,-0.92644 -3.39695,0.17646 -4.23516,0.92645 -5.20573,0.88232 -6.30862,0.2647 -4.01459,-0.74998 -3.2646,-1.72053 -3.88223,-2.6911 -0.40132,1.9358 -1.71572,2.24604 -1.37258,1.49735 -1.87169,0.59271 -1.757,-0.46793 -1.79922,-1.8093 -0.71749,-1.62214 -1.65333,-0.71748 -1.24779,-0.5927 -0.74868,-1.77812 c 0,0 0.28075,-1.15421 0.40553,-1.24779 0.12478,-0.0936 0.77987,-0.96704 0.77987,-0.96704 l 1.31019,-1.2478 0.6239,-1.8717 -0.77987,-1.57244 -1.55975,-0.73598 c 0,0 -3.64157,-0.0236 -3.81804,-0.0677 -0.17646,-0.0441 -2.38228,-1.3676 -2.38228,-1.3676 l -2.24993,-1.6323 c 0,0 -1.27937,-0.74998 -1.49995,-0.74998 -0.22058,0 -4.80868,0.0441 -4.80868,0.0441 l -2.20581,1.14702 -0.5294,1.94112 -0.57351,3.5293 0.2647,2.86756 -0.79409,1.05879 -2.07347,0.61763 -1.897,-1.01468 -0.79409,-1.94112 -2.02935,-0.52939 -2.60286,0.0441 -2.29405,-0.13234 -1.49995,-1.41173 -2.33817,-1.98523 c 0,0 -1.3676,-0.52939 -1.67641,-0.52939 -0.30882,0 -1.67642,0.0882 -1.67642,0.0882 l -1.36761,1.14702 -1.1029,1.49996 -1.23526,0.74997 -1.94112,-0.52939 -2.60286,-1.27937 -1.3676,-1.76466 -1.897,-1.14702 -2.02935,0.17647 -1.36761,1.14702 -1.23525,1.3676 -1.05879,-0.0441 -1.54407,-0.92644 -1.67642,-2.47052 -0.97056,-1.14702 h -2.47051 l -1.14703,1.27937 -1.23525,2.60286 -1.23526,1.80877 -0.44116,0.97056 -0.39705,0.61763 -0.61762,0.61763 h -1.94112 l -3.39696,0.0441 -1.32348,0.74998 -0.66175,1.27937 -0.39704,1.85288 -0.2647,2.1617 -0.57351,1.76465 c 0,0 -0.39705,0.83821 -0.57352,0.83821 -0.17646,0 -2.20581,0.44117 -2.20581,0.44117 0,0 -1.85288,-0.0441 -2.20581,0.17646 -0.35293,0.22058 -1.897,0.5294 -1.897,0.5294 l 0.0882,9.83793 -2.51463,0.39704 -1.67642,0.17647 -0.97056,0.61763 0.0882,1.58818 0.88232,2.07347 1.6323,1.45584 c 0,0 0.2647,1.32348 0.22059,1.54407 -0.0441,0.22058 -0.88233,1.01467 -0.88233,1.01467 l -1.10291,0.5294 -2.11758,0.17646 -2.1617,0.0882 -1.23525,0.17647 -0.74998,0.70586 -0.30881,0.88233 -0.83821,1.67641 -0.97056,0.30882 -1.41172,-0.7941 -2.1617,-0.0882 h -1.58819 l -1.6323,0.92644 -2.51463,1.19114 -0.79409,1.01468 -1.764647,1.94112 -1.01468,1.67641 -2.64697,2.33817 -2.95579,2.16169 -2.86756,1.36761 -3.61754,1.6323 -2.20581,1.72054 -1.80877,1.14702 2.60286,1.897 3.13226,2.51463 2.55874,1.72053 2.73521,1.58819 3.61754,1.54407 3.39695,1.23526 h 3.264607 l 1.94111,0.70586 1.897,1.98523 0.74998,3.74988 -0.13235,3.48519 v 10.10263 l 0.35293,2.33816 2.29405,2.33816 3.83811,1.85289 2.51463,0.13235 h 5.11749 l 4.27928,0.22058 0.30881,1.19114 -0.35293,2.07346 -0.30881,1.897 0.35293,2.1617 0.5294,1.01468 1.94111,-0.35293 2.64698,-1.23526 2.1617,0.61763 1.98523,1.41172 1.80877,0.88232 1.19114,-1.27937 2.47051,0.70586 5.60277,2.86756 5.11749,2.47051 5.11748,2.02935 3.92635,1.36761 1.85289,1.49995 1.32349,2.95579 0.23323,3.74989 v 7.98504 l -0.93909,3.97047 -4.89691,3.08814 -3.26461,4.10281 -4.01458,9.485 -2.86756,5.11749 v 3.52931 l 2.77933,3.57341 5.20572,3.08814 5.24984,1.58819 4.58809,1.94112 3.794,3.57342 z"
       id="path47775"
       inkscape:export-filename=".\ostashkovskiy.svg"
       inkscape:export-xdpi="96"
       inkscape:export-ydpi="96" />
  </g>
</svg>
