<?xml version="1.0" encoding="UTF-8" standalone="no"?>
<!-- Created with Inkscape (http://www.inkscape.org/) -->

<svg
   version="1.1"
   id="svg2"
   width="160.75305"
   height="167.70105"
   viewBox="0 0 160.75305 167.70105"
   sodipodi:docname="map.svg"
   inkscape:version="1.2.2 (732a01da63, 2022-12-09)"
   xmlns:inkscape="http://www.inkscape.org/namespaces/inkscape"
   xmlns:sodipodi="http://sodipodi.sourceforge.net/DTD/sodipodi-0.dtd"
   xmlns="http://www.w3.org/2000/svg"
   xmlns:svg="http://www.w3.org/2000/svg">
  <defs
     id="defs6">
    <linearGradient
       id="linearGradient67598"
       inkscape:swatch="solid">
      <stop
         style="stop-color:#777777;stop-opacity:1;"
         offset="0"
         id="stop67596" />
    </linearGradient>
  </defs>
  <sodipodi:namedview
     id="namedview4"
     pagecolor="#ffffff"
     bordercolor="#111111"
     borderopacity="1"
     inkscape:showpageshadow="0"
     inkscape:pageopacity="0"
     inkscape:pagecheckerboard="1"
     inkscape:deskcolor="#d1d1d1"
     showgrid="false"
     showguides="false"
     inkscape:lockguides="false"
     inkscape:zoom="0.70835525"
     inkscape:cx="1043.2618"
     inkscape:cy="502.57268"
     inkscape:window-width="1920"
     inkscape:window-height="1009"
     inkscape:window-x="-8"
     inkscape:window-y="-8"
     inkscape:window-maximized="1"
     inkscape:current-layer="g8" />
  <g
     inkscape:groupmode="layer"
     inkscape:label="Image"
     id="g8"
     transform="translate(-1425.4808,-644.7868)">
    <path
       style="opacity:1;mix-blend-mode:normal;fill:#fafafa;fill-opacity:1;stroke:#000000;stroke-opacity:0.434483"
       d="m 1568.5275,797.77043 -7.5637,-0.13512 -5.0184,0.68629 -4.3401,1.37258 -2.1836,1.24779 -4.6169,4.80402 -3.2443,1.74692 -4.1177,0.43672 -2.8075,1.93409 -2.4332,2.05886 -2.7452,0.0624 -4.4297,-2.37081 -3.9929,-2.99471 -3.3691,-3.11949 -1.9965,-4.18012 -0.6862,-2.55799 0.7486,-2.05886 3.0571,-4.05534 0.7487,-2.24604 -0.9982,-2.74515 -2.1213,-0.99824 -4.5544,0.12478 -3.1819,0.37434 -4.8664,0.24956 -4.4921,0.49912 -3.5562,-0.37434 -3.2443,-0.81107 -2.1212,-0.99824 -3.6187,-3.18188 -3.5562,-4.36729 -3.8058,-1.8093 -2.6827,-0.18717 -3.1195,0.74868 -2.558,1.55974 -9.1089,3.55622 -2.1837,0.12478 -2.7451,-0.74868 -2.4332,-1.68452 -2.3708,-2.86993 -2.1837,-2.24604 -1.7469,-1.18541 -1.0918,-0.0936 -1.0918,-0.0936 -3.3067,0.5615 -1.9341,1.55975 -4.2425,0.24956 -6.9253,-3.0571 0.9686,-1.41917 4.8087,-6.35274 1.2353,-1.76466 2.6028,-0.48527 h 1.6323 l 0.5735,-1.94112 -0.1764,-1.98523 -1.897,-1.05879 -2.5146,-0.22059 -3.2205,-1.3676 -1.3676,-1.49995 -3.3529,-9.97028 -2.9999,-8.3821 0.3088,-3.83811 -0.044,-15.17601 1.2353,-2.82344 4.2792,-3.57342 0.9265,-1.27937 0.7059,-6.88214 1.9411,-3.30872 4.5881,-2.4264 4.1028,-0.61762 c 0,0 3.2205,-1.01468 3.044,-1.01468 -0.1765,0 3.2646,-3.30872 3.2646,-3.30872 l 2.9117,-3.30872 2.9999,-4.85279 -1.9852,-1.27938 -3.1764,-0.57351 -1.5,-2.02935 -2.0293,-3.13225 -1.147,-2.33816 -0.2206,-2.20582 1.2793,-1.14702 2.0735,-2.02935 3.6175,-1.6323 c 0,0 3.0882,-1.897 3.4411,-1.897 0.3529,0 4.1469,-1.897 4.1469,-1.897 l 2.9117,-3.17638 3.9264,-4.27928 2.4705,-2.55874 1.3235,-0.88233 3.1763,-0.66174 2.2941,-1.49995 1.5882,-1.58819 1.9141,-1.48866 1.2478,0.84226 2.1657,1.55362 4.0733,3.15682 1.8405,1.8405 1.8405,1.8405 3.9929,2.68277 3.1195,1.93408 3.5562,0.0624 4.8664,0.99824 3.1819,1.8093 3.1819,2.43321 4.3673,6.1142 6.0518,7.73634 4.5545,3.61861 2.9323,1.62214 3.4314,-0.18717 1.8717,-1.37258 4.8041,-2.55798 4.1801,-1.55975 4.8664,-0.87345 5.6151,-0.37434 6.4885,0.37434 5.116,0.74867 4.9912,1.62214 5.3031,0.68629 2.1836,1.31019 2.4956,0.37434 -0.062,6.42614 -1.9964,5.49031 0.2495,3.24427 1.4974,2.68276 3.3066,1.43497 -0.555,3.03746 v 3.97046 l -1.4117,4.3234 -2.8357,6.83343 -3.1641,6.93085 -6.5325,7.47656 -3.7907,3.99367 -3.6176,3.2646 -3.1696,2.72216 -2.8301,2.48357 -1.2353,1.49995 0.7059,1.58819 1.5881,0.88232 6.4214,1.18429 1.0784,0.1392 3.0882,0.79409 2.9999,1.41173 2.3822,2.7352 0.6177,2.29405 -0.088,3.35284 -2.3652,4.64162 -1.4389,2.48747 -2.1826,4.2389 -0.8954,1.77866 0.056,14.4682 z"
       id="path35309"
       inkscape:export-filename=".\rameshki.svg"
       inkscape:export-xdpi="96"
       inkscape:export-ydpi="96" />
  </g>
</svg>
