<?xml version="1.0" encoding="UTF-8" standalone="no"?>
<!-- Created with Inkscape (http://www.inkscape.org/) -->

<svg
   version="1.1"
   id="svg2"
   width="179.0618"
   height="186.46327"
   viewBox="0 0 179.0618 186.46327"
   sodipodi:docname="map.svg"
   inkscape:version="1.2.2 (732a01da63, 2022-12-09)"
   xmlns:inkscape="http://www.inkscape.org/namespaces/inkscape"
   xmlns:sodipodi="http://sodipodi.sourceforge.net/DTD/sodipodi-0.dtd"
   xmlns="http://www.w3.org/2000/svg"
   xmlns:svg="http://www.w3.org/2000/svg">
  <defs
     id="defs6">
    <linearGradient
       id="linearGradient67598"
       inkscape:swatch="solid">
      <stop
         style="stop-color:#777777;stop-opacity:1;"
         offset="0"
         id="stop67596" />
    </linearGradient>
  </defs>
  <sodipodi:namedview
     id="namedview4"
     pagecolor="#ffffff"
     bordercolor="#111111"
     borderopacity="1"
     inkscape:showpageshadow="0"
     inkscape:pageopacity="0"
     inkscape:pagecheckerboard="1"
     inkscape:deskcolor="#d1d1d1"
     showgrid="false"
     showguides="false"
     inkscape:lockguides="false"
     inkscape:zoom="0.70835525"
     inkscape:cx="1043.2618"
     inkscape:cy="502.57268"
     inkscape:window-width="1920"
     inkscape:window-height="1009"
     inkscape:window-x="-8"
     inkscape:window-y="-8"
     inkscape:window-maximized="1"
     inkscape:current-layer="g8" />
  <g
     inkscape:groupmode="layer"
     inkscape:label="Image"
     id="g8"
     transform="translate(-91.78421,-3.7961111)">
    <path
       style="opacity:1;mix-blend-mode:normal;fill:#fafafa;fill-opacity:1;stroke:#000000;stroke-opacity:0.434483"
       d="m 212.93107,185.66285 -0.18717,-3.93056 -2.55798,-4.74163 -3.18189,-5.17836 -6.05181,-12.16602 0.37434,-3.11949 0.99824,-1.62214 4.24251,-3.61861 5.98942,-2.86993 3.86817,-2.4956 3.36905,-2.62037 1.2478,-2.05886 4.24251,-16.78287 2.86993,-7.92351 4.86641,-7.29962 2.37082,-2.62037 1.8093,-1.37258 3.55622,-1.12301 8.17307,0.24956 10.73106,-0.24957 4.18012,-1.31019 3.43144,-2.49559 1.21223,-2.517596 0.66415,-4.97268 1.19562,-5.57113 -0.0882,-3.39695 -0.48528,-2.77932 -1.41172,-1.32349 -2.20581,-0.13235 -1.80877,0.70586 -12.17609,6.92625 -1.94112,-0.17646 -1.897,-2.60286 -2.1617,-6.13216 -1.54407,-3.794 -2.02935,-2.55875 -2.64698,-4.0587 -2.95579,-5.4263 0.35293,-11.55847 -1.76465,-1.72053 -3.70576,3.70577 -2.73521,1.32348 -2.55875,-5.38218 -0.52939,-3.5293 -2.11759,-5.24984 -2.64697,-2.55875 -2.82345,-1.14702 -5.3434,-1.13998 -0.52406,-0.0953 -1.49995,-1.80876 -0.5294,-2.20582 -1.45584,-2.20581 -13.05842,0.0441 -4.23516,-0.30881 -2.38228,-2.64698 -3.13226,-5.5821 -2.07346,-5.62343 -3.04402,-6.2645095 -3.66166,-3.26461 -3.04402,-0.97056 -1.19114,0.2647 -1.3676,1.3676 -3.92635,6.0439395 -2.47052,5.33807 -1.3676,1.45583 -0.97056,0.17647 -0.92644,-0.35293 -2.55874,-2.24993 -3.26461,-5.07338 -3.70577,-4.1028095 -3.97046,-2.73521 -1.72059,1.41173 -1.94111,0.61763 h -2.73521 l -2.29405,-0.44116 -1.76465,-1.19114 h -1.76465 l -1.05879,0.44116 -1.0588,1.10291 -1.1029,1.27937 0.0882,1.76465 0.39705,1.1029095 0.0882,2.07346 -0.0882,2.55875 -0.0882,1.54407 -0.57351,1.14702 -0.88232,1.6323 -0.7941,0.61763 c 0,0 -1.1029,0.48528 -1.27937,0.48528 -0.17646,0 -2.77932,0.13235 -2.77932,0.13235 h -4.14693 l -1.36761,0.0882 -12.26433,0.22058 -2.20581,0.57352 -3.5293,1.54407 -4.588102,3.35283 -1.27937,1.76465 -2.73521,2.91168 -2.20581,4.01458 -0.7941,2.29405 0.66175,7.89681 0.30881,2.6911 0.7941,1.41172 1.3676,1.76465 1.36761,1.58818 1.80876,1.10291 2.338172,1.41172 3.30872,1.49996 3.04402,1.45583 4.80868,2.33817 1.80876,1.58818 2.20582,2.02935 1.98523,2.38228 0.97056,2.99991 -0.2647,3.04402 -1.05879,2.73521 -2.64698,2.33816 -1.76465,2.6911 -0.74998,2.82344 0.61763,2.55874 2.4264,3.35284 2.91167,3.35284 0.88233,1.6323 -0.5294,2.55875 -0.48528,2.64697 0.13235,2.735206 1.63231,1.80877 3.70576,3.39695 4.01458,3.66166 1.14703,2.16169 0.17646,3.88224 -0.48528,8.33797 -1.1029,4.27928 -1.67642,6.66156 -0.30882,4.36751 0.35293,2.51463 2.02935,0.61763 5.73512,0.83821 2.60286,1.45584 1.45584,2.29404 0.48528,4.3234 0.39704,5.47042 0.70586,5.33807 1.27938,5.29395 1.01467,3.48519 0.48528,1.49995 1.67642,1.27938 4.14693,1.6323 4.67633,0.35293 3.57342,0.97056 2.86755,1.94111 2.6911,0.74998 2.11758,-0.74998 4.27928,-3.08814 6.04393,-6.13216 2.20581,0.52939 2.73521,1.67642 3.92635,3.13226 2.86756,2.47051 4.54398,4.27928 4.41163,3.57342 3.70576,1.80877 4.19105,1.49995 1.98523,-0.57351 2.86756,-1.05879 2.1617,-1.45584 z"
       id="path43401"
       inkscape:export-filename=".\rzevskiy.svg"
       inkscape:export-xdpi="96"
       inkscape:export-ydpi="96" />
  </g>
</svg>
