<?xml version="1.0" encoding="UTF-8" standalone="no"?>
<!-- Created with Inkscape (http://www.inkscape.org/) -->

<svg
   version="1.1"
   id="svg2"
   width="177.52997"
   height="178.22546"
   viewBox="0 0 177.52997 178.22546"
   sodipodi:docname="map.svg"
   inkscape:version="1.2.2 (732a01da63, 2022-12-09)"
   xmlns:inkscape="http://www.inkscape.org/namespaces/inkscape"
   xmlns:sodipodi="http://sodipodi.sourceforge.net/DTD/sodipodi-0.dtd"
   xmlns="http://www.w3.org/2000/svg"
   xmlns:svg="http://www.w3.org/2000/svg">
  <defs
     id="defs6">
    <linearGradient
       id="linearGradient67598"
       inkscape:swatch="solid">
      <stop
         style="stop-color:#777777;stop-opacity:1;"
         offset="0"
         id="stop67596" />
    </linearGradient>
  </defs>
  <sodipodi:namedview
     id="namedview4"
     pagecolor="#ffffff"
     bordercolor="#111111"
     borderopacity="1"
     inkscape:showpageshadow="0"
     inkscape:pageopacity="0"
     inkscape:pagecheckerboard="1"
     inkscape:deskcolor="#d1d1d1"
     showgrid="false"
     showguides="false"
     inkscape:lockguides="false"
     inkscape:zoom="0.70835525"
     inkscape:cx="1043.2618"
     inkscape:cy="502.57268"
     inkscape:window-width="1920"
     inkscape:window-height="1009"
     inkscape:window-x="-8"
     inkscape:window-y="-8"
     inkscape:window-maximized="1"
     inkscape:current-layer="g8" />
  <g
     inkscape:groupmode="layer"
     inkscape:label="Image"
     id="g8"
     transform="translate(-257.45633,-304.42517)">
    <path
       style="opacity:1;mix-blend-mode:normal;fill:#fafafa;fill-opacity:1;stroke:#000000;stroke-opacity:0.434483"
       d="m 371.08723,458.85722 0.7941,-2.29405 2.20581,-4.01458 2.73521,-2.91168 1.27937,-1.76465 4.5881,-3.35283 4.6322,-1.83083 1.10291,-0.28676 13.63194,-0.30878 6.92625,-0.13235 1.67642,-0.79409 1.85288,-3.08814 0.1323,-2.82344 v -2.31611 l -0.0441,-1.03673 -0.39705,-1.10291 -0.0882,-1.76465 2.1617,-2.38228 1.05879,-0.44116 h 0.88232 0.88233 l 1.76465,1.19114 2.29405,0.44116 h 2.73521 l 1.94111,-0.61763 1.72059,-1.4117 0.0441,-3.35284 -1.67642,-1.41172 -3.44107,-0.39704 -0.70586,-0.48528 -0.70586,-0.48528 -0.88232,-1.63231 0.48528,-1.58818 4.36751,-5.55865 6.52921,-3.35284 1.67642,-1.19114 1.19114,-1.98523 -0.70586,-2.07347 -0.74998,-2.99991 -1.98523,-3.44107 -1.27938,-3.13225 -0.52939,-2.99991 -0.35293,-3.5293 1.45584,-2.24993 v -2.51463 l -1.58819,-1.67642 -1.80877,-1.05879 -1.408,-0.37992 -1.06251,-0.32594 -1.50511,-0.62097 -1.50511,-0.62097 -2.12125,-1.93408 -1.43497,-3.24427 -0.6239,-7.17484 0.071,-3.97683 0.0538,-3.01083 -0.81106,-9.7952 -1.18541,-5.36553 -3.24427,-4.55446 -4.61685,-5.24075 -0.12478,-1.8093 2.37081,-12.2908 -0.99824,-2.18365 -1.87169,-0.56151 -2.68276,0.37434 -9.17131,4.3049 -2.86993,0.87346 h -1.37258 l -1.68453,-2.49559 v -4.05534 l 0.43673,-7.73634 -1.37257,-1.43497 -1.37258,-0.49912 -1.89165,0.30491 -1.80877,1.32349 -2.16169,1.897 -0.44117,2.64697 -0.83821,4.80868 -1.3676,1.49995 -2.73521,2.60286 -2.07347,0.83821 -2.24993,-1.01467 -1.80876,-3.48519 -2.29405,-3.5293 -2.38228,-2.69109 -2.95579,-1.76466 -1.80877,-0.70586 -2.64698,0.17647 -2.51462,1.14702 -3.57342,3.5293 -2.4264,3.52931 -2.07346,0.83821 -6.2204,0.88232 -5.47042,0.35293 -7.23507,1.14703 -2.69109,1.14702 -2.33817,1.72053 -1.1029,3.22049 -0.0882,2.82345 0.83821,2.20581 0.88233,2.86756 -0.30881,2.07346 -1.49996,1.41172 -2.60286,0.88233 -4.94102,0.2647 -4.98514,-0.39705 -4.01458,0.13235 -3.13226,0.83821 -2.47051,1.41172 -2.6911,1.76465 -2.51462,1.49996 -2.29405,2.11758 -2.86756,0.61763 -2.33816,-0.61763 -2.55875,-1.54407 -1.67642,-0.2647 -2.60286,0.70586 -1.6323,1.58819 -0.22058,3.04402 v 4.58809 l -0.0441,3.35284 -1.76465,1.98523 -3.794,1.32349 -4.36751,1.36761 -1.85288,1.54407 -1.10291,5.91158 -1.85289,2.38228 -1.94111,2.91167 -1.897,3.04403 -0.97056,1.27937 -0.22058,1.54407 1.98523,1.67642 2.11758,1.27937 2.82344,0.35293 2.33817,0.74998 1.49995,1.1029 0.17647,2.24993 -0.44117,2.29405 -3.13225,5.91158 -0.66175,2.82345 0.17647,2.9999 0.0441,3.66165 -0.61762,3.52931 -0.7941,2.20581 -2.77932,3.74988 -0.83821,4.19105 -0.79409,4.85279 -0.0441,2.86756 -1.23526,2.38228 0.2647,1.94112 1.54407,5.77923 1.05879,3.22049 2.02935,4.10281 2.02935,4.0587 1.3676,3.48519 3.17638,5.07337 1.1029,0.39705 1.897,-0.13235 c 0,0 1.10291,-0.66175 1.32349,-0.7941 0.22058,-0.13234 1.63231,-1.23525 1.63231,-1.23525 l 1.54407,-0.92644 1.76465,0.17646 1.897,0.66175 2.47051,2.95579 1.58818,1.67642 c 0,0 2.07347,0.44116 2.38228,0.44116 0.30882,0 3.08814,-0.61763 3.30873,-0.79409 0.22058,-0.17647 2.47051,-1.14703 2.69109,-1.14703 0.22058,0 2.95579,-0.22058 2.95579,-0.22058 l 4.45574,0.57351 1.98524,1.76465 1.54407,1.72054 0.57351,1.85288 0.0441,2.07347 0.61763,4.41163 -0.39704,3.97046 -0.13235,0.97056 5.64688,0.0441 3.26461,0.22058 2.11758,1.14702 3.61753,3.08814 3.57342,1.897 2.47051,0.79409 c 0,0 1.19114,0 1.36761,-0.0441 0.17646,-0.0441 1.23526,-1.45584 1.23526,-1.45584 l 1.94111,-3.61753 0.92644,-3.04403 1.94112,-3.2646 2.11758,-2.60286 5.02926,-5.02926 2.24993,-1.58819 1.32349,-0.30881 2.69109,1.01467 2.1617,2.47052 2.73521,3.48518 1.98523,1.72054 2.4264,-1.897 5.91158,-5.42631 3.44107,-2.47051 c 0,0 2.47051,-1.1029 2.82344,-1.1029 0.35293,0 3.39696,-0.13241 3.39696,-0.13241 z"
       id="path46319"
       inkscape:export-filename=".\selizjarovskiy.svg"
       inkscape:export-xdpi="96"
       inkscape:export-ydpi="96" />
  </g>
</svg>
