<?xml version="1.0" encoding="UTF-8" standalone="no"?>
<!-- Created with Inkscape (http://www.inkscape.org/) -->

<svg
   version="1.1"
   id="svg2"
   width="255.23364"
   height="179.112"
   viewBox="0 0 255.23364 179.112"
   sodipodi:docname="map.svg"
   inkscape:version="1.2.2 (732a01da63, 2022-12-09)"
   xmlns:inkscape="http://www.inkscape.org/namespaces/inkscape"
   xmlns:sodipodi="http://sodipodi.sourceforge.net/DTD/sodipodi-0.dtd"
   xmlns="http://www.w3.org/2000/svg"
   xmlns:svg="http://www.w3.org/2000/svg">
  <defs
     id="defs6">
    <linearGradient
       id="linearGradient67598"
       inkscape:swatch="solid">
      <stop
         style="stop-color:#777777;stop-opacity:1;"
         offset="0"
         id="stop67596" />
    </linearGradient>
  </defs>
  <sodipodi:namedview
     id="namedview4"
     pagecolor="#ffffff"
     bordercolor="#111111"
     borderopacity="1"
     inkscape:showpageshadow="0"
     inkscape:pageopacity="0"
     inkscape:pagecheckerboard="1"
     inkscape:deskcolor="#d1d1d1"
     showgrid="false"
     showguides="false"
     inkscape:lockguides="false"
     inkscape:zoom="0.70835525"
     inkscape:cx="1043.2618"
     inkscape:cy="502.57268"
     inkscape:window-width="1920"
     inkscape:window-height="1009"
     inkscape:window-x="-8"
     inkscape:window-y="-8"
     inkscape:window-maximized="1"
     inkscape:current-layer="g8" />
  <g
     inkscape:groupmode="layer"
     inkscape:label="Image"
     id="g8"
     transform="translate(-1430.5243,-262.89871)">
    <path
       style="opacity:1;mix-blend-mode:normal;fill:#fafafa;fill-opacity:1;stroke:#000000;stroke-opacity:0.434483"
       d="m 1501.7012,267.58978 1.3897,1.23525 -0.088,2.4264 -1.1746,2.11741 -0.4136,0.79426 -0.7074,2.52555 -0.087,0.82729 -0.75,1.27937 -2.1617,0.97056 -2.6029,-0.35293 -2.3822,-0.0882 -1.1912,0.48528 -2.2499,3.83811 -1.6323,2.47052 -0.1324,1.41172 0.1324,3.61753 0.75,1.58819 3.441,4.32339 2.4264,0.48528 2.7352,-0.0882 9.9703,-5.9557 2.9999,0.92644 1.8088,2.24994 0.397,3.66165 v 3.48518 l 0.7059,2.33817 1.7205,1.80876 1.9412,1.36761 4.1469,1.98523 2.0293,0.17647 5.2499,-0.2647 11.1574,-1.91002 5.298,-0.64873 10.0143,-0.57351 4.4117,1.10291 4.1028,3.794 2.9117,5.691 2.7352,2.86756 6.8821,2.64698 2.2058,1.76465 4.4557,9.97028 1.6323,2.82344 1.8529,1.49995 3.7058,0.7941 4.4116,-1.05879 3.794,-3.08814 2.3823,-2.77933 3.9263,-3.57342 7.191,-3.794 2.9116,-0.70586 3.3088,-1.897 2.3822,-2.69109 1.1912,-2.24993 -0.088,-5.82335 1.5441,-1.94112 2.5146,-1.72053 14.9996,-6.04394 9.6614,-7.76446 4.1642,-4.75627 1.9965,0.87346 0.9358,1.37257 0.9359,1.74692 1.2478,4.36729 2.3084,1.93408 1.3102,0.87346 -4.9288,6.98766 -1.9965,2.24604 -1.3726,2.55798 -0.1248,2.68276 0.3744,2.74516 3.681,3.86817 2.4332,1.68452 3.1195,1.55975 3.9305,1.49736 4.346,1.49705 0.8324,0.49942 6.1766,2.12126 4.0553,2.49559 1.1854,0.99824 0.2496,0.93585 -4.1801,2.55798 -11.1678,2.55798 -2.1836,1.18541 -1.1231,2.05886 -0.4991,2.4956 -0.7487,5.55269 -2.8075,3.05711 -0.2496,1.55974 0.062,1.93409 -0.1871,5.17836 1.0293,3.55621 0.2808,1.18541 1.0607,2.55799 1.4349,2.12125 2.1213,2.37082 1.1854,1.68452 1.7143,2.56554 0.7499,4.54398 -0.7941,3.35284 -0.1323,3.97046 0.4411,2.11758 1.1471,1.54407 1.5882,0.0882 3.3528,-1.1029 3.7058,-2.02935 2.3381,-0.35293 1.5882,0.79409 0.7059,0.74998 0.4853,1.54407 -0.2206,1.54407 -3.1323,4.49986 -2.2499,1.94112 -1.5441,2.73521 -1.2794,3.22048 0.4412,2.33817 3.044,1.85288 0.353,2.33816 -1.1912,2.29405 -1.4558,1.98523 -0.5294,0.13235 -4.1469,-0.22058 -5.9999,0.0882 -3.2646,0.7941 -3.1763,1.6323 -2.6029,0.44116 c 0,0 -2.2058,0.0441 -2.4264,-0.0441 -0.2206,-0.0882 -1.7646,-0.70587 -1.7646,-0.70587 l -2.8676,-1.76465 -2.6911,-1.41172 -2.5587,-0.97056 h -3.1323 l -3.044,1.05879 -3.044,0.97056 -4.4558,0.13235 -1.4558,-1.6323 -2.7794,-3.26461 -2.7352,-3.08814 c 0,0 -1.897,-1.1029 -2.1175,-1.1029 -0.2206,0 -1.2353,-0.39705 -1.2353,-0.39705 l -1.5441,0.22058 -2.9558,1.23526 -2.8234,2.99991 -3.2205,3.57341 -2.9558,3.08814 -2.647,1.85289 -1.1911,1.14702 -2.2499,0.61763 -3.7058,0.2647 -3.3087,-0.88233 -4.3234,-1.19114 -4.5881,-1.14702 -3.5293,-1.05879 c 0,0 -2.3382,-0.2647 -2.8676,-0.17647 -0.5294,0.0882 -3.1322,0.5294 -3.1322,0.5294 l -2.4264,0.92644 -2.4705,1.19114 c 0,0 -0.4853,1.14702 -0.5735,1.32349 -0.088,0.17646 -0.9264,1.897 -0.9264,1.897 l 0.2205,2.38228 0.8824,2.86756 1.3234,1.94111 c 0,0 0.9706,2.64698 0.9706,2.86756 0,0.22058 0.5735,2.1617 0.5735,2.1617 l -0.397,2.20581 c 0,0 -1.1912,1.10291 -1.3676,1.14703 -0.1765,0.0441 -2.7794,-0.0882 -2.7794,-0.0882 l -1.7646,-0.74997 -3.3087,-1.63231 -2.1176,-2.24993 -1.6764,-3.2646 -1.2794,-3.88223 -1.4558,-5.24984 v -3.44107 l -0.088,-5.20572 c 0,0 0.6617,-4.80868 0.7058,-5.02926 0.044,-0.22058 1.0147,-4.3234 1.0147,-4.3234 l -0.088,-3.39695 -0.4853,-2.77932 -1.4117,-1.32349 -2.2058,-0.13235 -1.8088,0.70586 -4.0587,2.29405 -3.3087,1.98523 -2.9558,1.6323 -1.8529,1.01467 -1.9411,-0.17646 -1.897,-2.60286 -2.1617,-6.13216 -1.5441,-3.794 c 0,0 -1.8087,-2.24994 -2.0293,-2.55875 -0.2206,-0.30881 -1.897,-2.99991 -1.897,-2.99991 l -0.75,-1.05879 -2.9558,-5.4263 0.3529,-11.55847 -1.7646,-1.72053 -3.7058,3.70577 -2.7352,1.32348 -2.5587,-5.38218 c 0,0 -0.1765,-2.86756 -0.5294,-3.5293 -0.353,-0.66175 -2.1176,-5.24984 -2.1176,-5.24984 l -2.647,-2.55875 -2.8234,-1.14702 -2.4705,-0.61763 -3.397,-0.61763 -1.4999,-1.80876 -0.5294,-2.20582 -1.4559,-2.20581 c 0,0 -0.6617,-0.17647 -1.2794,-0.17647 -0.6176,0 -11.779,0.22058 -11.779,0.22058 l -4.2352,-0.30881 c 0,0 -2.2499,-2.4264 -2.3822,-2.64698 -0.1324,-0.22058 -3.1323,-5.5821 -3.1323,-5.5821 l -2.0735,-5.62343 -3.044,-6.26451 -3.6616,-3.26461 -3.0441,-0.97056 -1.1911,0.2647 -1.3676,1.3676 -3.9264,6.04394 -2.4705,5.33807 -1.3676,1.45583 -0.9705,0.17647 -0.9265,-0.35293 -2.5587,-2.24993 -3.2646,-5.07338 -3.7058,-4.10281 -3.9705,-2.73521 0.044,-3.35284 -1.6764,-1.41172 -3.441,-0.39704 -1.4118,-0.97056 -0.8823,-1.63231 c 0,0 0.2647,-1.3676 0.4853,-1.58818 0.2206,-0.22058 1.4999,-2.07347 1.4999,-2.07347 l 2.8676,-3.48518 3.5734,-1.897 c 0,0 2.6911,-1.36761 2.9558,-1.45584 0.2647,-0.0882 1.6764,-1.19114 1.6764,-1.19114 l 1.1912,-1.98523 -0.7059,-2.07347 -0.75,-2.99991 -1.9852,-3.44107 -1.2794,-3.13225 c 0,0 -0.397,-2.55875 -0.5294,-2.99991 -0.1323,-0.44116 -0.3529,-3.5293 -0.3529,-3.5293 l 1.4558,-2.24993 c 0,0 0.088,-2.29405 0,-2.51463 -0.088,-0.22058 -1.5881,-1.67642 -1.5881,-1.67642 0,0 -1.5882,-1.05879 -1.8088,-1.05879 -0.2206,0 -2.4705,-0.70586 -2.4705,-0.70586 l -0.7941,-1.67642 0.7058,-1.98523 2.7794,-2.1617 4.5881,-1.41172 4.4557,-0.30881 3.044,0.30881 2.7794,-2.55875 c 0,0 1.6764,-1.54407 1.897,-1.54407 0.2205,0 4.3234,-0.48527 4.3234,-0.48527 h 4.4116 c 0,0 2.9117,-0.5294 3.0881,-0.5294 0.1765,0 3.4852,0.0441 3.4852,0.0441 0,0 3.0881,0.26469 3.6617,0.39704 0.5735,0.13235 2.6469,0.57351 2.6469,0.57351 0,0 1.4559,0.83821 1.7206,1.19114 0.2647,0.35293 0.8382,0.97056 1.0588,1.54407 0.2205,0.57352 0.8382,2.4264 0.8382,2.4264 0,0 0.3529,1.45584 0.5294,1.54407 0.1764,0.0882 3.044,0.83821 3.3087,0.83821 0.2647,0 3.8381,0.17646 4.3234,0 0.4853,-0.17647 4.0146,-1.27937 4.4557,-1.27937 0.4412,0 2.9117,-0.61763 3.1323,-0.74998 0.2206,-0.13235 2.1176,-0.79409 2.8234,-1.01467 0.7059,-0.22059 2.0735,-0.7941 2.0735,-0.7941 z"
       id="path41849"
       inkscape:export-filename=".\starickiy.svg"
       inkscape:export-xdpi="96"
       inkscape:export-ydpi="96" />
  </g>
</svg>
