<?xml version="1.0" encoding="UTF-8" standalone="no"?>
<!-- Created with Inkscape (http://www.inkscape.org/) -->

<svg
   version="1.1"
   id="svg2"
   width="172.54742"
   height="205.26447"
   viewBox="0 0 172.54742 205.26447"
   sodipodi:docname="map.svg"
   inkscape:version="1.2.2 (732a01da63, 2022-12-09)"
   xmlns:inkscape="http://www.inkscape.org/namespaces/inkscape"
   xmlns:sodipodi="http://sodipodi.sourceforge.net/DTD/sodipodi-0.dtd"
   xmlns="http://www.w3.org/2000/svg"
   xmlns:svg="http://www.w3.org/2000/svg">
  <defs
     id="defs6">
    <linearGradient
       id="linearGradient67598"
       inkscape:swatch="solid">
      <stop
         style="stop-color:#777777;stop-opacity:1;"
         offset="0"
         id="stop67596" />
    </linearGradient>
  </defs>
  <sodipodi:namedview
     id="namedview4"
     pagecolor="#ffffff"
     bordercolor="#111111"
     borderopacity="1"
     inkscape:showpageshadow="0"
     inkscape:pageopacity="0"
     inkscape:pagecheckerboard="1"
     inkscape:deskcolor="#d1d1d1"
     showgrid="false"
     showguides="false"
     inkscape:lockguides="false"
     inkscape:zoom="0.70835525"
     inkscape:cx="1043.2618"
     inkscape:cy="502.57268"
     inkscape:window-width="1920"
     inkscape:window-height="1009"
     inkscape:window-x="-8"
     inkscape:window-y="-8"
     inkscape:window-maximized="1"
     inkscape:current-layer="g8" />
  <g
     inkscape:groupmode="layer"
     inkscape:label="Image"
     id="g8"
     transform="translate(-990.29633,-842.55023)">
    <path
       style="opacity:1;mix-blend-mode:normal;fill:#fafafa;fill-opacity:1;stroke:#000000;stroke-opacity:0.434483"
       d="m 1156.9122,997.42146 -7.362,-2.93233 -3.1819,-2.05886 -2.1836,-1.99648 -2.7452,-1.93408 -1.6221,-2.05887 -0.8735,-2.62037 -0.4367,-2.49559 1.2478,-4.74163 0.4991,-3.0571 -0.1872,-2.93233 -1.1854,-3.18188 -1.6845,-2.4332 -1.0606,-0.99824 0.3743,-3.36905 0.6239,-1.8717 4.6169,-2.4332 5.8754,-2.16837 4.5437,-2.3861 3.681,-2.05886 2.3708,-1.43496 1.8717,-2.55799 1.7469,-4.05534 0.4991,-4.42967 -1.123,-8.6098 -1.3718,-3.74339 -2.558,-2.24604 -3.8057,-2.55798 -2.7452,-1.93409 -1.3726,-2.37081 -1.4349,-4.3049 -0.4368,-10.98061 -7.9235,-11.85407 -0.3743,-3.80579 0.062,-3.49383 0.9982,-4.49207 0.9982,-8.23546 -0.3119,-3.0571 -0.7487,-1.37257 -1.8704,1.78981 -4.0587,-0.0441 -5.7792,-0.44116 -4.4558,-1.36761 -11.6622,-10.0441 -5.3967,-6.30137 -3.1819,-3.36906 c 0,0 -1.8614,-1.2407 -2.3908,-1.2407 -0.5294,0 -0.9706,-0.0882 -1.9411,-0.0882 -0.9706,0 -2.8235,0.0882 -2.8235,0.0882 l -4.4116,2.73521 -3.4411,1.85288 -3.1763,0.53845 h -2.2941 -3.2646 l -2.294,0.78504 -2.2058,1.76465 -1.8529,1.83837 -2.1176,2.04386 -3.6175,0.97056 -3.3528,1.41172 -2.5588,0.2647 -1.9411,-0.5294 -3.7057,-1.76465 -2.3823,-1.49995 -2.4705,0.2647 -4.4999,4.23516 -2.9999,2.1617 -3.2646,1.54407 -2.4705,1.14702 -1.9852,0.66175 -1.5882,0.22058 -1.2353,-1.27938 -1.5441,-3.66165 -1.897,-3.35283 c 0,0 -1.3676,-1.41173 -1.5881,-1.41173 -0.2206,0 -2.4264,-0.0441 -2.4264,-0.0441 l -3.7499,0.61763 -2.4264,1.27937 -1.147,2.42639 -0.3971,1.76466 -0.3088,2.16169 0.4412,4.19105 0.8382,3.35284 0.3088,2.55874 0.4853,2.6911 0.7941,3.08814 c 0,0 0.3529,1.80876 0.4852,2.42639 0.1324,0.61763 0.353,3.5293 0.353,3.5293 l -0.3971,2.55875 -0.5735,6.22039 c 0,0 -0.8382,2.86756 -0.8382,3.17638 0,0.30881 -0.2206,5.82335 -0.2206,5.82335 l 0.1324,3.83811 1.147,2.55875 0.8382,2.42639 1.7646,3.57342 1.8088,3.794 1.5,3.39696 1.0146,3.08814 0.9265,3.5293 0.9264,5.47042 0.1765,4.98514 0.5294,2.38228 1.9852,2.91167 1.6323,1.67642 1.5882,2.11758 1.4117,2.20582 0.7941,1.6323 v 1.897 2.1617 l -1.6764,1.67642 -2.9117,3.57341 -2.0293,1.63231 -3.397,1.49995 c 0,0 -2.9558,1.05879 -3.3969,1.14702 -0.4412,0.0882 -2.9558,0.2647 -3.6176,0.30882 -0.6617,0.0441 -3.3528,-0.44116 -3.6616,-0.44116 -0.3088,0 -4.0587,-0.48528 -4.0587,-0.48528 l -4.544,-0.35293 c 0,0 -1.7646,1.72053 -1.8529,2.02934 -0.088,0.30882 -0.397,1.80877 -0.4853,2.1617 -0.088,0.35293 -0.3088,2.29405 -0.397,2.51463 -0.088,0.22058 -0.1765,1.45584 -0.3088,2.07347 -0.1324,0.61762 -0.6176,2.55874 -0.6176,2.55874 l 0.1323,0.79409 1.3235,0.83821 c 0,0 -0.088,2.1617 -0.088,2.4264 0,0.2647 -0.7941,1.58818 -0.7941,1.58818 0,0 -0.6617,0.83821 -0.7941,1.32349 -0.1323,0.48528 -0.5735,1.58819 -0.6176,1.80877 -0.044,0.22058 -0.1765,1.54407 -0.1765,1.54407 0,0 -0.5294,0.97056 -0.75,1.27937 -0.2205,0.30882 -1.9852,0.97056 -2.1617,0.97056 -0.1764,0 -1.76461,-0.35293 -2.60282,-0.35293 -0.83821,0 -1.85288,-0.22058 -2.38228,-0.0882 -0.52939,0.13235 -1.19114,0.48528 -1.19114,0.48528 0,0 -1.01467,1.32349 -1.3676,2.07346 -0.35293,0.74998 -0.88233,1.76464 -0.88233,1.76464 l -1.6323,2.47052 -0.13235,1.41172 0.13235,3.61753 0.74998,1.58824 1.80876,2.5146 1.63231,1.8087 c 0,0 2.24993,0.3971 2.42639,0.4853 0.17647,0.088 2.64693,0.1765 2.73523,-0.088 0.088,-0.2647 7.8968,-4.7645 7.8968,-4.7645 0,0 1.897,-1.19118 2.0735,-1.19118 0.1764,0 2.9999,0.92648 2.9999,0.92648 l 1.8087,2.2499 c 0,0 0.3971,3.1764 0.3971,3.6617 0,0.4852 0,3.2204 0,3.4851 0,0.2647 0.4411,1.9412 0.7058,2.3382 0.2647,0.397 1.5,1.6764 1.7206,1.8088 0.2206,0.1323 1.9411,1.3676 1.9411,1.3676 l 2.1176,0.9705 2.0293,1.0147 c 0,0 1.7647,0.1765 2.0294,0.1765 0.2647,0 4.9851,-0.2206 5.2498,-0.2647 0.2647,-0.044 3.6175,-0.7059 3.6175,-0.7059 0,0 7.7204,-1.2794 8.1616,-1.2794 0.4411,0 4.4557,-0.5735 4.6763,-0.5735 0.2206,0 4.544,-0.2647 4.941,-0.3088 0.3971,-0.044 5.0734,-0.2647 5.0734,-0.2647 l 4.4116,1.1029 c 0,0 1.9411,1.6323 2.1176,1.8088 0.1765,0.1765 1.897,1.7646 1.9852,1.9852 0.088,0.2206 1.0588,1.897 1.0588,1.897 l 1.8529,3.794 2.7352,2.8676 2.9558,1.3235 3.9263,1.3235 2.2058,1.7646 2.4705,5.1175 1.9852,4.8528 1.6323,2.8234 c 0,0 1.5441,1.4118 1.8529,1.5 0.3088,0.088 2.4264,0.7058 3.7058,0.7941 1.2793,0.088 4.4116,-1.0588 4.4116,-1.0588 0,0 3.5734,-2.8676 3.794,-3.0881 0.2206,-0.2206 1.9411,-2.3382 2.3823,-2.7794 0.4411,-0.4411 3.6616,-3.3969 3.9263,-3.5734 0.2647,-0.1765 2.9558,-1.8088 3.6175,-2.1176 0.6618,-0.3088 3.5735,-1.6764 3.5735,-1.6764 0,0 2.3381,-0.5294 2.9116,-0.7059 0.5736,-0.1764 3.0441,-1.5881 3.3088,-1.897 0.2647,-0.3088 2.3822,-2.691 2.3822,-2.691 l 1.1912,-2.25 -0.044,-2.3823 -0.044,-3.441 c 0,0 1.0588,-1.6323 1.5441,-1.9411 0.4853,-0.3089 1.5882,-1.3235 2.5146,-1.7206 0.9265,-0.397 3.397,-1.4999 4.1029,-1.7646 0.7058,-0.2647 3.9704,-1.4118 4.2792,-1.5 0.3089,-0.088 2.9117,-0.9705 3.4852,-1.1911 0.5735,-0.2206 3.1323,-1.5882 3.1323,-1.5882 l 2.1617,-1.7647 7.4997,-5.9998 2.5588,-2.86754 z"
       id="path38943"
       inkscape:export-filename=".\torjokskiy.svg"
       inkscape:export-xdpi="96"
       inkscape:export-ydpi="96" />
  </g>
</svg>
