<?xml version="1.0" encoding="UTF-8" standalone="no"?>
<!-- Created with Inkscape (http://www.inkscape.org/) -->

<svg
   version="1.1"
   id="svg2"
   width="168.51587"
   height="161.94873"
   viewBox="0 0 168.51587 161.94873"
   sodipodi:docname="map.svg"
   inkscape:version="1.2.2 (732a01da63, 2022-12-09)"
   xmlns:inkscape="http://www.inkscape.org/namespaces/inkscape"
   xmlns:sodipodi="http://sodipodi.sourceforge.net/DTD/sodipodi-0.dtd"
   xmlns="http://www.w3.org/2000/svg"
   xmlns:svg="http://www.w3.org/2000/svg">
  <defs
     id="defs6">
    <linearGradient
       id="linearGradient67598"
       inkscape:swatch="solid">
      <stop
         style="stop-color:#777777;stop-opacity:1;"
         offset="0"
         id="stop67596" />
    </linearGradient>
  </defs>
  <sodipodi:namedview
     id="namedview4"
     pagecolor="#ffffff"
     bordercolor="#111111"
     borderopacity="1"
     inkscape:showpageshadow="0"
     inkscape:pageopacity="0"
     inkscape:pagecheckerboard="1"
     inkscape:deskcolor="#d1d1d1"
     showgrid="false"
     showguides="false"
     inkscape:lockguides="false"
     inkscape:zoom="0.70835525"
     inkscape:cx="1043.2618"
     inkscape:cy="502.57268"
     inkscape:window-width="1920"
     inkscape:window-height="1009"
     inkscape:window-x="-8"
     inkscape:window-y="-8"
     inkscape:window-maximized="1"
     inkscape:current-layer="g8" />
  <g
     inkscape:groupmode="layer"
     inkscape:label="Image"
     id="g8"
     transform="translate(-1584.72,51.215885)">
    <path
       style="opacity:1;mix-blend-mode:normal;fill:#fafafa;fill-opacity:1;stroke:#000000;stroke-opacity:0.434483"
       d="m 1634.3061,108.46224 11.9114,1.76465 8.735,-1.41172 10.3232,-3.17637 2.1176,-0.2647 8.2939,1.32349 1.7646,1.05879 2.647,-0.70586 0.088,-1.67642 -0.7941,-3.17637 -1.5882,-3.088144 -0.1764,-4.14693 1.6764,-3.97047 7.1468,0.0882 11.8232,1.32349 7.0586,2.47051 3.4411,2.91168 0.6176,0.61763 4.4116,-4.76456 3.1764,-4.85279 0.2647,-4.8528 7.3233,-0.17646 5.9998,3.794 1.7647,-0.17647 2.0293,-2.7352 0.4412,-4.94103 2.5587,-2.73521 4.8528,-0.2647 5.2057,1.85289 0.7059,-0.7941 -0.1765,-8.47032 4.4117,-4.3234 0.3529,-2.9999 -4.5881,-5.47042 -6.3528,-5.02926 -4.588,-3.17637 -9.3527,-11.293769 -2.9999,-2.205814 -3.794,-1.411721 -3.5293,-1.323489 -4.0587,-2.382279 -2.8234,-2.646977 -1.7647,-1.676419 -3.0881,-4.852791 -2.4706,-4.235163 -2.294,-2.558745 -2.2058,-1.941116 -2.2941,-0.705861 -0.8823,-0.35293 -1.2352,-1.2352561 -0.2647,-2.470512 0.088,-1.676418 1.9411,-1.588187 v -2.205814 l -3.5293,-4.235163 -3.5293,-3.705768 -3.8822,-3.7939999 -5.6469,-5.029257 -4.2352,-4.14693 -0.2647,-2.294047 1.2353,-4.941024 2.5587,-6.176279 2.0294,-4.411629 -1.5882,-2.029349 -2.1176,-0.441163 -8.2939,-5.558651 -4.6763,-3.970466 -1.147,-1.323488 -5.7351,-0.176466 -3.0882,3.176373 -2.1175,2.823442 -2.2941,2.470512 -2.5587,1.852884 -2.1176,1.058791 -2.0294,0.35293 -2.8234,-0.176465 -2.4705,-0.35293 h -11.2938 l -5.8233,1.941116 -3.1764,1.941116 -2.2941,1.764652 -1.8528,1.323488 -3.2646,0.352931 -1.2353,1.323488 -1.147,2.205814 1.4117,3.08814 3.0881,4.058698 2.2941,3.352838 1.6764,3.617535 -0.088,2.73521 1.6764,1.588186 -1.7647,2.4705119 -2.9116,2.470511 -1.2353,1.147024 -2.3823,-0.35293 -3.9704,-0.08823 -3.4411,0.705861 -1.3235,0.70586 -2.5587,2.117582 -2.2941,1.58818603 -1.7646,1.85288397 -0.9706,2.029349 -0.7941,3.08814 -0.2647,2.8234421 0.2647,1.235256 -0.1765,1.235256 c 0,0 -0.3529,1.941116 -0.5293,2.294046 -0.1765,0.352931 -0.7059,1.852884 -0.7059,1.852884 l -0.9706,2.38228 c 0,0 -1.3235,0.617628 -1.7646,1.147023 -0.4412,0.529395 -2.0294,1.411721 -2.0294,1.411721 l -0.8823,0.794093 c 0,0 -0.1765,1.323489 -0.088,1.852884 0.088,0.529396 0.2647,2.205814 0.2647,2.205814 l 0.5294,2.117582 c 0,0 1.147,1.147023 1.6764,1.588186 0.5294,0.441163 1.2352,1.323489 1.2352,1.323489 l 2.2941,1.147023 1.6764,1.411721 4.2352,3.264604 6.7056,1.67642 5.294,4.146929 12.7937,0.17646 0.088,2.20582 -2.1176,3.5293 -1.3235,4.32339 -0.9706,3.70577 -1.6764,4.76456 0.5294,4.14693 0.6176,4.0587 1.5,2.91167 2.1176,2.02935 3.5293,2.20582 2.2058,2.20581 1.7646,2.82344 1.0588,2.91168 2.9999,5.99981 1.8529,3.88224 v 4.941024 7.49977 z"
       id="path3865"
       inkscape:export-filename="vesegonsk.svg"
       inkscape:export-xdpi="96"
       inkscape:export-ydpi="96" />
  </g>
</svg>
