<?xml version="1.0" encoding="UTF-8" standalone="no"?>
<!-- Created with Inkscape (http://www.inkscape.org/) -->

<svg
   version="1.1"
   id="svg2"
   width="171.66858"
   height="215.49518"
   viewBox="0 0 171.66858 215.49518"
   sodipodi:docname="map.svg"
   inkscape:version="1.2.2 (732a01da63, 2022-12-09)"
   xmlns:inkscape="http://www.inkscape.org/namespaces/inkscape"
   xmlns:sodipodi="http://sodipodi.sourceforge.net/DTD/sodipodi-0.dtd"
   xmlns="http://www.w3.org/2000/svg"
   xmlns:svg="http://www.w3.org/2000/svg">
  <defs
     id="defs6">
    <linearGradient
       id="linearGradient67598"
       inkscape:swatch="solid">
      <stop
         style="stop-color:#777777;stop-opacity:1;"
         offset="0"
         id="stop67596" />
    </linearGradient>
  </defs>
  <sodipodi:namedview
     id="namedview4"
     pagecolor="#ffffff"
     bordercolor="#111111"
     borderopacity="1"
     inkscape:showpageshadow="0"
     inkscape:pageopacity="0"
     inkscape:pagecheckerboard="1"
     inkscape:deskcolor="#d1d1d1"
     showgrid="false"
     showguides="false"
     inkscape:lockguides="false"
     inkscape:zoom="0.70835525"
     inkscape:cx="1043.2618"
     inkscape:cy="502.57268"
     inkscape:window-width="1920"
     inkscape:window-height="1009"
     inkscape:window-x="-8"
     inkscape:window-y="-8"
     inkscape:window-maximized="1"
     inkscape:current-layer="g8" />
  <g
     inkscape:groupmode="layer"
     inkscape:label="Image"
     id="g8"
     transform="translate(-1100.625,-400.2652)">
    <path
       style="opacity:1;mix-blend-mode:normal;fill:#fafafa;fill-opacity:1;stroke:#000000;stroke-opacity:0.434483"
       d="m 1144.832,615.14166 0.088,-2.47052 1.4117,-4.23516 2.0294,-4.23516 2.9999,-2.99991 3.8381,-2.38228 4.8969,-0.70586 5.1175,-1.01467 3.3969,-1.41173 0.7941,-1.98523 0.9706,-3.57342 2.0293,-10.76437 1.4118,-6.2204 2.8234,-6.52921 3.7499,-2.02935 10.7644,-4.10281 1.0146,-2.07346 -0.1323,-1.54407 2.2058,-2.86756 3.3528,-2.33817 4.897,-2.20581 c 0,0 5.0733,-1.10291 5.0733,-1.10291 l 2.2058,-1.80877 0.8383,-1.58818 1.0587,-7.19096 1.2353,-4.14693 1.147,-3.83811 2.25,-3.44107 4.0145,-2.20582 11.735,-4.94102 3.7498,-2.38228 2.1176,-2.60286 1.7206,-5.07337 0.044,-2.38228 -0.3089,-2.11758 -0.8382,-3.08814 -0.4852,-3.74989 0.5294,-4.32339 1.0146,-3.30873 c 0,0 1.5,-1.14702 1.5,-1.14702 l 2.6028,1.54407 3.1196,2.68431 2.9685,2.03613 2.2058,0.0882 2.1471,-1.88934 1.0884,-0.87464 -0.2808,-6.55093 0.4367,-2.99471 1.435,-8.73458 0.6119,-8.90082 0.074,-1.08156 1.7979,-2.79672 3.2802,-4.63324 2.3463,-3.8626 -0.1248,-2.99471 -2.4332,-4.80402 -0.2495,-1.8093 2.3708,-1.37258 3.4314,-1.18541 2.4332,-1.18541 1.3102,-2.74515 0.1248,-2.4332 -1.2056,-3.8984 -0.7285,-2.77732 v -4.92879 l 0.312,-7.4244 -1.7224,-3.14897 -1.3676,-1.6323 h -2.0294 l -3.3087,2.1617 -4.4116,4.58809 -3.5293,4.45574 -2.0294,0.88233 -5.5586,-3.04402 -2.0294,-3.44107 -1.7646,-2.51463 -2.3823,-5.86747 -1.5441,-2.1617 -1.1029,-2.11758 -1.4999,-1.41172 -0.8823,-1.45584 -3.2647,0.17644 -2.2941,0.57351 -1.6764,2.20582 0.088,2.91167 -0.1323,6.35274 0.044,4.36752 -0.7138,3.17333 -2.1212,2.30843 -1.6222,1.68452 -4.4296,2.18365 -2.558,1.37257 -1.6846,1.37258 -1.2478,2.37081 -0.9982,3.24428 -0.8734,2.30842 -2.0589,0.81107 -1.3726,-2.05887 -3.1195,-4.61685 -1.9965,-3.0571 -1.6221,-1.06063 -3.2443,1.80931 -4.5544,4.05534 -2.8076,0.99824 -4.492,-0.56151 -3.7434,-1.31019 -3.8058,-0.0624 -3.9306,0.18717 -2.6203,-0.56151 -3.1819,-2.30842 -2.9323,-0.6239 -2.0589,1.2478 -2.0589,2.62037 -4.0553,3.74339 -1.6222,1.55975 -3.2442,0.81107 -2.7452,-0.31195 -3.3066,-1.2478 c 0,0 -3.2443,-0.18717 -3.8058,-0.24956 -0.5615,-0.0624 -3.993,0.18717 -3.993,0.18717 l -3.2442,0.99824 -3.8058,3.74339 -1.4974,5.24075 -0.4367,2.99471 -1.1854,1.8093 -0.8111,2.86994 -0.8111,1.87169 -2.246,2.4956 -2.4956,2.30842 -0.8734,1.18541 -0.8111,2.24603 -0.062,2.05887 -0.2496,8.79696 0.5615,3.7434 1.9341,2.74515 3.1819,3.99295 1.8717,3.30666 0.7487,2.12126 -1.3102,2.12125 -5.3031,1.49736 -3.1195,2.24603 -0.6239,2.24604 0.3119,5.05357 2.558,4.61685 3.1819,6.92528 1.9965,3.61861 -0.1872,1.99647 -0.1248,3.49383 -2.9947,3.11949 -5.3655,3.80579 -4.8664,4.42967 -3.993,4.67924 -3.3066,4.11773 -3.6811,3.24428 -0.9358,3.61861 1.6845,3.681 3.2443,4.67924 3.1819,3.74339 -0.062,2.93232 -1.3726,6.55093 -1.5597,4.42968 2.3708,4.55446 0.5615,5.61509 0.062,4.55446 2.3708,9.04652 3.4938,7.29962 2.2461,4.05534 5.8022,0.81106 6.3638,0.24956 6.4885,0.31195 h 4.4297 z"
       id="path57227"
       inkscape:export-filename=".\zapadnodvinskiy.svg"
       inkscape:export-xdpi="96"
       inkscape:export-ydpi="96" />
  </g>
</svg>
