<?xml version="1.0" encoding="UTF-8" standalone="no"?>
<!-- Created with Inkscape (http://www.inkscape.org/) -->

<svg
   version="1.1"
   id="svg2"
   width="178.78113"
   height="126.98456"
   viewBox="0 0 178.78113 126.98456"
   sodipodi:docname="map.svg"
   inkscape:version="1.2.2 (732a01da63, 2022-12-09)"
   xmlns:inkscape="http://www.inkscape.org/namespaces/inkscape"
   xmlns:sodipodi="http://sodipodi.sourceforge.net/DTD/sodipodi-0.dtd"
   xmlns="http://www.w3.org/2000/svg"
   xmlns:svg="http://www.w3.org/2000/svg">
  <defs
     id="defs6">
    <linearGradient
       id="linearGradient67598"
       inkscape:swatch="solid">
      <stop
         style="stop-color:#777777;stop-opacity:1;"
         offset="0"
         id="stop67596" />
    </linearGradient>
  </defs>
  <sodipodi:namedview
     id="namedview4"
     pagecolor="#ffffff"
     bordercolor="#111111"
     borderopacity="1"
     inkscape:showpageshadow="0"
     inkscape:pageopacity="0"
     inkscape:pagecheckerboard="1"
     inkscape:deskcolor="#d1d1d1"
     showgrid="false"
     showguides="false"
     inkscape:lockguides="false"
     inkscape:zoom="0.70835525"
     inkscape:cx="1043.2618"
     inkscape:cy="502.57268"
     inkscape:window-width="1920"
     inkscape:window-height="1009"
     inkscape:window-x="-8"
     inkscape:window-y="-8"
     inkscape:window-maximized="1"
     inkscape:current-layer="g8" />
  <g
     inkscape:groupmode="layer"
     inkscape:label="Image"
     id="g8"
     transform="translate(-1233.6521,-640.48462)">
    <path
       style="opacity:1;mix-blend-mode:normal;fill:#fafafa;fill-opacity:1;stroke:#000000;stroke-opacity:0.434483"
       d="m 1411.7781,691.30319 -2.2059,0.13234 -3.8381,1.45584 -4.9851,0.35293 -7.8086,-3.17637 -3.6617,-0.74998 -2.1616,-1.58818 -1.6324,-2.55875 -1.4558,-3.794 -1.4999,-3.35284 -1.8529,-2.02935 -1.9853,-0.52939 -2.3822,1.27937 -3.8382,5.60277 -1.6764,2.82344 -1.9852,1.32349 -2.5588,-0.44116 -2.5146,-0.97056 -2.4705,-1.85288 -1.7205,-2.02935 -1.7647,-1.67642 -4.6322,-1.98524 -0.6617,-2.11758 -0.1324,-16.85242 -0.3529,-2.07346 -3.6617,-0.0882 -4.4557,1.45583 -4.941,2.60286 -5.7793,1.10291 -4.4116,-1.10291 -2.6029,-4.10281 -1.7205,-3.83812 -5.1616,-7.8527 -2.5146,-2.24993 -2.1176,-1.32349 -2.2059,1.80877 -2.1617,2.02935 -1.1911,2.02935 0.829,3.13226 1.5974,2.82344 1.1911,2.29405 1.2353,2.16169 0.6176,1.49996 -0.3088,1.897 -1.2353,2.42639 -1.4117,2.38228 -1.6856,1.72054 -2.2849,1.58818 -3.0881,-0.17646 -3.6616,-0.83821 -2.6029,0.0882 -2.7352,1.32349 -2.6029,2.07347 -2.7352,1.80876 -2.6028,1.67642 -1.2794,1.10291 h -1.5441 l -2.4705,-1.85289 -3.0881,-2.55874 -3.8382,-2.91167 -3.3087,-1.45584 -2.5146,0.0441 -3.794,0.88233 -1.9411,0.97056 -5.1616,2.38228 -1.6323,0.2647 -3.6176,-0.35293 -4.191,-1.10291 -2.9117,-1.54407 -3.3528,-1.85289 -3.7058,-0.17646 -3.6616,0.0882 -0.4853,2.51463 -0.9265,3.88223 0.7941,3.39696 1.8529,2.60286 3.2646,0.70586 5.9998,-1.05879 3.7499,-1.54407 2.3382,0.52939 1.7205,1.49996 1.1029,2.42639 -0.3088,5.29396 1.5,2.9999 2.8234,1.76465 3.1323,0.22059 2.8675,1.05879 1.8088,1.23525 1.4999,1.63231 0.8382,2.69109 -0.2646,2.55874 -0.5736,1.80877 -1.1911,1.01467 c 0,0 -2.647,0.39705 -2.8676,0.39705 -0.2205,0 -2.9557,-1.05879 -2.9557,-1.05879 l -3.8382,-2.24993 -2.9116,-2.33816 -4.0587,-2.51463 -2.9558,-0.74998 -3.1323,0.44117 -2.1617,1.76465 -0.088,2.73521 1.0147,2.64697 3.7058,7.23507 2.1175,2.60286 2.9558,4.49987 1.7647,3.5293 0.2206,3.13225 -0.4412,4.01459 -1.2794,4.58809 -1.1029,3.57342 -0.6617,3.30872 -0.2647,3.39695 0.5294,2.91168 0.7941,3.97046 -0.044,1.05879 3.2646,0.5294 4.1028,1.05879 4.2793,0.57351 2.1617,0.44117 1.7646,1.1029 2.9117,3.48519 1.9411,2.20581 1.5,0.48528 2.7352,-1.14702 1.8087,-1.72054 2.6911,-1.45583 1.3676,-0.35293 2.3823,0.92644 -0.088,2.60286 0.75,4.27928 1.4999,2.11758 2.1176,-0.61763 c 0,0 2.1617,-3.2646 2.3823,-3.5293 0.2206,-0.2647 1.9852,-2.99991 1.9852,-2.99991 l 1.897,-1.41172 2.5147,0.0441 3.8822,0.92644 6.3527,1.897 4.9411,1.27937 4.1028,1.98523 1.9411,2.07347 3.044,1.27937 6.0881,-0.39705 2.3822,-2.77932 3.5294,-5.20572 2.0293,-3.794 2.3823,-3.26461 3.1322,-3.92635 2.0294,-1.19114 2.2058,1.36761 1.4117,2.07346 2.8235,1.80877 3.0881,-0.79409 3.4852,-4.27928 2.2058,-3.13226 3.1323,-1.1029 3.7057,0.35293 4.7646,0.61762 1.4117,-0.44116 -0.088,-1.98523 -1.7646,-2.73521 -1.6324,-1.897 -0.8823,-1.80877 1.3676,-1.27937 2.7794,-0.92644 5.1616,-2.11759 5.5586,-1.45583 c 0,0 3.0882,-1.32349 3.4852,-1.45584 0.397,-0.13235 3.1323,-1.41172 3.1323,-1.41172 l 1.2793,-5.07337 0.7941,-2.29405 1.0588,-2.60286 1.1029,-2.24993 0.1324,-2.29405 0.4411,-3.2646 1.2353,-2.64698 3.5734,-1.23526 7.3233,0.0441 2.0294,-1.45584 1.9411,-2.91167 1.0588,-3.88223 z"
       id="path52863"
       inkscape:export-filename=".\belskiy.svg"
       inkscape:export-xdpi="96"
       inkscape:export-ydpi="96" />
  </g>
</svg>
