<?xml version="1.0" encoding="UTF-8" standalone="no"?>
<!-- Created with Inkscape (http://www.inkscape.org/) -->

<svg
   version="1.1"
   id="svg2"
   width="175.00079"
   height="169.74326"
   viewBox="0 0 175.00079 169.74326"
   sodipodi:docname="map.svg"
   inkscape:version="1.2.2 (732a01da63, 2022-12-09)"
   xmlns:inkscape="http://www.inkscape.org/namespaces/inkscape"
   xmlns:sodipodi="http://sodipodi.sourceforge.net/DTD/sodipodi-0.dtd"
   xmlns="http://www.w3.org/2000/svg"
   xmlns:svg="http://www.w3.org/2000/svg">
  <defs
     id="defs6">
    <linearGradient
       id="linearGradient67598"
       inkscape:swatch="solid">
      <stop
         style="stop-color:#777777;stop-opacity:1;"
         offset="0"
         id="stop67596" />
    </linearGradient>
  </defs>
  <sodipodi:namedview
     id="namedview4"
     pagecolor="#ffffff"
     bordercolor="#111111"
     borderopacity="1"
     inkscape:showpageshadow="0"
     inkscape:pageopacity="0"
     inkscape:pagecheckerboard="1"
     inkscape:deskcolor="#d1d1d1"
     showgrid="false"
     showguides="false"
     inkscape:lockguides="false"
     inkscape:zoom="0.70835525"
     inkscape:cx="1043.2618"
     inkscape:cy="502.57268"
     inkscape:window-width="1920"
     inkscape:window-height="1009"
     inkscape:window-x="-8"
     inkscape:window-y="-8"
     inkscape:window-maximized="1"
     inkscape:current-layer="g8" />
  <g
     inkscape:groupmode="layer"
     inkscape:label="Image"
     id="g8"
     transform="translate(-680.59833,-14.236854)">
    <path
       style="opacity:1;mix-blend-mode:normal;fill:#fafafa;fill-opacity:1;stroke:#000000;stroke-opacity:0.434483"
       d="m 774.32968,183.4611 7.11244,-0.81106 3.24427,-0.6239 2.18364,-1.2478 0.81107,-2.05886 0.0624,-1.43497 -2.12125,-3.43144 -2.93232,-2.93233 -3.86818,-3.99295 -2.55798,-4.49206 0.68629,-2.37082 1.62213,-2.24603 1.43497,-1.62214 7.42439,-5.36553 4.77283,-2.37081 2.15245,-0.93585 3.49383,-0.93585 4.9288,-4.61684 1.12301,-2.93233 0.24956,-2.18364 2.80754,-4.24251 2.30843,-2.30843 4.2737,-0.96704 5.02239,-1.09182 4.42968,-1.46616 1.68452,-0.77987 3.74339,-2.43321 2.15245,-3.86817 0.84226,-1.74692 -1.68454,-2.93232 -0.6239,-2.55798 0.24956,-3.0571 1.31019,-2.99472 1.8093,-2.49559 3.24427,-2.05887 2.68277,-2.495586 1.8093,-2.12125 0.81107,-2.55799 -0.31195,-4.74163 -6.23898,-19.90236 0.12478,-6.05181 0.74867,-3.43144 1.49736,-4.67924 2.24604,-2.37082 2.62037,-1.62213 3.43144,-0.81107 6.7381,-0.49912 1.49736,0.18717 0.4863,-1.56629 1.23525,-1.85289 v -3.70576 l -2.38228,-1.27938 -3.88223,-0.57351 -1.80877,-0.0441 -1.72053,1.23525 h -2.11758 l -1.80877,-1.72053 -1.76465,-1.19114 -1.897,-0.44117 -1.27937,0.61763 -1.80877,0.61763 -4.36751,-0.0441 -0.48528,-1.67642 0.13235,-1.6323 1.72053,-2.77932 1.45584,-2.20582 -0.39705,-1.85288 -1.45584,-0.22058 -3.88223,-0.30882 -8.77914,0.17647 -5.4263,-5.91158 -1.23526,-0.5294 -2.77932,1.76465 -2.51463,1.58819 -1.94112,-0.0882 -2.38228,-1.85289 -2.07346,-3.13225 -1.80877,-1.58819 c 0,0 -1.80877,-0.13235 -1.98523,-0.13235 -0.17647,0 -1.45584,0.97056 -1.45584,0.97056 l -2.29405,1.01467 -1.98523,-0.79409 -0.70586,-1.41172 -2.07347,-2.99991 -2.29404,-1.897 -1.41172,-0.48528 -1.98524,0.17647 -2.02935,1.6323 -1.14702,0.79409 -1.94112,-1.01467 -1.23525,-1.19114 c 0,0 -1.36761,-0.48528 -1.80877,-0.48528 -0.44116,0 -2.99991,0.83821 -2.99991,0.83821 l -1.23525,1.58819 -1.01468,1.32348 -1.32349,0.92645 -2.11758,0.66174 c 0,0 -0.79409,0.44116 -1.01467,0.48528 -0.22058,0.0441 -2.47051,0.13235 -2.47051,0.13235 l -1.67642,-0.83821 -2.07347,-1.6323 -2.55874,-1.85289 -4.23517,-0.0882 -1.85288,0.74998 -0.74998,2.20581 -1.45583,3.30872 -1.54407,2.1617 -1.58819,2.4264 -2.51463,1.98523 -3.70577,2.38228 -5.11748,3.04402 -3.61754,0.92644 -1.897,0.30882 -2.1617,-0.83821 -2.42639,-1.80877 -1.45584,-1.80877 c 0,0 -1.41172,-1.1029 -1.58819,-1.1029 -0.17646,0 -2.64697,-0.17647 -2.64697,-0.17647 l -2.29405,0.2647 -0.39705,1.27937 -2.07346,-1.67642 -2.02935,-1.85288 -1.23526,-0.74998 -3.08814,1.27937 -1.41172,2.33817 -1.27937,2.33816 -0.30882,2.02935 -1.14702,1.94111 -2.20581,2.20582 -1.23526,1.49995 -2.24993,0.30882 -5.29395,-0.2647 -3.17638,0.52939 -0.57351,2.33817 0.17647,3.04402 0.92644,1.27937 0.83821,1.85289 0.2647,2.11758 -1.72054,1.897 -3.39695,3.74988 -2.60286,2.1617 -0.30882,2.1617 -0.0882,2.73521 1.19114,1.32349 1.41172,1.49995 0.48528,1.98523 0.22058,1.58819 -0.0441,2.02935 1.45583,0.70586 2.60286,0.17646 c 0,0 0.70586,-1.1029 0.92645,-1.27937 0.22058,-0.17646 2.16169,-1.32349 2.16169,-1.32349 l 1.80877,-0.74997 0.97056,0.70586 0.79409,3.08814 c 0,0 0.57351,2.47051 0.74998,2.77932 0.17646,0.30882 1.10291,2.77933 1.10291,2.77933 l 2.33816,0.79409 5.55865,-0.22058 0.2647,1.6323 -0.30881,2.6911 -0.88233,2.55874 -0.35293,2.33816 -0.66175,3.30872 0.5294,2.29405 0.97056,3.57342 0.97056,1.191136 0.66174,1.6323 -0.17646,4.45575 -0.74998,1.6323 -1.85288,1.85288 -1.72054,1.14703 -3.17637,1.01467 -5.42631,1.6323 -3.44107,1.14703 -1.49995,1.14702 -1.32349,1.49995 -1.19114,4.80868 -0.97056,3.57342 -0.70586,4.19105 -0.88232,4.41162 0.66174,3.97047 1.80877,7.27919 2.07347,4.05869 2.16169,3.04403 1.27938,1.6323 2.42639,2.60286 2.86756,2.77933 3.04402,2.69109 3.57342,1.67642 3.66165,-0.2647 2.02935,-1.19114 3.04403,-0.92644 1.27937,-0.0882 2.91167,0.92644 2.29405,2.20581 2.69109,0.97056 2.1617,0.13235 3.39696,-1.85288 4.19104,-1.94112 5.77924,-3.08814 2.33816,-1.14702 3.44107,-0.5294 2.95579,1.19114 1.67642,2.91168 1.54407,5.77923 1.14702,4.23516 1.76465,6.4851 2.33817,2.47051 1.80876,1.3676 2.95579,-0.61763 2.99991,-1.32348 3.794,0.39704 3.88223,1.14703 3.66166,0.70586 z"
       id="path44137"
       inkscape:export-filename=".\bologovskiy.svg"
       inkscape:export-xdpi="96"
       inkscape:export-ydpi="96" />
  </g>
</svg>
