<?xml version="1.0" encoding="UTF-8" standalone="no"?>
<!-- Created with Inkscape (http://www.inkscape.org/) -->

<svg
   version="1.1"
   id="svg2"
   width="247.66821"
   height="213.9436"
   viewBox="0 0 247.66821 213.9436"
   sodipodi:docname="map.svg"
   inkscape:version="1.2.2 (732a01da63, 2022-12-09)"
   xmlns:inkscape="http://www.inkscape.org/namespaces/inkscape"
   xmlns:sodipodi="http://sodipodi.sourceforge.net/DTD/sodipodi-0.dtd"
   xmlns="http://www.w3.org/2000/svg"
   xmlns:svg="http://www.w3.org/2000/svg">
  <defs
     id="defs6">
    <linearGradient
       id="linearGradient67598"
       inkscape:swatch="solid">
      <stop
         style="stop-color:#777777;stop-opacity:1;"
         offset="0"
         id="stop67596" />
    </linearGradient>
  </defs>
  <sodipodi:namedview
     id="namedview4"
     pagecolor="#ffffff"
     bordercolor="#111111"
     borderopacity="1"
     inkscape:showpageshadow="0"
     inkscape:pageopacity="0"
     inkscape:pagecheckerboard="1"
     inkscape:deskcolor="#d1d1d1"
     showgrid="false"
     showguides="false"
     inkscape:lockguides="false"
     inkscape:zoom="0.70835525"
     inkscape:cx="1043.2618"
     inkscape:cy="502.57268"
     inkscape:window-width="1920"
     inkscape:window-height="1009"
     inkscape:window-x="-8"
     inkscape:window-y="-8"
     inkscape:window-maximized="1"
     inkscape:current-layer="g8" />
  <g
     inkscape:groupmode="layer"
     inkscape:label="Image"
     id="g8"
     transform="translate(-1338.5658,-759.74255)">
    <g
       id="g11049"
       style="opacity:1;mix-blend-mode:normal;fill:#fafafa;fill-opacity:1;stroke:#000000;stroke-opacity:0.434483"
       inkscape:export-filename="kalininskiy.svg"
       inkscape:export-xdpi="96"
       inkscape:export-ydpi="96"
       transform="translate(282.70459,239.23234)">
      <path
         style="display:inline;fill:#fafafa;fill-opacity:1;stroke:#000000;stroke-opacity:0.434483"
         d="m 1189.9,731.9585 2.1669,-7.0389 0.8382,-7.8527 3.8381,-6.044 9.1321,-8.2497 3.7058,-4.941 1.4117,-9.5291 1.4999,-3.1764 -7.8527,-13.0584 -0.088,-13.5878 -5.2939,-4.4999 -2.0294,-2.7352 -1.3235,-4.4116 1.2353,-2.2059 3.6175,-2.4705 8.9115,-3.794 2.4705,-2.4705 3.5293,-4.5881 2.1176,-3.3528 4.8528,-2.7352 3.3528,-2.5588 1.4117,-3.7057 -0.1764,-3.6176 2.1176,-2.8234 5.8233,0.088 5.2057,2.3823 1.7647,2.8234 -3.1764,10.5879 -0.5294,2.2941 1.4117,2.8234 1.6764,1.6764 2.8235,1.4117 2.0293,1.2353 2.9117,1.8529 2.1176,0.9705 2.8234,0.353 3.2646,-0.088 3.1764,-0.7059 0.5294,-1.5882 -0.2647,-3.0881 -4.6763,-7.9409 0.1765,-0.8824 0.1764,-0.8823 1.7647,-1.2353 4.8528,1.8529 4.7645,0.353 3.8823,-0.5294 3.5293,-1.2353 1.0587,-1.8529 -0.2647,-4.1469 -1.147,-4.7646 -1.9411,-2.4705 -2.3823,-3.794 -0.1764,-2.294 0.3529,-3.0882 2.9468,-3.5293 2.6118,-2.7352 3.794,-3.2646 10.588,-7.2351 1.6764,-1.6764 1.6764,-2.294 0.7059,-4.0587 1.7646,-3.9705 2.9999,-2.2058 2.2058,-0.6176 0.9704,-2.2058 0.1764,-2.5588 -2.294,-3.6175 -0.3529,-3.5293 0.3529,-4.0587 0.9706,-2.9117 1.147,-1.6764 -1.6764,-3.4411 -2.1176,-1.147 -2.9999,0.1765 -4.941,1.4117 -3.7058,1.4117 -0.9706,-0.3529 -7.5637,-0.1352 -5.0184,0.6863 -4.3401,1.3726 -2.1836,1.2478 -4.6169,4.804 -3.2443,1.7469 -4.1177,0.4368 -2.8075,1.9341 -2.4332,2.0588 -2.7452,0.062 -4.4297,-2.3708 -3.9929,-2.9947 -3.3691,-3.1195 -1.9965,-4.1801 -0.6862,-2.558 0.7486,-2.0589 3.0571,-4.0553 0.7487,-2.246 -0.9982,-2.7452 -2.1213,-0.9982 -4.5544,0.1247 -3.1819,0.3744 -4.8664,0.2495 -4.4921,0.4992 -3.5562,-0.3744 -3.2443,-0.811 -2.1212,-0.9983 c 0,0 -3.4939,-2.8699 -3.6187,-3.1819 -0.1247,-0.3119 -2.8699,-4.0553 -3.5562,-4.3673 -0.6863,-0.3119 -3.8058,-1.8093 -3.8058,-1.8093 l -2.6827,-0.1871 -3.1195,0.7487 -2.558,1.5597 -5.116,2.0589 -3.9929,1.4973 c 0,0 -1.8093,0.1248 -2.1837,0.1248 -0.3743,0 -2.3708,-0.4991 -2.7451,-0.7487 -0.3744,-0.2495 -2.4332,-1.6845 -2.4332,-1.6845 l -2.3708,-2.8699 c 0,0 -1.9341,-2.0589 -2.1837,-2.2461 -0.2495,-0.1871 -1.7469,-1.1854 -1.7469,-1.1854 l -2.1836,-0.1871 -3.3067,0.5615 -1.9341,1.5597 -4.2425,0.2496 -2.4956,-1.1854 -2.246,-0.9359 -2.1837,-0.9358 -2.0588,-0.312 -4.804,0.9983 -1.8717,1.4349 -3.6187,2.3708 -2.4332,1.6846 -2.1212,1.9964 -1.5598,2.1213 -1.7469,3.0571 -0.8734,4.1801 -0.9983,1.435 -2.558,0.7487 -6.2389,7.6739 -2.9948,1.6221 -3.8057,1.2478 -3.8682,0.4368 -2.1213,1.123 -1.6221,3.8682 -1.5597,2.8075 -1.747,2.1836 -0.6862,1.4974 c 0,0 -0.4368,0.6239 -0.8111,0.6239 -0.3744,0 -4.3673,-0.2496 -4.3673,-0.2496 0,0 -2.6828,-1.123 -2.9947,-1.3101 -0.312,-0.1872 -2.8076,-1.9341 -3.1195,-1.9341 -0.312,0 -4.1177,-2.0589 -4.1177,-2.0589 l -1.435,-0.6239 1.123,8.6098 -0.4991,4.4297 -1.7469,4.0553 c 0,0 -1.5598,2.3084 -1.8717,2.558 -0.312,0.2496 -2.3708,1.435 -2.3708,1.435 l -7.362,4.1177 -3.6186,1.3726 -3.1195,1.123 -4.6169,2.4332 -0.6239,1.8717 -0.3743,3.369 1.0606,0.9983 1.6845,2.4332 c 0,0 1.1231,2.3708 1.1854,3.1819 0.062,0.811 0.1872,2.0588 0.1872,2.9323 0,0.8734 -0.4991,3.0571 -0.4991,3.0571 l -1.2478,4.7416 0.4367,2.4956 0.8735,2.6204 1.6221,2.0589 2.7452,1.934 2.1836,1.9965 3.1819,2.0589 2.8699,1.2478 2.3085,0.9358 2.1836,0.7487 1.9965,0.8735 0.9358,1.3725 0.9359,1.747 1.2478,4.3672 2.3084,1.9341 1.3102,0.8735 -0.7487,1.2478 c 0,0 -1.8093,2.4956 -2.4332,3.2443 -0.6239,0.7486 -1.7469,2.4955 -1.7469,2.4955 l -1.9965,2.2461 -1.3726,2.558 c 0,0 -0.1248,2.246 -0.1248,2.6827 0,0.4368 0.3744,2.7452 0.3744,2.7452 l 2.1212,2.3084 1.5598,1.5598 c 0,0 2.1836,1.4973 2.4332,1.6845 0.2496,0.1871 3.1195,1.5597 3.1195,1.5597 l 3.9305,1.4974 3.1195,1.123 c 0,0 1.9965,0.4991 2.0589,0.8735 0.062,0.3743 3.993,1.3725 3.993,1.3725 l 2.1836,0.7487 1.9341,1.2478 2.1212,1.2478 1.1854,0.9982 0.2496,0.9359 -1.7469,1.123 -2.4332,1.435 -3.2443,0.7487 c 0,0 -3.8058,0.7486 -4.1801,0.8734 -0.3743,0.1248 -3.7434,0.9359 -3.7434,0.9359 l -2.1836,1.1854 -1.1231,2.0588 c 0,0 -0.4367,1.9341 -0.4991,2.4956 -0.062,0.5615 -0.062,2.1837 -0.1871,2.9323 -0.1248,0.7487 -0.1872,2.1837 -0.5616,2.6204 -0.3743,0.4367 -0.1247,0.1872 -0.811,0.7487 -0.6863,0.5615 -1.9965,2.3084 -1.9965,2.3084 0,0 -0.2496,0.8735 -0.2496,1.5598 0,0.6863 0.062,1.9341 0.062,1.9341 l -0.1871,5.1783 0.7486,2.3708 0.5615,2.3708 1.0607,2.558 1.4349,2.1213 2.1213,2.3708 0.7487,1.0606 0.4367,0.6239 1.6221,0.062 2.7452,-0.3119 1.3102,0.1871 1.6845,0.6863 c 0,0 0.9982,0.4991 1.3102,1.3726 0.3119,0.8735 1.6845,2.7452 1.8717,3.1195 0.1872,0.3743 1.435,1.3726 1.435,1.3726 0,0 2.6203,0.2495 2.9323,0.2495 0.3119,0 1.1854,0.312 1.9341,0 0.7486,-0.3119 1.1854,-0.3743 1.7469,-0.811 0.5615,-0.4368 1.5597,-1.747 1.9341,-2.2461 0.3743,-0.4991 1.1854,-1.1854 1.3101,-2.3084 0.1248,-1.123 0.9983,-3.7434 0.9983,-3.7434 l 2.9947,-3.1819 c 0,0 2.3708,-1.4349 2.8075,-1.4349 0.4368,0 1.9341,0 1.9341,0 l 2.1213,1.3725 2.0588,1.5598 1.9341,1.3102 2.4956,1.9341 2.1213,3.4314 1.3102,2.1837 1.6845,1.934 2.6828,2.3709 1.1854,1.934 1.3725,2.4332 1.1231,2.1213 2.1836,0.4991 3.2443,-0.811 1.2478,-1.2478 c 0,0 0.9982,-0.4992 1.5597,-0.6863 0.5615,-0.1872 1.5598,-0.5615 1.5598,-0.5615 l 1.8093,0.4991 2.9947,2.1212 2.7451,1.8717 3.0571,1.5598 2.8076,1.123 c 0,0 3.8058,0.062 4.3673,0.062 0.5615,0 4.492,-0.1872 4.8664,-0.1872 0.3743,0 3.369,-0.1248 4.4297,-0.1872 1.0606,-0.062 6.7381,-0.3743 6.7381,-0.3743 z"
         id="path34581"
         inkscape:label="path34581" />
    </g>
  </g>
</svg>
