<?xml version="1.0" encoding="UTF-8" standalone="no"?>
<!-- Created with Inkscape (http://www.inkscape.org/) -->

<svg
   version="1.1"
   id="svg2"
   width="150.21478"
   height="130.20312"
   viewBox="0 0 150.21478 130.20312"
   sodipodi:docname="map.svg"
   inkscape:version="1.2.2 (732a01da63, 2022-12-09)"
   xmlns:inkscape="http://www.inkscape.org/namespaces/inkscape"
   xmlns:sodipodi="http://sodipodi.sourceforge.net/DTD/sodipodi-0.dtd"
   xmlns="http://www.w3.org/2000/svg"
   xmlns:svg="http://www.w3.org/2000/svg">
  <defs
     id="defs6">
    <linearGradient
       id="linearGradient67598"
       inkscape:swatch="solid">
      <stop
         style="stop-color:#777777;stop-opacity:1;"
         offset="0"
         id="stop67596" />
    </linearGradient>
  </defs>
  <sodipodi:namedview
     id="namedview4"
     pagecolor="#ffffff"
     bordercolor="#111111"
     borderopacity="1"
     inkscape:showpageshadow="0"
     inkscape:pageopacity="0"
     inkscape:pagecheckerboard="1"
     inkscape:deskcolor="#d1d1d1"
     showgrid="false"
     showguides="false"
     inkscape:lockguides="false"
     inkscape:zoom="0.70835525"
     inkscape:cx="1043.2618"
     inkscape:cy="502.57268"
     inkscape:window-width="1920"
     inkscape:window-height="1009"
     inkscape:window-x="-8"
     inkscape:window-y="-8"
     inkscape:window-maximized="1"
     inkscape:current-layer="g8" />
  <g
     inkscape:groupmode="layer"
     inkscape:label="Image"
     id="g8"
     transform="translate(-449.80511,-218.42828)">
    <path
       style="opacity:1;mix-blend-mode:normal;fill:#fafafa;fill-opacity:1;stroke:#000000;stroke-opacity:0.434483"
       d="m 500.21418,347.67542 -0.79409,-1.67642 0.70586,-1.98523 2.77932,-2.16171 4.5881,-1.41171 4.45574,-0.30881 3.04403,0.30881 4.67632,-4.10282 c 0,0 4.3234,-0.48527 4.3234,-0.48527 h 4.41163 l 3.08814,-0.5294 3.48518,0.0441 3.66165,0.39703 2.64698,0.57352 1.72054,1.19113 1.05879,1.54408 0.83821,2.42639 0.52939,1.54408 3.30872,0.8382 h 4.3234 l 4.45574,-1.27936 4.38423,-1.23212 3.64494,-1.32663 1.0808,-0.52934 0.55146,-2.95579 0.30881,-2.07347 0.88233,-4.67633 1.85288,-2.02935 4.54398,0.35293 4.0587,0.48528 3.66165,0.44116 3.61753,-0.30882 3.39696,-1.14702 3.39695,-1.49995 2.02935,-1.6323 2.91168,-3.57341 1.67642,-1.67642 v -4.05871 l -2.20582,-3.83812 -1.58819,-2.11757 -1.6323,-1.67642 -1.98523,-2.91167 -0.5294,-2.38228 -0.14538,-4.10707 -0.0311,-0.87807 -0.73292,-4.32773 -1.11997,-4.672 -1.76465,-4.78662 -4.32339,-9.06589 -0.83821,-2.4264 -1.14702,-2.55874 -0.13235,-3.83812 0.22058,-5.82334 0.83821,-3.17639 0.46021,-4.99153 0.51035,-3.7876 -0.35293,-3.52931 -0.88235,-3.97047 -2.6419,1.01021 -3.36905,0.6239 -1.43497,-0.49912 -4.67924,-4.3049 0.12478,-2.18364 0.81107,-2.74516 0.99824,-4.42967 -0.43673,-3.7434 -3.0571,-2.49559 -4.24251,-2.05886 -2.12126,-0.49912 -1.62213,1.31018 -1.80931,2.86994 -1.68452,4.55446 -2.4956,1.49735 -4.05534,-2.74515 -3.24427,-0.93585 -3.0571,0.37434 -6.48855,3.24427 -5.92703,1.99648 -4.55446,-0.24956 -6.05182,-0.93585 -4.30489,-1.31019 0.22807,5.9198 -1.45583,2.51463 -3.70577,2.73521 -3.04402,2.02935 -3.66165,1.38966 h -2.36023 l -2.55874,-0.0221 -2.09552,-0.57352 -2.77933,-2.29405 -3.71007,-3.214 -1.55975,-1.99647 -0.6239,-2.24604 0.68629,-1.55974 c 0,0 1.31019,-1.18541 1.68453,-1.37258 0.37434,-0.18717 1.68452,-0.74868 1.68452,-0.74868 l 3.11949,0.18717 2.05887,0.6239 h 1.8717 l 1.62213,-0.12478 0.87346,-0.99824 0.0624,-1.55974 -1.06063,-1.68453 -1.31019,-1.18541 -2.80754,-1.93408 -2.44231,-1.43497 -2.73605,0.31195 -3.49383,1.31019 c 0,0 -1.93408,0.81107 -2.18364,0.93585 -0.24956,0.12478 -3.43144,1.49735 -3.43144,1.49735 l -3.74339,0.18717 -3.05711,0.24956 -2.30842,-1.31019 -5.24075,-1.8093 c 0,0 -1.99647,-0.24956 -2.99471,-0.24956 -0.99824,0 -4.18012,1.43497 -4.18012,1.43497 l -5.67748,5.61508 -3.36905,4.49207 -2.30842,3.93056 -0.37434,1.06063 3.99295,2.43321 4.3049,2.30842 3.86817,1.93409 2.99471,2.18365 1.06063,1.7469 -1.06063,5.5527 -1.99647,7.29961 -0.99824,3.74339 -0.31195,5.05358 0.31195,3.61861 1.37258,0.49912 1.37257,1.43497 -0.12478,2.18364 -0.31195,5.5527 v 4.05534 l 1.68453,2.49559 h 1.37258 l 2.86993,-0.87346 3.93056,-1.87169 5.24075,-2.43321 2.68276,-0.37434 1.87169,0.56151 0.99824,2.18365 -0.6239,3.61861 -1.06062,4.9288 -0.68629,3.74339 0.12478,1.8093 4.61685,5.24075 3.24427,4.55446 1.18541,5.36553 0.81106,9.7952 -0.12478,6.98766 0.6239,7.17485 1.43497,3.24426 2.12125,1.93408 z"
       id="path45591"
       inkscape:export-filename=".\kuvshinovskiy.svg"
       inkscape:export-xdpi="96"
       inkscape:export-ydpi="96" />
  </g>
</svg>
