<?xml version="1.0" encoding="UTF-8" standalone="no"?>
<!-- Created with Inkscape (http://www.inkscape.org/) -->

<svg
   version="1.1"
   id="svg2"
   width="158.39294"
   height="121.18637"
   viewBox="0 0 158.39294 121.18637"
   sodipodi:docname="map.svg"
   inkscape:version="1.2.2 (732a01da63, 2022-12-09)"
   xmlns:inkscape="http://www.inkscape.org/namespaces/inkscape"
   xmlns:sodipodi="http://sodipodi.sourceforge.net/DTD/sodipodi-0.dtd"
   xmlns="http://www.w3.org/2000/svg"
   xmlns:svg="http://www.w3.org/2000/svg">
  <defs
     id="defs6">
    <linearGradient
       id="linearGradient67598"
       inkscape:swatch="solid">
      <stop
         style="stop-color:#777777;stop-opacity:1;"
         offset="0"
         id="stop67596" />
    </linearGradient>
  </defs>
  <sodipodi:namedview
     id="namedview4"
     pagecolor="#ffffff"
     bordercolor="#111111"
     borderopacity="1"
     inkscape:showpageshadow="0"
     inkscape:pageopacity="0"
     inkscape:pagecheckerboard="1"
     inkscape:deskcolor="#d1d1d1"
     showgrid="false"
     showguides="false"
     inkscape:lockguides="false"
     inkscape:zoom="0.70835525"
     inkscape:cx="1043.2618"
     inkscape:cy="502.57268"
     inkscape:window-width="1920"
     inkscape:window-height="1009"
     inkscape:window-x="-8"
     inkscape:window-y="-8"
     inkscape:window-maximized="1"
     inkscape:current-layer="g8" />
  <g
     inkscape:groupmode="layer"
     inkscape:label="Image"
     id="g8"
     transform="translate(-1688.455,-98.190613)">
    <path
       style="opacity:1;mix-blend-mode:normal;fill:#fafafa;fill-opacity:1;stroke:#000000;stroke-opacity:0.434483"
       d="m 1788.156,101.15631 -0.056,2.54901 0.062,4.67924 0.8735,4.74163 3.4314,4.49207 4.0554,3.30666 4.9911,5.73987 1.9341,1.49735 2.8076,1.68453 3.9305,0.6239 1.8717,1.24779 2.4956,3.55622 2.0589,5.24075 4.6168,10.10716 5.7399,0.99823 2.4332,-0.0624 5.8647,1.12302 4.3049,2.37082 0.811,5.05357 0.4991,2.86994 v 5.17835 l 1.747,4.3049 1.3101,2.74516 2.1213,1.74691 -0.6863,0.56151 -0.6239,3.11949 -2.4332,2.12126 -5.4903,0.37434 -3.8682,-1.31019 -3.1819,-1.80931 -1.3101,0.37434 -1.0607,2.80755 -5.3031,2.55798 -4.7416,2.86993 -4.9912,4.42968 -2.87,2.86994 -2.4955,1.99647 -4.3673,0.68629 -8.6098,-1.68453 -3.4315,0.24956 -2.246,1.55975 -2.6204,4.24251 -1.6845,4.24251 -1.4974,3.55622 -1.9964,4.3049 -2.4956,2.62037 -1.8093,1.18541 h -8.9842 l -5.3031,-1.68453 -2.6828,-2.12125 -3.4938,-5.49031 -1.2478,-2.49559 -1.3726,-1.31019 -1.5597,-0.56151 h -1.2478 c 0,0 -1.0607,0.81107 -1.435,0.99824 -0.3743,0.18717 -2.3708,0.99824 -2.6204,1.06063 -0.2495,0.0624 -1.4973,0.24956 -1.4973,0.24956 l -1.123,-0.31195 -1.747,-1.93409 c 0,0 -0.5615,-0.43673 -0.811,-0.43673 -0.2496,0 -0.4368,-0.18717 -1.1854,-0.18717 -0.7487,0 -2.1213,0.0624 -2.1213,0.0624 l -2.1212,1.55975 -2.0589,1.31019 c 0,0 -1.6221,0.43673 -1.9341,0.43673 -0.3119,0 -2.246,-0.0624 -2.246,-0.0624 l -1.3102,-0.99824 -1.0606,-0.99824 -1.6846,-0.49912 c 0,0 -1.4973,-0.43673 -1.8717,-0.43673 -0.3743,0 -3.2442,0 -3.4938,0 -0.2495,0 -3.9306,-0.12478 -4.1801,-0.12478 -0.2496,0 -2.9323,-0.49912 -2.9323,-0.49912 l -1.9965,-1.43496 -0.2496,-1.80931 1.5598,-4.05534 4.1177,-7.11244 0.6863,-1.49736 0.3743,-1.99647 -1.4349,-0.74868 -1.5598,-0.56151 c 0,0 -1.8717,-0.0624 -2.246,0.0624 -0.3743,0.12478 -1.2478,0.49912 -1.4974,0.6239 -0.2495,0.12478 -2.4956,0.24956 -2.4956,0.24956 l -2.4332,-0.18717 -1.9341,-0.37434 -2.3084,-2.37081 c 0,0 -6.9252,-13.28904 -7.2372,-13.72577 -0.3119,-0.43673 -4.4921,-5.24075 -4.4921,-5.24075 l -0.6863,-1.12301 1.435,-1.43497 2.9947,-0.24956 5.7399,-1.2478 5.927,-2.49559 3.0571,-2.80754 1.8717,-4.11773 c 0,0 0.8735,-0.18717 0.8735,-1.37258 0,-1.18541 -0.1248,-4.80402 -0.1248,-4.80402 l -1.8093,-1.8093 0.1248,-4.05534 2.3708,-1.99648 2.558,-2.30842 0.6239,-1.62214 v -3.55622 l -1.435,-2.80754 -1.2478,-2.62038 -0.8111,-1.87169 c 0,0 0.5616,-2.55799 0.8735,-2.74516 0.3119,-0.18717 3.1819,-2.86993 3.1819,-2.86993 l 1.9341,-2.05886 1.3102,-1.18541 5.3031,-0.0624 3.8682,1.12302 4.3049,0.12478 3.3066,0.43673 h 3.1195 l 2.558,-1.62214 0.8735,-5.30314 0.3743,-0.99824 4.3673,-0.49911 2.246,-2.55799 2.1213,-1.24779 3.1819,-0.31195 1.2478,-2.807553 3.8057,-0.6239 c 0,0 1.9341,1.18541 2.1213,1.434973 0.1872,0.24956 1.6221,0.93585 1.6221,0.93585 0,0 1.9965,0 2.2461,0 0.2495,0 3.6186,-0.68629 3.6186,-0.68629 l 0.9358,-1.123023 1.2478,-0.37434 2.4956,0.18717 1.8093,1.559753 1.9341,1.12302 1.9341,1.55974 1.5597,0.93585 c 0,0 1.2478,0.0624 1.5598,0 0.3119,-0.0624 1.5597,-0.24956 1.5597,-0.24956 0,0 0.8111,-0.81107 1.123,-0.93585 0.312,-0.12478 2.2461,-1.55974 2.2461,-1.55974 z"
       id="path6047"
       inkscape:export-filename="lesnoi.svg"
       inkscape:export-xdpi="96"
       inkscape:export-ydpi="96" />
  </g>
</svg>
