<?xml version="1.0" encoding="UTF-8" standalone="no"?>
<!-- Created with Inkscape (http://www.inkscape.org/) -->

<svg
   version="1.1"
   id="svg2"
   width="131.09448"
   height="104.96717"
   viewBox="0 0 131.09448 104.96717"
   sodipodi:docname="map.svg"
   inkscape:version="1.2.2 (732a01da63, 2022-12-09)"
   xmlns:inkscape="http://www.inkscape.org/namespaces/inkscape"
   xmlns:sodipodi="http://sodipodi.sourceforge.net/DTD/sodipodi-0.dtd"
   xmlns="http://www.w3.org/2000/svg"
   xmlns:svg="http://www.w3.org/2000/svg">
  <defs
     id="defs6">
    <linearGradient
       id="linearGradient67598"
       inkscape:swatch="solid">
      <stop
         style="stop-color:#777777;stop-opacity:1;"
         offset="0"
         id="stop67596" />
    </linearGradient>
  </defs>
  <sodipodi:namedview
     id="namedview4"
     pagecolor="#ffffff"
     bordercolor="#111111"
     borderopacity="1"
     inkscape:showpageshadow="0"
     inkscape:pageopacity="0"
     inkscape:pagecheckerboard="1"
     inkscape:deskcolor="#d1d1d1"
     showgrid="false"
     showguides="false"
     inkscape:lockguides="false"
     inkscape:zoom="0.70835525"
     inkscape:cx="1043.2618"
     inkscape:cy="502.57268"
     inkscape:window-width="1920"
     inkscape:window-height="1009"
     inkscape:window-x="-8"
     inkscape:window-y="-8"
     inkscape:window-maximized="1"
     inkscape:current-layer="g8" />
  <g
     inkscape:groupmode="layer"
     inkscape:label="Image"
     id="g8"
     transform="translate(-1790.3584,6.9856801)">
    <path
       style="opacity:1;mix-blend-mode:normal;fill:#fafafa;fill-opacity:1;stroke:#000000;stroke-opacity:0.434483"
       d="m 1790.8712,45.058218 4.0587,6.70568 6.1762,3.88223 5.9999,-1.05879 7.235,-4.23516 1.7647,2.11758 -0.1765,6.35275 -2.1176,4.94102 0.8824,2.11758 2.9999,2.82344 3.7057,0.70586 7.0586,0.70586 h 2.8235 l 2.1176,4.5881 2.1175,6.17628 2.647,4.0587 2.8235,7.588 2.6469,3.70576 6.7057,1.23526 13.4114,-3.88223 14.823,-4.76456 9.5291,-8.29386 2.2941,-7.23507 0.1765,-10.41145 4.5881,-2.9999 12.176,0.17646 2.4706,-3.17637 -0.1765,-18.528836 1.5882,-7.94093 6.5292,-11.99963 3.1764,-7.588 -2.2941,-8.64679 -1.9411,-4.94103 -8.8233,1.41172 c 0,0 -11.9996,-1.76465 -12.8819,-1.76465 -0.8823,0 -7.0586,3.52930998 -7.0586,3.52930998 l -11.4703,-6.52920998 -3.7057,-0.35293 -2.1176,1.58818 -0.3529,9.70558 -9.1762,7.58801 -7.2351,3.70576 -7.4115,4.41163 -6.7057,0.5294 -6.3527,-4.5881 -3.3529,-5.29395 -2.8234,-1.58819 -2.1176,0.88233 -5.9998,7.23507 -1.7647,1.05879 -8.6468,-1.23526 -5.8233,0.17647 -4.5881,0.88232 -4.0587,3.70577 -1.4117,4.0587 v 2.82344 l 7.4115,3.17638 2.647,2.11758 -2.9999,2.9999 -6.1763,1.41173 -2.647,2.11758 v 2.117576 z"
       id="path170"
       inkscape:export-filename=".\molokovo.svg"
       inkscape:export-xdpi="96"
       inkscape:export-ydpi="96" />
  </g>
</svg>
