<?xml version="1.0" encoding="UTF-8" standalone="no"?>
<!-- Created with Inkscape (http://www.inkscape.org/) -->

<svg
   version="1.1"
   id="svg2"
   width="166.58884"
   height="188.72144"
   viewBox="0 0 166.58884 188.72144"
   sodipodi:docname="map.svg"
   inkscape:version="1.2.2 (732a01da63, 2022-12-09)"
   xmlns:inkscape="http://www.inkscape.org/namespaces/inkscape"
   xmlns:sodipodi="http://sodipodi.sourceforge.net/DTD/sodipodi-0.dtd"
   xmlns="http://www.w3.org/2000/svg"
   xmlns:svg="http://www.w3.org/2000/svg">
  <defs
     id="defs6">
    <linearGradient
       id="linearGradient67598"
       inkscape:swatch="solid">
      <stop
         style="stop-color:#777777;stop-opacity:1;"
         offset="0"
         id="stop67596" />
    </linearGradient>
  </defs>
  <sodipodi:namedview
     id="namedview4"
     pagecolor="#ffffff"
     bordercolor="#111111"
     borderopacity="1"
     inkscape:showpageshadow="0"
     inkscape:pageopacity="0"
     inkscape:pagecheckerboard="1"
     inkscape:deskcolor="#d1d1d1"
     showgrid="false"
     showguides="false"
     inkscape:lockguides="false"
     inkscape:zoom="0.70835525"
     inkscape:cx="1043.2618"
     inkscape:cy="502.57268"
     inkscape:window-width="1920"
     inkscape:window-height="1009"
     inkscape:window-x="-8"
     inkscape:window-y="-8"
     inkscape:window-maximized="1"
     inkscape:current-layer="g8" />
  <g
     inkscape:groupmode="layer"
     inkscape:label="Image"
     id="g8"
     transform="translate(-71.626755,-692.5238)">
    <path
       style="opacity:1;mix-blend-mode:normal;fill:#fafafa;fill-opacity:1;stroke:#000000;stroke-opacity:0.434483"
       d="m 226.59455,876.20192 1.23526,-2.38228 0.0441,-2.86756 1.6323,-9.04384 2.77932,-3.74988 0.7941,-2.20581 0.61762,-3.52931 -0.0441,-3.66165 -0.17647,-2.9999 0.66175,-2.82345 3.13225,-5.91158 0.44117,-2.29405 -0.17647,-2.24993 -1.49995,-1.1029 -2.33817,-0.74998 -2.67911,-0.33489 -1.79244,-1.01377 -2.4547,-1.96006 0.22058,-1.54407 0.97056,-1.27937 3.83811,-5.9557 1.85289,-2.38228 1.10291,-5.91158 -6.83818,-6.17634 -4.58809,-1.94112 -5.24984,-1.58819 -5.20572,-3.08814 -2.77933,-3.57341 v -3.52931 l 2.86756,-5.11749 4.01458,-9.485 3.26461,-4.10281 4.89691,-3.08814 0.93909,-3.97047 v -7.98504 l -0.23323,-3.74989 -1.32349,-2.95579 -1.85289,-1.49995 -9.04383,-3.39696 -10.72026,-5.33807 -2.47051,-0.70586 -1.19114,1.27937 -1.80877,-0.88232 -1.98523,-1.41172 -2.1617,-0.61763 -2.64698,1.23526 -1.94111,0.35293 -0.5294,-1.01468 -0.35293,-2.1617 0.66174,-3.97046 -0.30881,-1.19114 -4.27928,-0.22058 -7.63212,-0.13235 -3.83811,-1.85289 -2.29405,-2.33816 -0.35293,-2.33816 v -10.10263 l 0.13235,-3.48519 -0.74998,-3.74988 -1.897,-1.98523 -1.94111,-0.70586 h -3.26461 l -3.39695,-1.23526 -3.61754,-1.54407 -2.73521,-1.58819 -2.55874,-1.72053 -3.13226,-2.51463 -2.60286,-1.897 -1.13105,0.99076 -0.24956,2.15245 -0.40554,2.96352 -0.77987,1.71572 -1.8405,1.68453 -2.62037,1.09182 -2.33962,0.24956 -2.68277,-1.2478 -1.62213,-2.71396 -2.4644,-1.96528 -1.15421,-1.77811 -1.71572,-1.37257 -2.33962,-0.991 h -3.89937 l -2.55798,0.3359 -1.65333,1.40377 -0.0312,3.15069 0.68629,5.64628 1.49736,2.4644 1.8093,3.7122 0.59271,2.09006 -0.24956,0.43673 -1.49736,0.53031 -3.0883,-0.21836 -3.86817,0.5927 c 0,0 -1.71572,0.99824 -1.8405,0.99824 -0.12478,0 -2.83874,0.28075 -2.83874,0.28075 l -3.80578,-0.0312 -2.932318,-0.0312 -1.96528,0.40554 -1.46616,1.74691 -1.27899,1.8717 -0.96705,1.27899 -0.81106,2.49559 -0.37434,1.96528 -1.96528,0.43673 -2.62038,0.21837 -3.27546,0.46792 -2.43321,1.09182 -0.43673,1.96528 -0.71748,2.43321 -0.37434,2.33962 -0.6239,1.24779 -0.53031,1.62214 c 0,0 -2.80754,-0.37434 -2.96352,-0.37434 -0.15597,0 -2.68276,0.43673 -2.68276,0.43673 l -1.34138,1.68452 -0.0312,2.52679 0.21837,0.81107 0.87345,1.99648 0.43673,3.24427 0.31195,2.68276 -0.15597,3.99295 1.12301,3.7122 1.43497,3.55622 3.96176,6.80049 2.58917,1.90289 3.83698,1.49736 4.24251,1.06063 2.93232,0.99823 2.40201,1.68453 2.24604,3.58742 0.21836,3.86817 0.74868,4.36728 0.15597,4.96 0.935848,5.92703 2.21484,4.61685 3.58742,4.95999 5.73986,5.33434 4.3361,2.55798 4.08653,2.37081 3.93056,2.4956 4.02415,5.05358 3.43144,3.0259 3.49383,2.80755 1.43497,1.55974 1.46616,3.11949 1.59094,2.58918 1.77811,2.58918 2.55798,1.55975 3.93056,1.2478 6.30138,-0.0312 3.0571,0.0312 2.90113,0.96704 2.4332,1.55974 2.58918,2.05887 c 0,0 1.27899,0.6239 1.43497,0.6239 0.15597,0 1.46616,-0.21837 1.62213,-0.24956 0.15598,-0.0312 2.33962,-1.31019 2.33962,-1.31019 0,0 2.4956,-1.71572 2.68277,-1.77811 0.18717,-0.0624 3.6498,-1.43497 3.6498,-1.43497 l 2.4956,-0.43672 1.59094,1.40377 -0.40554,2.33962 -0.37434,2.05886 0.24956,1.2478 1.02944,1.06063 2.30842,-0.90466 1.18541,-1.49735 1.02943,-0.24956 1.49736,1.15421 1.31018,2.09006 1.34138,2.55798 0.21837,3.33786 0.0936,3.86817 0.18717,4.2737 v 3.15069 l 1.55975,3.02591 1.90289,1.46616 3.52503,2.37081 2.27723,0.34315 1.87169,-1.8405 2.90113,-3.64981 1.34138,0.6551 1.49736,2.402 1.15421,3.30667 1.2478,1.87169 2.05886,1.18541 2.96352,-0.31195 2.99471,-2.58918 2.65157,-1.90289 z"
       id="path48503"
       inkscape:export-filename=".\penovskiy.svg"
       inkscape:export-xdpi="96"
       inkscape:export-ydpi="96" />
  </g>
</svg>
