<?xml version="1.0" encoding="UTF-8" standalone="no"?>
<!-- Created with Inkscape (http://www.inkscape.org/) -->

<svg
   version="1.1"
   id="svg2"
   width="173.82117"
   height="131.53705"
   viewBox="0 0 173.82117 131.53705"
   sodipodi:docname="map.svg"
   inkscape:version="1.2.2 (732a01da63, 2022-12-09)"
   xmlns:inkscape="http://www.inkscape.org/namespaces/inkscape"
   xmlns:sodipodi="http://sodipodi.sourceforge.net/DTD/sodipodi-0.dtd"
   xmlns="http://www.w3.org/2000/svg"
   xmlns:svg="http://www.w3.org/2000/svg">
  <defs
     id="defs6">
    <linearGradient
       id="linearGradient67598"
       inkscape:swatch="solid">
      <stop
         style="stop-color:#777777;stop-opacity:1;"
         offset="0"
         id="stop67596" />
    </linearGradient>
  </defs>
  <sodipodi:namedview
     id="namedview4"
     pagecolor="#ffffff"
     bordercolor="#111111"
     borderopacity="1"
     inkscape:showpageshadow="0"
     inkscape:pageopacity="0"
     inkscape:pagecheckerboard="1"
     inkscape:deskcolor="#d1d1d1"
     showgrid="false"
     showguides="false"
     inkscape:lockguides="false"
     inkscape:zoom="0.70835525"
     inkscape:cx="1043.2618"
     inkscape:cy="502.57268"
     inkscape:window-width="1920"
     inkscape:window-height="1009"
     inkscape:window-x="-8"
     inkscape:window-y="-8"
     inkscape:window-maximized="1"
     inkscape:current-layer="g8" />
  <g
     inkscape:groupmode="layer"
     inkscape:label="Image"
     id="g8"
     transform="translate(-1623.8944,-662.86877)">
    <path
       style="opacity:1;mix-blend-mode:normal;fill:#fafafa;fill-opacity:1;stroke:#000000;stroke-opacity:0.434483"
       d="m 1692.5864,792.45502 c 0,0 -0.811,1.06063 -1.1854,1.18541 -0.3743,0.12478 -1.123,0.24956 -1.123,0.24956 l -1.435,-0.56151 -7.05,-4.67924 -1.6221,-1.55974 -1.435,-2.68277 -1.6221,-4.11773 -0.1248,-5.67747 -0.4368,-2.55799 -0.3119,-2.80754 -0.4991,-2.18364 -1.8093,-1.18541 -2.6204,-1.43497 -2.1836,-0.31195 -3.9306,-0.81106 -2.1213,0.0624 -3.7434,-0.56151 -1.9964,-0.18717 -4.4921,-9.54565 -2.246,-5.92703 -2.1837,-3.18189 c 0,0 -1.9341,-1.99647 -2.558,-1.87169 -0.6239,0.12478 -3.7434,-0.49912 -3.7434,-0.49912 l -2.3708,-1.37258 -2.1836,-1.8093 -4.8664,-5.5527 -4.1177,-3.24427 -3.3691,-4.3049 -0.7487,-4.61685 -0.062,-4.55446 0.312,-3.30666 1.9341,-2.37081 1.1854,0.43672 0.3743,3.68101 1.3102,2.74515 2.8075,0.81107 1.6846,0.31195 0.9982,0.99823 1.1854,0.6239 h 2.3084 l 2.3085,-0.56151 1.6221,-1.68452 1.5597,-1.43497 3.4315,-0.81107 2.0588,-1.99647 0.8111,-3.74339 0.9359,-1.80931 10.0447,-0.0624 1.123,-0.74868 0.7487,-2.37081 3.2443,-0.49912 1.8717,-0.87346 0.8735,-0.87345 1.0606,-1.55975 -0.1248,-1.93409 c 0,0 0,-0.74867 0.3743,-0.93584 0.3744,-0.18717 4.0554,-1.80931 4.0554,-1.80931 l 6.1142,0.18717 2.4332,-0.87346 2.7451,-1.68452 1.6846,-1.43497 1.8093,1.2478 c 0,0 1.6221,0.24956 1.9964,0.24956 0.3744,0 1.8717,0.12478 2.1837,-0.12478 0.3119,-0.24956 2.0589,-1.18541 2.0589,-1.18541 l 0.9358,-2.37081 0.6239,-1.49736 c 0,0 0.8735,-0.31195 1.2478,-0.31195 0.3743,0 1.9965,0.56151 1.9965,0.56151 l 0.8734,1.68452 2.8076,2.37082 1.6221,1.06063 0.6863,2.05886 1.6221,1.37258 1.5598,0.68629 1.1854,0.37433 h 1.6845 c 0,0 0.9983,-0.99823 1.4974,-1.24779 0.4991,-0.24956 1.6221,-1.18541 1.6221,-1.18541 l 0.9982,-2.18364 0.3744,-1.31019 1.4349,-1.99648 1.1855,-2.05886 5.9894,0.31195 1.0606,-0.74868 2.6828,-0.18717 1.123,0.93585 2.0589,0.0624 c 0,0 2.0588,0 2.3084,0 0.2495,0 2.8075,-1.62214 2.8075,-1.62214 l 1.2478,-2.55798 1.435,-2.62037 0.3119,-2.12126 -0.4367,-1.93408 -0.5615,-2.68277 -0.6863,-1.8093 -0.9982,-2.05887 -0.6239,-0.99824 -0.312,-1.87169 0.8111,-2.37081 c 0,0 -0.1872,-1.12302 0.2496,-1.43497 0.4367,-0.31195 2.3708,-1.06063 2.3708,-1.06063 l 4.0553,-0.6239 4.2425,0.18717 3.7434,3.681 2.4332,1.68453 5.8023,4.36729 6.6133,1.93408 5.1783,3.93056 12.7276,0.12478 0.1248,1.62214 -2.1213,3.55622 -2.4956,8.29785 -1.4973,4.74163 1.123,8.29785 1.6221,3.0571 2.0589,2.30842 3.6186,2.12126 2.4332,2.55798 1.4349,2.43321 0.8735,2.4332 2.1213,4.18012 1.7469,3.681 0.9982,2.12126 0.062,13.03947 -6.9877,3.80578 -11.4173,-6.55093 -3.681,-0.37434 -2.246,1.43497 -0.3744,9.7952 -9.1713,7.73634 -14.7864,8.0483 -6.4885,0.49911 -6.4886,-4.55445 -3.3066,-5.36553 -2.87,-1.62214 -2.3084,0.93585 -5.8646,7.17483 -1.8717,1.12302 -8.6098,-1.31019 -6.0518,0.37434 -4.3049,0.68629 -4.1178,3.681 -1.3725,4.05534 -0.062,3.0571 7.4244,3.1195 2.6203,1.99647 -2.8699,3.11949 -5.9894,1.31019 -2.9323,2.12125 z"
       id="path4593"
       inkscape:export-filename="sandovo.svg"
       inkscape:export-xdpi="96"
       inkscape:export-ydpi="96" />
  </g>
</svg>
