<?xml version="1.0" encoding="UTF-8" standalone="no"?>
<!-- Created with Inkscape (http://www.inkscape.org/) -->

<svg
   version="1.1"
   id="svg2"
   width="111.06714"
   height="103.61549"
   viewBox="0 0 111.06714 103.61549"
   sodipodi:docname="map.svg"
   inkscape:version="1.2.2 (732a01da63, 2022-12-09)"
   xmlns:inkscape="http://www.inkscape.org/namespaces/inkscape"
   xmlns:sodipodi="http://sodipodi.sourceforge.net/DTD/sodipodi-0.dtd"
   xmlns="http://www.w3.org/2000/svg"
   xmlns:svg="http://www.w3.org/2000/svg">
  <defs
     id="defs6">
    <linearGradient
       id="linearGradient67598"
       inkscape:swatch="solid">
      <stop
         style="stop-color:#777777;stop-opacity:1;"
         offset="0"
         id="stop67596" />
    </linearGradient>
  </defs>
  <sodipodi:namedview
     id="namedview4"
     pagecolor="#ffffff"
     bordercolor="#111111"
     borderopacity="1"
     inkscape:showpageshadow="0"
     inkscape:pageopacity="0"
     inkscape:pagecheckerboard="1"
     inkscape:deskcolor="#d1d1d1"
     showgrid="false"
     showguides="false"
     inkscape:lockguides="false"
     inkscape:zoom="0.70835525"
     inkscape:cx="1043.2618"
     inkscape:cy="502.57268"
     inkscape:window-width="1920"
     inkscape:window-height="1009"
     inkscape:window-x="-8"
     inkscape:window-y="-8"
     inkscape:window-maximized="1"
     inkscape:current-layer="g8" />
  <g
     inkscape:groupmode="layer"
     inkscape:label="Image"
     id="g8"
     transform="translate(-1847.4664,-96.706329)">
    <path
       style="opacity:1;mix-blend-mode:normal;fill:#fafafa;fill-opacity:1;stroke:#000000;stroke-opacity:0.434483"
       d="m 1857.5925,125.34036 c 0,0 -25.2345,32.99898 5.9998,74.29182 l 3.7058,-2.64698 9.3526,-0.88232 12.882,0.52939 7.235,-1.05879 2.8235,-1.41172 6.8821,-10.05851 2.9999,-1.58819 3.8823,1.58819 6.7056,5.82335 4.0587,1.76465 5.9999,-1.76465 -0.1765,-6.88214 2.1176,-2.82344 5.4704,-0.88233 1.9411,5.29396 3.1764,7.41153 2.1176,0.35293 4.941,-1.76465 3.7058,-3.70577 4.588,-11.82316 -1.5881,-4.5881 -3.7058,-4.58809 -3.3528,-3.5293 -3.7058,-2.29405 -2.4705,-2.82344 -1.7647,-3.35284 -2.9999,-1.41172 -4.4116,-0.17646 -3.8822,-0.5294 c 0,0 -1.875,0 -2.2059,-0.13235 -0.3308,-0.13235 -1.6984,-1.19114 -1.6984,-1.19114 l -0.2647,-1.16908 0.088,-0.99262 0.5073,-1.12496 1.7907,-2.07825 v -2.49559 l -0.7487,-1.2478 1.1231,-2.49559 2.6203,-2.24604 0.4991,-1.49735 -1.123,-1.2478 h -1.3726 l -1.9964,0.6239 -1.4974,0.99824 -2.246,1.49735 -1.3726,0.87346 h -1.123 -0.9982 l -0.3744,-0.74868 v -1.12302 l 0.4991,-1.12301 0.9983,-1.99648 0.8734,-1.37257 1.8717,-1.37258 2.6204,-1.2478 2.8699,-0.37434 h 3.1195 l 6.9877,-0.24956 0.6239,-0.37434 -6.7381,-5.11596 -7.6116,-7.73634 h -2.3708 l -0.8735,-7.61156 3.6187,-3.1195 c 0,0 -3.6187,-1.87169 -4.3673,-2.24603 -0.7487,-0.37434 -2.1213,-1.8717 -2.6204,-1.99648 -0.4991,-0.124783 -1.9965,-1.622133 -1.9965,-1.622133 h -1.6221 l -3.8682,-0.6239 c 0,0 -2.3708,-0.6239 -2.8699,-0.6239 -0.4991,0 -2.3708,0 -2.3708,0 l -1.6222,1.12302 v 2.121253 l -2.246,5.61509 -2.4956,4.99119 -0.1248,6.23898 -0.7487,4.24251 -0.7486,3.49383 -1.6222,2.4956 -1.9964,0.74867 -4.3673,1.2478 -2.9947,-0.12478 -3.7434,-1.2478 -4.1178,0.74868 -4.1177,1.37258 -4.8664,1.2478 -2.6204,0.24956 -2.8699,-0.37434 -2.4956,-0.24956 -1.3726,-1.2478 -1.4973,-1.8717 z"
       id="path2411"
       inkscape:export-filename=".\sonkovo.svg"
       inkscape:export-xdpi="96"
       inkscape:export-ydpi="96" />
  </g>
</svg>
