<?xml version="1.0" encoding="UTF-8" standalone="no"?>
<!-- Created with Inkscape (http://www.inkscape.org/) -->

<svg
   version="1.1"
   id="svg2"
   width="171.79257"
   height="142.85194"
   viewBox="0 0 171.79257 142.85194"
   sodipodi:docname="map.svg"
   inkscape:version="1.2.2 (732a01da63, 2022-12-09)"
   xmlns:inkscape="http://www.inkscape.org/namespaces/inkscape"
   xmlns:sodipodi="http://sodipodi.sourceforge.net/DTD/sodipodi-0.dtd"
   xmlns="http://www.w3.org/2000/svg"
   xmlns:svg="http://www.w3.org/2000/svg">
  <defs
     id="defs6">
    <linearGradient
       id="linearGradient67598"
       inkscape:swatch="solid">
      <stop
         style="stop-color:#777777;stop-opacity:1;"
         offset="0"
         id="stop67596" />
    </linearGradient>
  </defs>
  <sodipodi:namedview
     id="namedview4"
     pagecolor="#ffffff"
     bordercolor="#111111"
     borderopacity="1"
     inkscape:showpageshadow="0"
     inkscape:pageopacity="0"
     inkscape:pagecheckerboard="1"
     inkscape:deskcolor="#d1d1d1"
     showgrid="false"
     showguides="false"
     inkscape:lockguides="false"
     inkscape:zoom="0.70835525"
     inkscape:cx="1043.2618"
     inkscape:cy="502.57268"
     inkscape:window-width="1920"
     inkscape:window-height="1009"
     inkscape:window-x="-8"
     inkscape:window-y="-8"
     inkscape:window-maximized="1"
     inkscape:current-layer="g8" />
  <g
     inkscape:groupmode="layer"
     inkscape:label="Image"
     id="g8"
     transform="translate(-493.68851,-25.601778)">
    <path
       style="opacity:1;mix-blend-mode:normal;fill:#fafafa;fill-opacity:1;stroke:#000000;stroke-opacity:0.434483"
       d="m 500.59184,157.92935 2.24993,-2.11758 2.47051,-0.2647 2.38228,1.49995 2.85296,1.35855 2.79393,0.9355 2.5587,-0.2647 3.3529,-1.41172 3.6175,-0.97056 3.9705,-3.88223 2.2058,-1.76465 2.294,-0.78504 h 5.5587 l 3.1763,-0.53845 7.8527,-4.58809 2.8235,-0.0882 1.9411,0.0882 2.3908,1.2407 1.5909,1.68453 2.7292,3.01353 4.2585,4.97237 11.6622,10.0441 4.4558,1.36761 9.8379,0.48526 1.8704,-1.78981 0.1248,-3.43145 -0.5615,-3.24427 -1.5598,-1.62213 -5.3655,-3.61862 -5.3655,-2.74515 -3.1819,-2.30842 -1.7469,-0.56151 -0.4056,-2.83874 -0.093,-2.77635 0.1871,-4.55446 0.9983,-2.4332 1.2478,-1.62214 2.0588,-1.31018 1.5598,0.31195 0.5615,2.68276 -0.1248,3.99295 1.2478,1.93408 2.7452,1.93409 1.8717,0.49912 0.8734,-1.12302 2.1837,-7.73634 1.6845,-3.80578 2.0589,-3.99295 3.2442,-3.18188 1.6846,-0.6239 1.0606,1.43497 0.3743,1.93408 -0.3119,5.42792 0.062,2.24603 0.3743,1.37258 1.1854,0.56151 1.9341,-0.0624 3.2855,-1.49746 7.0905,-3.19088 5.9701,-2.73605 2.7452,-4.67924 -0.6863,-2.4956 -3.4314,-2.05886 -3.5563,-0.81107 -2.8075,-2.4332 -0.4991,-4.18012 1.5597,-4.49207 2.558,-3.80578 3.3691,-2.93233 4.2425,-2.932321 3.4938,-2.80754 2.1836,-3.86817 0.4368,-4.61685 -0.1872,-1.43497 2.6204,-2.05886 3.1819,-2.05887 3.1818,-4.18012 1.9341,-2.99471 1.3102,-7.362 1.9965,-1.68453 3.1195,0.24956 4.1177,0.81107 3.4938,2.05887 2.4956,0.5615 6.551,-4.3049 2.9947,-1.12301 -1.7425,-5.43152 -0.9706,-1.94111 -2.4264,-1.63231 -10.3673,-0.39708 -3.3088,-0.5294 -2.9116,-1.14702 -0.7941,-2.20582 0.2206,-2.86755 1.1029,-3.66166 -0.088,-10.54379 -0.3088,-5.20572 -1.4558,-1.19114 -2.0735,1.05879 -2.1176,0.66175 -2.1175,-1.14703 -1.7647,-1.32349 -2.7793,-0.22058 -3.4411,1.45584 -3.7499,2.60286 -4.0146,2.60286 -2.7793,0.74998 -2.0864,3.20475 -2.246,2.49559 -1.9341,1.15422 -2.0589,1.43496 -1.4661,1.68453 -1.1854,1.87169 -0.4368,1.80931 -1.123,2.77635 -0.8111,1.68452 -1.8093,-0.12478 -1.0918,-0.81107 -1.0606,-1.49735 -1.0294,-0.74868 -1.1854,-0.12478 -1.4038,1.2478 -1.6845,1.99647 -1.5598,1.90289 -1.0606,1.37258 -0.8735,1.37258 c 0,0 -0.8734,0.34314 -1.0294,0.40553 -0.156,0.0624 -2.0277,0.31195 -2.0277,0.31195 l -1.7157,-0.65509 -1.8717,-0.90466 -4.8352,-1.90289 -2.9947,-0.84226 -2.6828,-0.71748 c 0,0 -1.9341,-0.15598 -2.2772,-0.15598 -0.3432,0 -2.5268,0.0312 -2.5268,0.0312 l -2.3708,0.71748 -1.7157,1.02943 -4.5233,2.15245 -2.8387,2.15245 -2.1837,2.58918 -0.6551,1.77811 -0.811,3.77459 -0.9671,7.54917 -0.5615,3.30666 -0.8735,1.12302 -0.9982,0.74868 -2.6828,0.21836 -2.402,0.24956 -1.8093,1.34138 -0.094,2.02767 -0.6239,6.08301 -1.1542,1.71572 -2.5268,1.2166 -2.7139,0.93585 -4.5545,1.34138 -1.5909,1.55975 -0.1871,1.80931 -0.156,2.807541 0.5615,2.77635 -0.312,4.8664 -1.4349,6.08301 -1.123,2.65157 -1.3102,2.4956 -1.7469,2.21484 -2.1837,2.21484 -3.369,6.36376 -1.0607,2.74515 -0.4367,2.80755 -1.1542,1.1854 -1.1542,0.90466 -1.71575,0.5927 -3.27547,0.18717 -3.18188,0.34314 -3.21308,0.74868 -1.74691,0.46793 -6.1766,1.90289 -1.46616,1.2166 -0.21837,2.4332 0.49912,3.55622 0.99824,2.33962 1.46616,2.43321 1.2166,2.30842 z"
       id="path43405"
       inkscape:export-filename=".\spirovskiy.svg"
       inkscape:export-xdpi="96"
       inkscape:export-ydpi="96" />
  </g>
</svg>
