<?xml version="1.0" encoding="UTF-8" standalone="no"?>
<!-- Created with Inkscape (http://www.inkscape.org/) -->

<svg
   version="1.1"
   id="svg2"
   width="219.02673"
   height="200.62128"
   viewBox="0 0 219.02673 200.62128"
   sodipodi:docname="map.svg"
   inkscape:version="1.2.2 (732a01da63, 2022-12-09)"
   xmlns:inkscape="http://www.inkscape.org/namespaces/inkscape"
   xmlns:sodipodi="http://sodipodi.sourceforge.net/DTD/sodipodi-0.dtd"
   xmlns="http://www.w3.org/2000/svg"
   xmlns:svg="http://www.w3.org/2000/svg">
  <defs
     id="defs6">
    <linearGradient
       id="linearGradient67598"
       inkscape:swatch="solid">
      <stop
         style="stop-color:#777777;stop-opacity:1;"
         offset="0"
         id="stop67596" />
    </linearGradient>
  </defs>
  <sodipodi:namedview
     id="namedview4"
     pagecolor="#ffffff"
     bordercolor="#111111"
     borderopacity="1"
     inkscape:showpageshadow="0"
     inkscape:pageopacity="0"
     inkscape:pagecheckerboard="1"
     inkscape:deskcolor="#d1d1d1"
     showgrid="false"
     showguides="false"
     inkscape:lockguides="false"
     inkscape:zoom="0.70835525"
     inkscape:cx="1043.2618"
     inkscape:cy="502.57268"
     inkscape:window-width="1920"
     inkscape:window-height="1009"
     inkscape:window-x="-8"
     inkscape:window-y="-8"
     inkscape:window-maximized="1"
     inkscape:current-layer="g8" />
  <g
     inkscape:groupmode="layer"
     inkscape:label="Image"
     id="g8"
     transform="translate(-365.68646,-561.39526)">
    <path
       style="opacity:1;mix-blend-mode:normal;fill:#fafafa;fill-opacity:1;stroke:#000000;stroke-opacity:0.434483"
       d="m 477.77806,761.45437 0.81106,-2.40201 1.71572,-6.7381 3.80578,-3.74339 3.24427,-0.99824 5.51122,-0.0765 2.28751,0.13885 3.30667,1.2478 2.74515,0.31195 3.24427,-0.81107 3.64981,-3.43145 2.02767,-1.87169 2.05886,-2.62037 2.05887,-1.2478 2.93232,0.6239 3.18188,2.30842 2.62038,0.56151 3.93056,-0.18717 3.80578,0.0624 3.74339,1.31019 4.49207,0.56151 2.80754,-0.99824 4.55446,-4.05534 3.24427,-1.80931 1.62214,1.06063 1.99647,3.0571 3.11949,4.61685 1.37258,2.05887 2.05887,-0.81107 1.87169,-5.5527 1.2478,-2.37081 1.68452,-1.37258 6.98767,-3.55622 3.74339,-3.99295 0.71373,-3.17333 -0.006,-6.1938 0.0943,-4.52646 -0.0882,-2.91167 1.67642,-2.20582 3.92639,-0.66173 1.6323,-0.0882 0.99261,-2.69108 -0.17646,-1.67642 -0.24264,-0.7941 -2.51463,-2.11758 -2.9999,-2.11758 -4.89691,-1.32349 -3.88224,-3.24255 -0.88232,-0.9485 -0.13235,-3.97047 -0.2647,-2.95579 -2.16169,-1.01467 -1.76466,1.23526 -2.47051,0.97055 -2.55874,-1.05879 -1.72054,-1.98523 -1.49317,-3.97902 -1.6832,-4.18249 -1.27937,-3.48519 -2.13964,-0.59557 -2.13964,-0.59557 -4.63221,0.17647 -2.55875,1.45583 -3.92634,0.22059 -2.9558,-0.57352 -2.60286,-2.60286 -2.07346,-3.30872 -0.99262,-1.05879 -0.99261,-1.05879 -1.63231,-2.29405 -1.72053,0.0882 -1.85289,1.58818 -0.57351,2.77933 -2.38228,1.58818 -1.01467,-0.39704 -0.35293,-2.91168 -0.5294,-3.61753 v -2.77933 l -1.05879,-1.19114 -1.41172,0.5294 -2.51463,3.44107 -1.05879,2.51463 -2.73521,0.39704 -0.90438,-0.17646 -0.90438,-0.17647 -1.14703,-2.07346 -0.30881,-2.1617 3.97046,-3.61754 4.10282,-3.39695 2.86756,-3.92635 0.22058,-4.98514 -0.88233,-3.61753 0.0882,-3.57342 2.29405,-4.72045 2.47051,-2.64697 0.0441,-3.52931 -1.14702,-1.27937 -3.97047,-1.76465 -6.79391,-0.74998 -2.64697,-1.85288 0.52939,-2.11758 3.97047,-3.44107 1.41172,-3.35284 0.0441,-4.45574 -1.98523,-4.45575 -3.39695,-4.54398 -2.07347,-1.05879 -5.38218,0.70586 -5.77924,1.67642 -3.74988,-2.11758 -4.63221,-4.63221 -2.82344,0.30882 -2.4264,1.58818 -3.48519,0.74998 -2.38227,-0.74998 -1.54407,-2.77932 -0.74998,-4.36752 -0.5294,-4.27928 -1.74259,-4.6322 -0.55145,-1.63231 -1.09197,1.65329 -2.00606,0.74868 -2.74516,-0.24956 -2.93232,-0.6239 -2.93232,-2.49559 -3.93056,-3.30667 -2.93233,-1.74691 -2.86993,-0.93585 -4.86641,0.6239 -4.24251,1.49736 -6.55093,1.68452 -5.61509,0.81107 h -6.67571 -4.67924 l -1.8093,-1.2478 -1.49736,-1.55974 -0.68629,-4.99119 0.18717,-2.43321 -1.55975,-2.55798 -1.93408,-1.49736 -1.8717,-1.06062 -3.18188,0.12478 -2.30842,1.43496 -1.93409,3.24428 -1.93408,2.99471 -2.24604,9.17131 -0.74868,7.29961 -1.62213,3.99295 -2.05887,3.681 -0.99823,1.55974 -1.2478,0.37434 -0.99824,-0.81106 -2.05886,-2.37082 -2.74516,-1.68452 -1.62213,-0.12478 -0.93585,3.0571 0.49912,4.67924 0.49912,2.74515 0.18717,3.36905 -0.31195,5.5527 -1.18541,1.8093 -2.49559,1.49736 -4.49207,0.0624 h -2.12126 l -1.31018,0.87346 -1.62214,1.99647 -0.87346,2.68277 0.56151,6.05181 0.12478,1.8717 1.12302,1.12301 0.18717,1.43497 -1.2478,1.43497 -0.56151,1.74691 0.49912,3.30666 0.6239,1.68453 3.30666,1.62214 0.68629,1.31018 0.18717,2.62038 -1.55975,2.18364 -0.6239,1.99648 2.24604,2.4332 3.49383,2.49559 2.37081,3.7434 2.68277,4.11772 2.55798,2.4956 1.93409,1.18541 3.49383,-0.12478 2.93232,-2.74516 3.86817,-0.68629 6.1766,0.0624 h 4.55445 l 2.43321,0.56151 1.12302,2.37082 -0.68629,3.93056 0.18717,4.11773 -1.93409,3.30666 -2.12125,3.99295 -2.80755,3.55622 -1.62213,3.0571 -1.55975,3.74339 -1.93408,4.18012 -1.2478,6.48855 0.18717,4.99119 1.99647,4.49206 4.05534,2.55799 14.03772,6.80049 6.42615,2.43321 4.86641,2.86993 3.86817,1.43496 2.05887,2.24604 1.24779,4.49207 0.24956,4.05534 -1.06062,9.04653 0.0624,3.99295 0.5615,3.681 1.18541,2.4332 2.62037,1.06063 c 0,0 4.24251,-0.31195 4.67924,-0.37434 0.43673,-0.0624 5.36553,-0.81107 5.36553,-0.81107 l 3.18188,-0.18717 3.43144,1.49736 3.49384,1.87169 5.42791,1.93409 4.24251,0.24956 4.36729,0.56151 h 3.49383 z"
       id="path57955"
       inkscape:export-filename=".\toropeckiy.svg"
       inkscape:export-xdpi="96"
       inkscape:export-ydpi="96" />
  </g>
</svg>
