<?xml version="1.0" encoding="UTF-8" standalone="no"?>
<!-- Created with Inkscape (http://www.inkscape.org/) -->

<svg
   width="800"
   height="800"
   viewBox="0 0 211.66667 211.66667"
   version="1.1"
   id="svg27478"
   inkscape:export-filename="tver.svg"
   inkscape:export-xdpi="68.417511"
   inkscape:export-ydpi="68.417511"
   xml:space="preserve"
   xmlns:inkscape="http://www.inkscape.org/namespaces/inkscape"
   xmlns:sodipodi="http://sodipodi.sourceforge.net/DTD/sodipodi-0.dtd"
   xmlns="http://www.w3.org/2000/svg"
   xmlns:svg="http://www.w3.org/2000/svg"><sodipodi:namedview
     id="namedview27480"
     pagecolor="#ffffff"
     bordercolor="#111111"
     borderopacity="1"
     inkscape:showpageshadow="0"
     inkscape:pageopacity="0"
     inkscape:pagecheckerboard="1"
     inkscape:deskcolor="#d1d1d1"
     inkscape:document-units="px"
     showgrid="false" /><defs
     id="defs27475" /><g
     inkscape:label="Слой 1"
     inkscape:groupmode="layer"
     id="layer1"><path
       style="opacity:1;fill:#ffffff;fill-opacity:0.903683;stroke:#ffcd78;stroke-width:0.664898;stroke-dasharray:none;stroke-opacity:1"
       d="m 106.39186,195.74977 7.14299,-0.13992 6.12261,-4.62346 -0.34205,-3.53482 6.00949,-3.39943 3.5145,2.17556 2.15441,3.67103 3.62831,-1.22388 10.09059,-0.54381 5.55565,-4.07942 -2.16535,-4.2152 v -2.43887 l 1.37233,-2.85576 30.15958,26.3792 5.10204,10.2417 h 18.82098 l 2.04114,-7.25024 -1.24749,-2.71945 v -1.7678 l 2.2675,0.27119 0.22547,-1.22428 1.81455,-0.13998 2.38105,-4.6232 -5.21599,-5.03072 1.02094,-2.99142 0.10982,-3.3995 -16.55313,-8.02249 -6.80283,-2.17568 -5.55595,-4.07938 -3.1748,-4.62302 -1.2471,-1.63184 4.30858,-4.21461 1.13319,1.22432 0.90661,-1.35907 -0.10996,-2.31154 -2.26734,-3.12736 2.94764,0.54381 -2.72147,-7.34256 4.30899,-11.01403 0.63879,-7.75041 7.29767,-9.51842 -3.96823,-3.53531 -8.16367,-2.85555 -6.12272,-6.527 v -2.85541 l 3.85467,-6.890364 1.1336,-4.123248 -4.76207,-7.88661 -3.06143,-2.85541 -3.06068,0.543928 -3.85495,-3.807223 -3.06144,-4.75918 -4.19506,-7.750514 -1.70064,-1.495406 0.34208,-3.263455 -12.24536,-2.311474 -1.81397,-5.711001 -3.06104,-3.127378 -3.74155,-1.358979 -1.3613,0.680348 -0.45325,8.566414 0.22542,3.671339 -1.02072,2.583432 -0.10992,2.447725 -2.15446,1.631841 -0.79402,-4.351167 v -6.798873 l 1.47451,-4.622981 -1.58767,-4.895065 -1.58742,-4.895282 -0.34199,-6.254773 -1.58712,-4.48706 -0.79396,-6.391043 -2.72134,-5.982803 -1.81419,-7.143913 -3.62792,-9.44497547 -3.40183,0.95320417 3.74217,8.4929763 -3.96866,0.890246 -0.10978,3.127362 -2.53929,0.409274 -3.24313,0.680359 h -1.92734 l -1.36018,0.680374 -0.10955,8.022647 -2.154275,1.903614 -2.494608,1.087882 -0.906617,2.71951 -2.154275,1.358973 4.535297,9.92625 4.535498,-0.27108 2.94799,7.478556 -2.15428,10.878066 -3.17494,-0.680357 -2.721199,-5.711022 -7.709762,6.390849 -1.587216,-1.767699 1.473875,-1.495411 h 1.587155 v -2.991489 l -1.700626,-0.953185 -0.794016,-2.175599 -0.793988,-0.271073 -1.361344,2.175592 -0.225288,2.583604 0.225288,1.224303 -2.154219,2.447732 -6.349285,-13.189749 -10.544287,-8.294433 -3.061439,0.815035 -12.131561,9.11036 2.040755,4.351321 -3.401586,2.447371 2.154251,3.535429 -1.813957,2.175567 -1.473875,-1.76769 -3.968593,2.583616 -4.081703,-6.526922 -1.473839,0.543939 -1.927467,2.583628 -0.342046,4.079187 0.567334,3.263283 1.700661,3.535437 5.668892,4.623133 2.607808,0.139917 v 2.8554 l 3.061443,1.631811 0.225291,3.807218 h 1.359958 l -2.154224,3.94332 0.225273,3.671136 -1.587216,1.76772 -1.927415,7.886571 -1.701045,2.039657 -0.109873,5.84684 -1.133346,2.85546 -2.040887,0.81495 -0.10989,4.48704 -4.081734,0.95323 -0.342044,0.95158 h -2.607836 l 0.225297,-3.53561 -8.276724,4.21542 -0.453303,2.99169 2.04076,0.81511 0.225294,1.90341 -4.195129,1.63177 -4.761978,2.71964 -4.081662,2.31164 -2.267565,2.85493 -1.474285,1.76767 -0.906642,2.04 -5.2156682,1.49532 -6.2140928,-0.54388 v 2.8555 l 4.4001041,1.49545 -1.2473108,4.75936 -1.3599763,5.03121 -0.3420554,2.58344 h 2.9479818 l 0.679977,4.35131 1.8141096,5.30248 7.142994,3.2636 9.863879,-0.54393 2.721292,-1.22437 3.968236,-6.66237 4.988878,-2.58349 9.410698,-2.9916 4.761934,-3.12741 0.679974,-5.57508 9.52406,3.39945 7.256439,0.95137 1.927475,1.63204 -1.360002,2.58356 -2.154635,0.27097 -0.679998,1.76784 1.700669,2.17542 3.514605,3.67182 1.700944,0.81468 1.133263,-5.57478 1.587201,-3.26355 1.814377,-0.68026 5.21524,3.53548 4.648655,2.31153 3.174939,2.03959 6.916145,0.13981 -1.133296,2.583 0.45334,3.26341 0.453277,2.17585 -0.225264,4.89499 -0.567333,3.80765 1.361331,4.35117 z"
       id="path1186" /><path
       style="opacity:1;fill:#00ceff;fill-opacity:0.903683;stroke:none;stroke-width:1.01601;stroke-dasharray:none;stroke-opacity:1"
       d="m 29.614344,121.45607 14.37085,-2.98546 11.208596,-0.89471 17.07976,-1.78942 11.386506,-8.32081 c 0,0 10.69302,-6.87148 12.454288,-6.87148 1.761257,0 19.122296,0.50609 19.122296,0.50609 l 14.3417,5.31438 11.32231,6.07349 9.30959,1.77144 8.30308,-0.25306 5.53535,3.28981 2.01293,3.79594 1.50961,12.147 3.77414,23.28174 3.36026,4.17909 2.1396,-2.10507 -3.487,-4.09852 -2.26442,-15.68987 -2.76771,-17.46131 -2.01292,-5.82044 -6.5418,-4.04899 -5.78699,-0.25307 -5.53545,-0.50612 -9.56106,-2.0245 -8.55471,-3.84625 -11.82555,-4.75786 -9.81277,-2.277614 -9.309577,-0.253063 c 0,0 -3.774126,0.759198 -5.032177,0.759198 -1.258047,0 -8.051466,3.795959 -8.051466,3.795959 l -9.561133,7.59188 -7.548256,3.79593 -13.33526,1.51838 -16.606163,2.0245 -7.776911,1.69636 z"
       id="path39303" /><g
       style="fill:none"
       id="g40898"
       transform="matrix(0.19908811,0,0,0.24186201,44.71317,46.813519)"><path
         d="m 272.5,291 v -21 l 3,-1 v 21 l 35,11.5 52.5,8 2.5,-1.5 1.5,-36.5 6.5,-27.5 4.5,1 -7,26.5 -1,39.5 34,20.5 -1.5,2 -32.5,-20 -1,1 -3.5,8 -36,53.5 28.5,20 -1.5,2.5 -32,-22 2,-3 36,-53 V 312 L 310,304 Z"
         fill="#ffcd78"
         id="path40874" /><path
         d="m 385,200 -3,9 5.5,2 3,-7.5 h 13.5 22.5 29 l 11.5,1 18,1 0.5,83.5 -7.5,11.5 2.5,2 8.5,-13 v -84 l 10,3.5 44.5,17.5 -2.5,11 31,14.5 25,9 17.5,25.5 6.5,-1.5 6.5,3.5 18.5,-3.5 25,1.5 13,4.5 22,2.5 9.5,-2.5 9.5,4.5 2.5,-2 -12.5,-5 -9,2 -22,-2 -13,-5 -25,-1.5 -18.5,3 -6.5,-3 h -6.5 l -17,-24 -24,-8.5 -29.5,-15 2,-10.5 -57,-22 h -4.5 l -54.5,-4 11.5,-49 1.5,-10.5 -3.5,-11.5 -4,-6 V 107 L 452.5,1.5 449,0 l -9,56.5 -8.5,50.5 0.5,27 -15.5,56.5 4.5,8.5 z"
         fill="#ffcd78"
         id="path40876" /><path
         d="m 421.5,192 14,-53.5 H 439 L 424.5,196 Z"
         fill="#ffffff"
         id="path40878" /><path
         d="m 342.5,233.5 5,-26 1.5,0.5 -4.5,26 29.5,8 v 2.5 l -32,-8 h -11.5 l -10,3 -19,14.5 -17.5,13.5 -77,13 -13.5,9 -112,29 -30,11 -40,5.5 3,20 6,15 7.5,11 17,22 h -6.5 l -9,-12 -13,-19 L 9,355 5.5,335 0.5,282.5 h 5 l 6,49.5 40,-5 30,-11.5 112,-29.5 13.5,-8.5 77,-12.5 36,-28 10.5,-3.5 z"
         fill="#ffcd78"
         id="path40880" /><path
         d="m 695,541 138.5,72.5 v -3 L 807,595.5 703,541 641.5,508 589,460.5 572,418 488.5,308.5 435.5,269 v -11.5 l -55,-17 7.5,-30.5 -6,-2 -34,-4.5 -119.5,-32 -202,-57 v 4 l 159,45 156.5,43 38.5,7.5 -7,30 4,2 52.5,14.5 V 273 l 3.5,2.5 52.5,37 82.5,108 17,44 52.5,47 z"
         fill="#ffcd78"
         id="path40882" /><path
         d="m 272.5,522 -10,18 -2.5,-5 12.5,-20.5 122,-169 15,-21 6.5,-15.5 14,-36 3.5,3.5 -10.5,24 -9,24 -9.5,11.5 -56,81 z"
         fill="#ffce7a"
         id="path40884" /></g><path
       style="opacity:1;fill:#ffcd78;fill-opacity:1;stroke:none;stroke-width:0.808302;stroke-dasharray:none;stroke-opacity:1"
       d="m 44.812716,115.13954 -0.77738,-6.67545 1.020445,-0.40748 0.752374,7.08293 z"
       id="path41300" /></g></svg>
