<?xml version="1.0" encoding="UTF-8" standalone="no"?>
<!-- Created with Inkscape (http://www.inkscape.org/) -->

<svg
   version="1.1"
   id="svg2"
   width="169.47986"
   height="165.38324"
   viewBox="0 0 169.47986 165.38324"
   sodipodi:docname="map.svg"
   inkscape:version="1.2.2 (732a01da63, 2022-12-09)"
   xmlns:inkscape="http://www.inkscape.org/namespaces/inkscape"
   xmlns:sodipodi="http://sodipodi.sourceforge.net/DTD/sodipodi-0.dtd"
   xmlns="http://www.w3.org/2000/svg"
   xmlns:svg="http://www.w3.org/2000/svg">
  <defs
     id="defs6">
    <linearGradient
       id="linearGradient67598"
       inkscape:swatch="solid">
      <stop
         style="stop-color:#777777;stop-opacity:1;"
         offset="0"
         id="stop67596" />
    </linearGradient>
  </defs>
  <sodipodi:namedview
     id="namedview4"
     pagecolor="#ffffff"
     bordercolor="#111111"
     borderopacity="1"
     inkscape:showpageshadow="0"
     inkscape:pageopacity="0"
     inkscape:pagecheckerboard="1"
     inkscape:deskcolor="#d1d1d1"
     showgrid="false"
     showguides="false"
     inkscape:lockguides="false"
     inkscape:zoom="0.70835525"
     inkscape:cx="1043.2618"
     inkscape:cy="502.57268"
     inkscape:window-width="1920"
     inkscape:window-height="1009"
     inkscape:window-x="-8"
     inkscape:window-y="-8"
     inkscape:window-maximized="1"
     inkscape:current-layer="g8" />
  <g
     inkscape:groupmode="layer"
     inkscape:label="Image"
     id="g8"
     transform="translate(-896.02112,-3.7961111)">
    <path
       style="opacity:1;mix-blend-mode:normal;fill:#fafafa;fill-opacity:1;stroke:#000000;stroke-opacity:0.434483"
       d="m 898.83447,115.79962 5.42792,1.43497 20.96299,12.85231 2.68276,-0.49912 3.36905,-1.2478 2.37082,-1.12301 4.3049,-0.99824 1.93408,0.37434 3.80578,2.49559 7.05006,2.05887 7.86111,0.12478 3.9305,1.99647 1.3102,3.11949 0.3119,5.30314 4.6793,8.42263 5.3655,0.87346 19.0913,0.0624 2.4332,0.81107 2.558,2.4332 2.05886,1.49736 11.2301,2.55798 5.8023,2.4332 2.8076,2.62038 4.5545,3.36905 3.8682,1.87169 3.0571,-0.93584 1.1018,-1.59867 -0.044,-4.23517 -0.5735,-1.67642 0.75,-2.60286 11.8369,-10.22597 1.9965,-4.21132 -1.0606,-2.52679 -0.1872,-4.8664 0.3432,-3.33786 2.0588,-5.11597 2.8076,-4.52326 0.9982,-2.74516 -0.188,-10.13835 1.2166,-3.58741 1.2166,-1.8405 0.6863,-1.62214 -0.031,-3.150695 -1.0606,-5.02238 0.5303,-2.37081 2.09,-2.33962 3.0884,-1.74692 2.7139,-1.37257 2.2149,-1.31019 0.811,-1.55975 -1.6845,-9.32728 0.1872,-3.24427 -1.0606,-2.71396 -2.834,-1.84762 c 0,0 -32.6034,-0.21127 -27.9242,-19.30255 l -5.1163,-0.12478 -2.9323,-0.49912 -1.9965,-1.43496 -0.2496,-1.80931 1.5598,-4.05534 2.0588,-3.556219 2.402,-4.3049 0.5303,-1.74691 0.1872,-0.99824 -2.2148,-1.02943 -3.0259,-0.21836 -1.4974,0.6239 -2.4957,0.24956 -2.4332,-0.18717 -1.9341,-0.37434 -2.3084,-2.37081 -7.2372,-13.72577 -5.17836,-6.3637598 -0.2492,5.4279098 -6.1766,0.6239 -1.8093,0.93585 -1.1854,1.99647 -1.9965,2.18365 -1.9341,0.49912 -2.6204,-0.18717 -5.3655,-5.24075 -2.6827,-1.2478 -2.87,-0.8734498 -13.5385,-0.0624 -2.4332,0.31195 -3.8058,-0.74868 -1.55976,-1.8717 -2.55798,-1.68452 -1.68452,-1.37258 -3.49384,0.24956 -2.24603,1.87169 -2.18365,2.12126 -2.86993,2.1212498 -1.99647,0.87346 -1.80931,0.56151 -0.56151,0.43673 -0.6239,2.62037 -0.0624,2.24604 1.49736,1.43496 1.80931,2.4956 1.43496,1.93408 c 0,0 0.49912,1.8717 0.49912,2.12126 0,0.24956 -0.12478,1.68452 -0.12478,1.68452 l -1.93408,1.8717 -0.74868,3.36905 0.18717,2.12126 1.62213,2.80754 1.18541,2.308419 -0.43673,5.17836 -0.37434,2.12125 -1.62213,1.99648 -2.24604,1.18541 -1.93408,1.06062 -3.93056,0.31195 -2.62038,-0.99823 -2.93232,-1.80931 -1.49736,-0.18717 -6.7381,0.49912 -3.43144,0.81107 -2.62037,1.62213 -2.24604,2.37082 -1.49736,4.67924 -0.74867,3.43144 -0.12478,6.05181 1.49735,5.11597 2.05887,5.98943 2.68276,8.79696 0.31195,4.74163 -0.81107,2.55799 -1.8093,2.12125 -2.68277,2.49559 -3.24427,2.058875 -1.8093,2.49559 -1.31019,2.99472 -0.24956,3.0571 0.6239,2.55798 z"
       id="path43409"
       inkscape:export-filename=".\udomelskiy.svg"
       inkscape:export-xdpi="96"
       inkscape:export-ydpi="96" />
  </g>
</svg>
