<?xml version="1.0" encoding="UTF-8" standalone="no"?>
<!-- Created with Inkscape (http://www.inkscape.org/) -->

<svg
   version="1.1"
   id="svg2"
   width="232.43619"
   height="197.81796"
   viewBox="0 0 232.43619 197.81796"
   sodipodi:docname="map.svg"
   inkscape:version="1.2.2 (732a01da63, 2022-12-09)"
   xmlns:inkscape="http://www.inkscape.org/namespaces/inkscape"
   xmlns:sodipodi="http://sodipodi.sourceforge.net/DTD/sodipodi-0.dtd"
   xmlns="http://www.w3.org/2000/svg"
   xmlns:svg="http://www.w3.org/2000/svg">
  <defs
     id="defs6">
    <linearGradient
       id="linearGradient67598"
       inkscape:swatch="solid">
      <stop
         style="stop-color:#777777;stop-opacity:1;"
         offset="0"
         id="stop67596" />
    </linearGradient>
  </defs>
  <sodipodi:namedview
     id="namedview4"
     pagecolor="#ffffff"
     bordercolor="#111111"
     borderopacity="1"
     inkscape:showpageshadow="0"
     inkscape:pageopacity="0"
     inkscape:pagecheckerboard="1"
     inkscape:deskcolor="#d1d1d1"
     showgrid="false"
     showguides="false"
     inkscape:lockguides="false"
     inkscape:zoom="0.70835525"
     inkscape:cx="1043.2618"
     inkscape:cy="502.57268"
     inkscape:window-width="1920"
     inkscape:window-height="1009"
     inkscape:window-x="-8"
     inkscape:window-y="-8"
     inkscape:window-maximized="1"
     inkscape:current-layer="g8" />
  <g
     inkscape:groupmode="layer"
     inkscape:label="Image"
     id="g8"
     transform="translate(-96.014099,-203.75912)">
    <path
       style="opacity:1;mix-blend-mode:normal;fill:#fafafa;fill-opacity:1;stroke:#000000;stroke-opacity:0.434483"
       d="m 182.24439,397.89202 -0.79409,-5.24984 -0.83821,-3.35284 -0.44116,-4.19105 0.70586,-3.92635 1.14702,-2.42639 2.4264,-1.27937 3.74988,-0.61763 2.4264,0.0441 1.58818,1.41173 1.897,3.35283 1.54407,3.66165 1.23526,1.27938 9.30853,-3.57342 5.24984,-4.27928 -2.22009,-2.06977 -2.68276,-4.74163 -0.49912,-1.16981 -0.49912,-1.16981 -0.49912,-3.55622 0.21837,-2.4332 1.46616,-1.2166 3.0883,-0.95144 8.04829,-2.16806 1.59094,-0.17157 4.86641,-0.35874 2.29282,-1.04503 1.73132,-1.63773 0.43673,-2.80755 1.06063,-2.74515 3.36903,-6.36376 2.1837,-2.21484 1.7469,-2.21484 1.3102,-2.4956 1.123,-2.65157 1.4349,-6.08301 0.312,-4.8664 -0.5615,-2.77635 0.2495,-3.71219 0.094,-0.90466 1.5909,-1.55975 7.2684,-2.27723 2.5268,-1.2166 1.1542,-1.71572 0.7179,-8.11068 1.8093,-1.34138 5.0848,-0.46792 1.8717,-1.8717 1.5286,-10.85583 0.811,-3.77459 0.6551,-1.77811 2.1837,-2.58918 2.8387,-2.15245 2.2616,-1.07622 3.1195,-1.59094 2.0433,-0.87346 1.1854,-0.35874 2.5268,-0.0312 4.96,0.87346 2.9947,0.84226 8.4226,3.46264 3.0571,-0.71748 2.714,-3.6966 3.1663,-3.57182 1.2946,-0.56151 1.6221,0.81107 1.6065,1.90289 2.3552,0.53031 1.3726,-3.07269 0.7799,-2.29283 0.2184,-0.90466 1.1854,-1.87169 1.4661,-1.68453 2.0589,-1.43496 1.9341,-1.15422 1.123,-1.24779 1.123,-1.2478 2.0859,-3.20475 -2.4485,-2.91167 -1.0367,-1.14703 -2.8234,-0.22058 -2.6911,1.05879 -2.647,2.11758 -2.647,1.6323 -1.1029,-0.26469 -1.1018,1.59867 -3.0571,0.93584 -3.8682,-1.87169 -4.5545,-3.36905 -2.8075,-2.62038 -5.8023,-2.4332 -8.0483,-1.93409 -3.1818,-0.62389 -2.0589,-1.49736 -2.558,-2.4332 -2.4332,-0.81107 h -5.6775 l -6.7381,-0.0624 h -6.6757 l -5.3655,-0.87346 -1.3102,-2.49559 -3.3691,-5.92704 -0.3119,-5.30314 -1.3102,-3.11949 -3.9305,-1.99647 -7.86111,-0.12478 -7.05006,-2.05887 -3.80578,-2.49559 c 0,0 -1.06062,-0.49912 -1.93408,-0.37434 -0.87346,0.12478 -4.3049,0.99824 -4.3049,0.99824 l -2.37082,1.12301 -3.36905,1.2478 -2.68276,0.49912 -20.96299,-12.85231 -3.61861,-1.2478 -1.80931,-0.18717 -1.68452,3.49384 -1.31019,2.12125 -3.74339,2.43321 -3.36905,1.55974 -5.49031,1.37258 -4.55446,0.81107 -1.99647,0.5615 -2.30843,2.30843 -2.80754,4.24251 -0.24956,2.18364 -1.12301,2.93233 -2.05887,1.87169 -2.86993,2.74515 -3.49383,0.93585 -4.3049,1.8717 -2.62038,1.43496 -4.24251,3.1195 -3.18188,2.24603 -1.43497,1.62214 -1.62213,2.24603 -0.68629,2.37082 1.18541,2.24603 1.37257,2.24603 2.93233,2.99472 1.87169,1.99647 1.99648,1.93409 2.12125,3.43144 -0.0624,1.43497 -0.81107,2.05886 -2.18364,1.2478 -3.24427,0.6239 c 0,0 -3.55622,0.43672 -3.93056,0.43672 -0.37434,0 -3.18188,0.37434 -3.18188,0.37434 l -1.12302,1.31019 c 0,0 -1.99648,1.06063 -2.4956,1.18541 -0.49911,0.12478 -3.43144,0.87346 -3.43144,0.87346 l -1.99647,0.87345 -2.05887,1.62214 -0.74868,1.74691 -0.81106,1.93409 -1.12302,2.37081 -2.12126,2.74516 -1.87169,1.87169 -1.93409,2.37082 -2.183638,1.8093 -0.37434,3.74339 -0.31195,5.98943 -0.68629,3.86817 1.18541,4.3049 0.686288,1.62213 1.87169,1.62214 2.12126,1.37258 3.30666,2.55798 2.12125,1.55975 1.2478,1.93408 0.18717,11.54212 0.43673,3.18189 c 0,0 -0.18717,2.24603 -0.24956,2.49559 -0.0624,0.24956 0.93585,1.93409 0.93585,1.93409 l -0.12478,1.68452 -2.12126,1.2478 -3.80578,0.6239 -4.42968,0.24956 -2.869928,0.24956 -1.55974,1.55974 -0.56151,2.18365 0.43673,3.36905 0.43672,3.36905 1.18541,2.37081 1.434968,3.55622 0.99824,3.30667 -0.31195,3.74339 0.49911,3.86817 -0.0624,3.49383 0.74867,2.99471 2.43321,1.37258 4.24251,0.6239 2.18364,0.74868 2.12126,1.68452 2.18364,2.62037 0.87346,2.4956 1.37258,2.12125 4.30489,1.31019 6.05182,0.93585 4.55446,0.24956 5.92703,-1.99648 6.48855,-3.24427 3.0571,-0.37434 3.24427,0.93585 4.05534,2.74515 2.4956,-1.49735 1.68452,-4.55446 1.80931,-2.86994 1.62213,-1.31018 2.12126,0.49912 4.24251,2.05886 3.0571,2.49559 0.43673,3.7434 -0.99824,4.42967 -0.81107,2.74516 -0.12478,2.18364 1.43497,1.55975 3.24427,2.74515 c 0,0 1.18541,0.43673 1.43497,0.49912 0.24956,0.0624 3.36905,-0.6239 3.36905,-0.6239 l 2.6419,-1.01021 z"
       id="path43407"
       inkscape:export-filename=".\vishniyvolochok.svg"
       inkscape:export-xdpi="96"
       inkscape:export-ydpi="96" />
  </g>
</svg>
