<?xml version="1.0" encoding="UTF-8" standalone="no"?>
<!-- Created with Inkscape (http://www.inkscape.org/) -->

<svg
   version="1.1"
   id="svg2"
   width="193.42004"
   height="123.86804"
   viewBox="0 0 193.42004 123.86804"
   sodipodi:docname="map.svg"
   inkscape:version="1.2.2 (732a01da63, 2022-12-09)"
   xmlns:inkscape="http://www.inkscape.org/namespaces/inkscape"
   xmlns:sodipodi="http://sodipodi.sourceforge.net/DTD/sodipodi-0.dtd"
   xmlns="http://www.w3.org/2000/svg"
   xmlns:svg="http://www.w3.org/2000/svg">
  <defs
     id="defs6">
    <linearGradient
       id="linearGradient67598"
       inkscape:swatch="solid">
      <stop
         style="stop-color:#777777;stop-opacity:1;"
         offset="0"
         id="stop67596" />
    </linearGradient>
  </defs>
  <sodipodi:namedview
     id="namedview4"
     pagecolor="#ffffff"
     bordercolor="#111111"
     borderopacity="1"
     inkscape:showpageshadow="0"
     inkscape:pageopacity="0"
     inkscape:pagecheckerboard="1"
     inkscape:deskcolor="#d1d1d1"
     showgrid="false"
     showguides="false"
     inkscape:lockguides="false"
     inkscape:zoom="0.70835525"
     inkscape:cx="1043.2618"
     inkscape:cy="502.57268"
     inkscape:window-width="1920"
     inkscape:window-height="1009"
     inkscape:window-x="-8"
     inkscape:window-y="-8"
     inkscape:window-maximized="1"
     inkscape:current-layer="g8" />
  <g
     inkscape:groupmode="layer"
     inkscape:label="Image"
     id="g8"
     transform="translate(-1572.2681,-558.75031)">
    <path
       style="opacity:1;mix-blend-mode:normal;fill:#fafafa;fill-opacity:1;stroke:#000000;stroke-opacity:0.434483"
       d="m 1759.9204,568.68039 -4.4116,-0.1544 -5.9999,0.0882 -3.2646,0.7941 -3.1763,1.6323 -2.6029,0.44116 -2.4264,-0.0441 -1.7646,-0.70587 -2.8676,-1.76465 -2.6911,-1.41172 -2.5587,-0.97056 h -3.1323 l -6.088,2.02935 -4.4558,0.13235 -6.9704,-7.98505 -2.1175,-1.1029 -1.2353,-0.39705 -1.5441,0.22058 -2.9558,1.23526 -8.9997,9.66146 -2.647,1.85289 -1.1911,1.14702 -2.2499,0.61763 -3.7058,0.2647 -15.7495,-4.27928 -2.8676,-0.17647 -3.1322,0.5294 -4.8969,2.11758 -1.4999,3.22049 0.2205,2.38228 0.8824,2.86756 1.3234,1.94111 0.9706,2.86756 0.5735,2.1617 -0.397,2.20581 -1.3676,1.14703 -2.7794,-0.0882 -5.0733,-2.38228 -2.1176,-2.24993 -1.6764,-3.2646 -2.7352,-9.13207 -0.088,-8.64679 -1.3515,3.70875 -3.4314,2.49559 c 0,0 -3.8058,1.31019 -4.1802,1.31019 -0.3743,0 -4.492,0.12478 -4.9912,0.18717 -0.4991,0.0624 -5.7398,0.0624 -5.7398,0.0624 l -8.1731,-0.24956 -3.5562,1.12301 -1.8093,1.37258 -2.3708,2.62037 -4.8664,7.29962 -2.87,7.92351 -2.246,9.85759 -1.9965,6.92528 -1.2478,2.05886 -3.369,2.62037 -3.8682,2.4956 -5.9894,2.86993 -4.2425,3.61861 -0.9983,1.62214 -0.3743,3.11949 2.246,4.67924 3.8058,7.48678 3.1819,5.17836 2.558,4.74163 0.1871,3.93056 1.9341,2.12125 8.2979,5.98943 1.8093,0.93584 c 0,0 0.1248,0.93585 0,1.62214 -0.1248,0.68629 -0.5615,2.93232 -0.5615,2.93232 v 2.74516 l 0.8734,0.81106 1.6222,0.37434 1.8717,-1.06062 1.6845,-0.37434 h 1.3726 l 1.2478,0.74868 0.811,2.05886 0.4368,2.74515 0.8734,1.49736 2.4332,1.62214 5.116,-0.37434 c 0,0 2.0588,-0.31195 2.3084,-0.43673 0.2496,-0.12478 1.8093,-0.24956 1.8093,-0.24956 l 2.1837,0.37434 2.4956,2.12125 2.1836,1.37258 c 0,0 4.4921,-0.0624 4.804,-0.0624 0.312,0 3.681,-0.31195 3.681,-0.31195 0,0 0.9359,-1.12302 0.9359,-1.49736 0,-0.37434 0.5615,-1.74691 0.6239,-2.37081 0.062,-0.6239 0.062,-1.37258 0.3743,-1.62214 0.3119,-0.24956 1.435,-0.68629 1.6845,-0.99823 0.2496,-0.31195 1.9965,-3.7434 1.9965,-3.7434 l 0.6863,-2.49559 0.5615,-2.12125 c 0,0 -0.4367,-0.6239 0.8111,-1.2478 1.2478,-0.6239 1.4349,-0.81107 1.8093,-0.81107 0.3743,0 1.1854,0.12478 1.1854,0.12478 l 3.7434,3.55622 c 0,0 0.062,1.18541 1.3101,1.2478 1.2478,0.0624 2.8076,-0.6239 2.8076,-0.6239 0,0 0.4991,-0.99824 0.7487,-1.18541 0.2495,-0.18717 0.062,-0.62389 0.7486,-0.74867 0.6863,-0.12478 2.3709,-0.12478 2.3709,-0.12478 l 1.7469,0.37433 1.0606,1.80931 3.5874,0.31195 3.0259,-2.80754 2.8387,-0.43673 3.7434,0.18717 5.9441,0.16585 2.8234,0.92644 2.3382,-1.1029 c 0,0 1.9411,-1.49996 2.3382,-1.67642 0.397,-0.17647 2.6469,-1.58819 2.8234,-1.63231 0.1765,-0.0441 2.2058,-0.92644 2.4705,-1.05879 0.2647,-0.13234 1.5882,-0.35293 1.5882,-0.35293 h 2.3823 l 1.6323,1.54407 1.6764,2.20582 c 0,0 1.1911,1.58818 1.7205,2.02935 0.5294,0.44116 1.7206,1.67642 1.897,1.85288 0.1765,0.17647 1.1912,0.92644 1.897,0.97056 0.7059,0.0441 0.75,0.17646 1.4118,0.17646 0.6617,0 1.544,-0.0441 1.6764,-0.22058 0.1323,-0.17646 1.2793,-2.07346 1.2793,-2.07346 l 0.8383,-1.76465 2.3381,-4.63221 0.5735,-1.76465 0.2647,-2.02935 c 0,0 -0.044,-0.44117 0.3971,-0.74998 0.4411,-0.30881 1.7646,-1.45584 2.1176,-1.58819 0.3529,-0.13235 1.8528,-0.79409 2.294,-0.83821 0.4412,-0.0441 1.4117,0 1.7647,-0.17646 0.3529,-0.17647 1.2793,-0.5294 1.2793,-0.5294 l 0.4412,-1.14702 0.7941,-1.05879 0.8382,-1.45584 1.2353,-2.07346 c 0,0 0.1323,-1.32349 0.1764,-1.49996 0.044,-0.17646 1.3676,-1.98523 1.3676,-1.98523 0,0 1.2353,-1.3676 1.6323,-1.54407 0.3971,-0.17647 1.8529,-0.88233 2.0294,-0.97056 0.1764,-0.0882 1.8087,-0.97056 1.8087,-0.97056 l 0.7941,-1.54407 0.8824,-1.49995 c 0,0 1.3676,-0.88233 2.1175,-1.23526 0.75,-0.35293 2.8235,-1.05879 2.8235,-1.05879 l 0.5294,-1.85288 0.3529,-3.13226 c 0,0 0.044,-2.20581 0.1765,-2.51462 0.1323,-0.30882 0.2647,-2.86756 0.2647,-2.86756 l -0.8382,-0.83821 -1.1912,-0.39705 -4.0587,0.17647 -1.147,-0.88233 c 0,0 -0.5735,-0.92644 -0.5294,-1.23526 0.044,-0.30881 0.5294,-1.23525 0.5294,-1.23525 l 0.3088,-1.6323 1.4559,-2.11759 0.3088,-1.01467 -0.088,-1.19114 -0.6617,-1.54407 -0.6176,-2.07347 c 0,0 -0.6177,-0.66174 0.1764,-1.05879 0.7941,-0.39704 2.2058,-0.70586 2.2058,-0.70586 0,0 1.4118,-0.0882 1.9412,-0.30881 0.5294,-0.22058 2.7352,-0.97056 2.7352,-0.97056 l 1.7205,-1.05879 1.0588,-1.76465 0.5735,-2.64698 0.3529,-2.95579 c 0,0 0.044,-1.27937 0,-1.45584 -0.044,-0.17646 -1.147,-0.66174 -1.147,-0.66174 0,0 -0.8382,-0.2647 -1.0588,-0.2647 -0.2206,0 -1.2794,-0.30881 -1.5882,-0.52939 -0.3088,-0.22059 -1.4558,-0.61763 -1.6764,-0.92645 -0.2206,-0.30881 -1.3235,-1.72053 -1.3235,-1.72053 0,0 -0.1764,-1.05879 -0.3088,-1.23526 -0.1323,-0.17646 -0.4853,-1.80876 -0.4412,-2.11758 0.044,-0.30881 0.3089,-1.6323 0.6618,-1.76465 0.3529,-0.13235 2.9117,-0.79409 3.1764,-0.92644 0.2647,-0.13235 2.3822,-0.66175 2.7793,-0.70586 0.397,-0.0441 2.6029,-0.39705 2.6029,-0.39705 l 2.3381,-0.57351 1.6764,-0.66174 c 0,0 1.2353,-0.66175 1.4118,-0.74998 0.1764,-0.0882 1.2793,-0.13235 1.4999,-0.17647 0.2206,-0.0441 2.4705,-0.22058 2.4705,-0.22058 l 2.1617,-0.0882 h 1.7647 c 0,0 1.8087,-0.13235 2.2058,-0.13235 0.397,0 1.7646,-0.17646 1.7646,-0.17646 l 1.9412,-0.66175 1.544,-0.17646 -0.044,-1.14703 -1.1911,-1.80876 -1.0147,-2.38228 -0.6618,-2.1617 -0.7058,-1.67642 -0.2206,-1.01468 -0.5735,-2.95579 -0.2206,-1.23525 z"
       id="path43303"
       sodipodi:nodetypes="ccccccccccccccccccccccccccccccccccccccccccccssccccccccccccccccccccccccscccccccccccccsccccscsssscccssccscssccc"
       inkscape:export-filename=".\zubtsov.svg"
       inkscape:export-xdpi="96"
       inkscape:export-ydpi="96" />
  </g>
</svg>
